SourceCodePro_2.ufo
<glyph name="plus" format="1">
  <advance width="600"/>
  <unicode hex="002B"/>
  <outline>
    <contour>
      <point x="238" y="90" type="line"/>
      <point x="362" y="90" type="line"/>
      <point x="362" y="270" type="line"/>
      <point x="536" y="270" type="line"/>
      <point x="536" y="390" type="line"/>
      <point x="362" y="390" type="line"/>
      <point x="362" y="570" type="line"/>
      <point x="238" y="570" type="line"/>
      <point x="238" y="390" type="line"/>
      <point x="64" y="390" type="line"/>
      <point x="64" y="270" type="line"/>
      <point x="238" y="270" type="line"/>
    </contour>
  </outline>
</glyph>
<glyph name="less" format="1">
  <advance width="600"/>
  <unicode hex="003C"/>
  <outline>
    <contour>
      <point x="506" y="24" type="line"/>
      <point x="506" y="178" type="line"/>
      <point x="254" y="330" type="line"/>
      <point x="254" y="334" type="line"/>
      <point x="506" y="486" type="line"/>
      <point x="506" y="640" type="line"/>
      <point x="114" y="390" type="line"/>
      <point x="114" y="274" type="line"/>
    </contour>
  </outline>
</glyph>
<glyph name="K" format="1">
  <advance width="600"/>
  <unicode hex="004B"/>
  <outline>
    <contour>
      <point x="56" y="0" type="line"/>
      <point x="230" y="0" type="line"/>
      <point x="230" y="166" type="line"/>
      <point x="584" y="650" type="line"/>
      <point x="394" y="650" type="line"/>
      <point x="234" y="408" type="line"/>
      <point x="230" y="408" type="line"/>
      <point x="230" y="650" type="line"/>
      <point x="56" y="650" type="line"/>
    </contour>
    <contour>
      <point x="410" y="0" type="line"/>
      <point x="600" y="0" type="line"/>
      <point x="378" y="412" type="line"/>
      <point x="278" y="278" type="line"/>
    </contour>
    <contour>
      <point x="320" y="670" type="move" name="aboveUC"/>
    </contour>
    <contour>
      <point x="320" y="-20" type="move" name="belowLC"/>
    </contour>
  </outline>
</glyph>
<glyph name="L" format="1">
  <advance width="600"/>
  <unicode hex="004C"/>
  <outline>
    <contour>
      <point x="96" y="0" type="line"/>
      <point x="545" y="0" type="line"/>
      <point x="545" y="144" type="line"/>
      <point x="268" y="144" type="line"/>
      <point x="268" y="650" type="line"/>
      <point x="96" y="650" type="line"/>
    </contour>
    <contour>
      <point x="194" y="670" type="move" name="aboveUC"/>
    </contour>
    <contour>
      <point x="330" y="-20" type="move" name="belowLC"/>
    </contour>
    <contour>
      <point x="180" y="350" type="move" name="center"/>
    </contour>
    <contour>
      <point x="330" y="0" type="move" name="baseLC"/>
    </contour>
  </outline>
</glyph>
<glyph name="b" format="1">
  <advance width="600"/>
  <unicode hex="0062"/>
  <outline>
    <contour>
      <point x="345" y="-12" type="curve" smooth="yes"/>
      <point x="454" y="-12"/>
      <point x="558" y="86"/>
      <point x="558" y="259" type="curve" smooth="yes"/>
      <point x="558" y="412"/>
      <point x="480" y="512"/>
      <point x="359" y="512" type="curve" smooth="yes"/>
      <point x="314" y="512"/>
      <point x="268" y="494"/>
      <point x="234" y="462" type="curve"/>
      <point x="230" y="462" type="line"/>
      <point x="236" y="534" type="line"/>
      <point x="236" y="696" type="line"/>
      <point x="64" y="696" type="line"/>
      <point x="64" y="0" type="line"/>
      <point x="198" y="0" type="line"/>
      <point x="212" y="54" type="line"/>
      <point x="216" y="54" type="line"/>
      <point x="255" y="10"/>
      <point x="300" y="-12"/>
    </contour>
    <contour>
      <point x="304" y="128" type="curve" smooth="yes"/>
      <point x="281" y="128"/>
      <point x="257" y="134"/>
      <point x="236" y="152" type="curve"/>
      <point x="236" y="336" type="line"/>
      <point x="260" y="362"/>
      <point x="281" y="372"/>
      <point x="308" y="372" type="curve" smooth="yes"/>
      <point x="357" y="372"/>
      <point x="382" y="338"/>
      <point x="382" y="256" type="curve" smooth="yes"/>
      <point x="382" y="160"/>
      <point x="346" y="128"/>
    </contour>
    <contour>
      <point x="150" y="730" type="move" name="aboveUC"/>
    </contour>
    <contour>
      <point x="310" y="-20" type="move" name="belowLC"/>
    </contour>
  </outline>
</glyph>
<glyph name="h" format="1">
  <advance width="600"/>
  <unicode hex="0068"/>
  <outline>
    <contour>
      <point x="64" y="0" type="line"/>
      <point x="236" y="0" type="line"/>
      <point x="236" y="328" type="line"/>
      <point x="262" y="352"/>
      <point x="284" y="366"/>
      <point x="316" y="366" type="curve" smooth="yes"/>
      <point x="360" y="366"/>
      <point x="374" y="342"/>
      <point x="374" y="286" type="curve" smooth="yes"/>
      <point x="374" y="0" type="line"/>
      <point x="546" y="0" type="line"/>
      <point x="546" y="308" type="line" smooth="yes"/>
      <point x="546" y="432"/>
      <point x="498" y="512"/>
      <point x="388" y="512" type="curve" smooth="yes"/>
      <point x="314" y="512"/>
      <point x="262" y="478"/>
      <point x="230" y="446" type="curve"/>
      <point x="226" y="446" type="line"/>
      <point x="236" y="534" type="line"/>
      <point x="236" y="696" type="line"/>
      <point x="64" y="696" type="line"/>
    </contour>
    <contour>
      <point x="150" y="730" type="move" name="aboveUC"/>
    </contour>
    <contour>
      <point x="305" y="-20" type="move" name="belowLC"/>
    </contour>
    <contour>
      <point x="150" y="0" type="move" name="baseLC"/>
    </contour>
  </outline>
</glyph>
<glyph name="l" format="1">
  <advance width="600"/>
  <unicode hex="006C"/>
  <outline>
    <contour>
      <point x="391" y="-12" type="curve" smooth="yes"/>
      <point x="456" y="-12"/>
      <point x="492" y="-2"/>
      <point x="546" y="14" type="curve"/>
      <point x="509" y="140" type="line"/>
      <point x="480" y="130"/>
      <point x="458" y="126"/>
      <point x="437" y="126" type="curve" smooth="yes"/>
      <point x="402" y="126"/>
      <point x="362" y="142"/>
      <point x="362" y="200" type="curve" smooth="yes"/>
      <point x="362" y="696" type="line"/>
      <point x="54" y="696" type="line"/>
      <point x="54" y="562" type="line"/>
      <point x="190" y="562" type="line"/>
      <point x="190" y="206" type="line" smooth="yes"/>
      <point x="190" y="76"/>
      <point x="258" y="-12"/>
    </contour>
    <contour>
      <point x="270" y="730" type="move" name="aboveUC"/>
    </contour>
    <contour>
      <point x="360" y="-20" type="move" name="belowLC"/>
    </contour>
    <contour>
      <point x="274" y="360" type="move" name="center"/>
    </contour>
    <contour>
      <point x="300" y="0" type="move" name="baseLC"/>
    </contour>
  </outline>
</glyph>
<glyph name="q" format="1">
  <advance width="600"/>
  <unicode hex="0071"/>
  <outline>
    <contour>
      <point x="364.0" y="-176.0" type="line"/>
      <point x="536.0" y="-176.0" type="line"/>
      <point x="536.0" y="500.0" type="line"/>
      <point x="402.0" y="500.0" type="line"/>
      <point x="388.0" y="450.0" type="line"/>
      <point x="384.0" y="450.0" type="line"/>
      <point x="345.0" y="494.0"/>
      <point x="305.0" y="512.0"/>
      <point x="251.0" y="512.0" type="curve" smooth="yes"/>
      <point x="146.0" y="512.0"/>
      <point x="42.0" y="414.0"/>
      <point x="42.0" y="250.0" type="curve" smooth="yes"/>
      <point x="42.0" y="88.0"/>
      <point x="124.0" y="-12.0"/>
      <point x="250.0" y="-12.0" type="curve" smooth="yes"/>
      <point x="292.0" y="-12.0"/>
      <point x="338" y="8"/>
      <point x="368" y="38" type="curve"/>
      <point x="372" y="38" type="line"/>
      <point x="364.0" y="-38.0" type="line"/>
    </contour>
    <contour>
      <point x="296" y="128" type="curve" smooth="yes"/>
      <point x="247" y="128"/>
      <point x="218" y="162"/>
      <point x="218" y="252" type="curve" smooth="yes"/>
      <point x="218" y="340"/>
      <point x="256" y="372"/>
      <point x="298" y="372" type="curve" smooth="yes"/>
      <point x="322" y="372"/>
      <point x="344" y="366"/>
      <point x="364" y="348" type="curve"/>
      <point x="364" y="164" type="line"/>
      <point x="345" y="136"/>
      <point x="324" y="128"/>
    </contour>
    <contour>
      <point x="310" y="520" type="move" name="aboveLC"/>
    </contour>
    <contour>
      <point x="445" y="-200" type="move" name="belowLC"/>
    </contour>
  </outline>
</glyph>
<glyph name="s" format="1">
  <advance width="600"/>
  <unicode hex="0073"/>
  <outline>
    <contour>
      <point x="290" y="-12" type="curve" smooth="yes"/>
      <point x="457" y="-12"/>
      <point x="546" y="60"/>
      <point x="546" y="154" type="curve" smooth="yes"/>
      <point x="546.0" y="245.2"/>
      <point x="468" y="282"/>
      <point x="352" y="306" type="curve" smooth="yes"/>
      <point x="274" y="322"/>
      <point x="248" y="333"/>
      <point x="248" y="356" type="curve" smooth="yes"/>
      <point x="248" y="376"/>
      <point x="268" y="386"/>
      <point x="300" y="386" type="curve" smooth="yes"/>
      <point x="352" y="386"/>
      <point x="410" y="370"/>
      <point x="462" y="340" type="curve"/>
      <point x="538" y="442" type="line"/>
      <point x="484.82707132" y="475.107672574"/>
      <point x="410.425339367" y="512.0"/>
      <point x="316" y="512" type="curve" smooth="yes"/>
      <point x="170.608333333" y="512.0"/>
      <point x="77.0" y="448.0"/>
      <point x="77" y="350" type="curve" smooth="yes"/>
      <point x="77.0" y="266.891891892"/>
      <point x="156" y="226"/>
      <point x="266" y="200" type="curve" smooth="yes"/>
      <point x="350" y="180"/>
      <point x="375" y="172"/>
      <point x="375" y="146" type="curve" smooth="yes"/>
      <point x="375" y="126"/>
      <point x="358" y="114"/>
      <point x="314" y="114" type="curve" smooth="yes"/>
      <point x="250" y="114"/>
      <point x="181" y="133"/>
      <point x="118" y="170" type="curve"/>
      <point x="46" y="64" type="line"/>
      <point x="110" y="22"/>
      <point x="204" y="-12"/>
    </contour>
    <contour>
      <point x="316.0" y="520.0" type="move" name="aboveLC"/>
    </contour>
    <contour>
      <point x="310.0" y="0.0" type="move" name="baseLC"/>
    </contour>
    <contour>
      <point x="306.0" y="-20.0" type="move" name="belowLC"/>
    </contour>
  </outline>
</glyph>
<glyph name="w" format="1">
  <advance width="600"/>
  <unicode hex="0077"/>
  <outline>
    <contour>
      <point x="74" y="0" type="line"/>
      <point x="268" y="0" type="line"/>
      <point x="284" y="134" type="line" smooth="yes"/>
      <point x="292" y="207"/>
      <point x="295" y="248"/>
      <point x="298" y="282" type="curve"/>
      <point x="302" y="282" type="line"/>
      <point x="307" y="227"/>
      <point x="312" y="180"/>
      <point x="318" y="134" type="curve" smooth="yes"/>
      <point x="334" y="0" type="line"/>
      <point x="532" y="0" type="line"/>
      <point x="598" y="500" type="line"/>
      <point x="438" y="500" type="line"/>
      <point x="422" y="290" type="line" smooth="yes"/>
      <point x="418" y="240"/>
      <point x="417" y="190"/>
      <point x="411" y="138" type="curve"/>
      <point x="407" y="138" type="line"/>
      <point x="400" y="190"/>
      <point x="393" y="240"/>
      <point x="384" y="290" type="curve" smooth="yes"/>
      <point x="362" y="420" type="line"/>
      <point x="246" y="420" type="line"/>
      <point x="226" y="290" type="line"/>
      <point x="216" y="242"/>
      <point x="210" y="190"/>
      <point x="205" y="138" type="curve"/>
      <point x="202" y="138" type="line"/>
      <point x="196" y="190"/>
      <point x="193" y="240"/>
      <point x="188" y="290" type="curve" smooth="yes"/>
      <point x="168" y="500" type="line"/>
      <point x="2" y="500" type="line"/>
    </contour>
    <contour>
      <point x="300" y="520" type="move" name="aboveLC"/>
    </contour>
    <contour>
      <point x="300" y="-20" type="move" name="belowLC"/>
    </contour>
  </outline>
</glyph>
<glyph name="logicalnot" format="1">
  <advance width="600"/>
  <unicode hex="00AC"/>
  <outline>
    <contour>
      <point x="412" y="90" type="line"/>
      <point x="536" y="90" type="line"/>
      <point x="536" y="390" type="line"/>
      <point x="64" y="390" type="line"/>
      <point x="64" y="270" type="line"/>
      <point x="412" y="270" type="line"/>
    </contour>
  </outline>
</glyph>
<glyph name="thorn" format="1">
  <advance width="600"/>
  <unicode hex="00FE"/>
  <outline>
    <contour>
      <point x="64.0" y="-176.0" type="line"/>
      <point x="236.0" y="-176.0" type="line"/>
      <point x="236.0" y="-38.0" type="line"/>
      <point x="230" y="38" type="line"/>
      <point x="234" y="38" type="line"/>
      <point x="260" y="10"/>
      <point x="298" y="-12"/>
      <point x="346.0" y="-12.0" type="curve" smooth="yes"/>
      <point x="452" y="-12"/>
      <point x="558.0" y="86.0"/>
      <point x="558.0" y="258.0" type="curve" smooth="yes"/>
      <point x="558.0" y="412.0"/>
      <point x="480.0" y="512.0"/>
      <point x="360.0" y="512.0" type="curve" smooth="yes"/>
      <point x="314.0" y="512.0"/>
      <point x="268.0" y="494.0"/>
      <point x="234.0" y="462.0" type="curve"/>
      <point x="230.0" y="462.0" type="line"/>
      <point x="236.0" y="534.0" type="line"/>
      <point x="236.0" y="696.0" type="line"/>
      <point x="64.0" y="696.0" type="line"/>
    </contour>
    <contour>
      <point x="304" y="128" type="curve" smooth="yes"/>
      <point x="282" y="128"/>
      <point x="256" y="134"/>
      <point x="236" y="152" type="curve"/>
      <point x="236" y="336" type="line"/>
      <point x="260" y="362"/>
      <point x="282" y="372"/>
      <point x="308" y="372" type="curve" smooth="yes"/>
      <point x="358" y="372"/>
      <point x="382" y="338"/>
      <point x="382" y="256" type="curve" smooth="yes"/>
      <point x="382" y="160"/>
      <point x="344" y="128"/>
    </contour>
    <contour>
      <point x="150" y="-200" type="move" name="belowLC"/>
    </contour>
    <contour>
      <point x="150" y="730" type="move" name="aboveUC"/>
    </contour>
  </outline>
</glyph>
<glyph name="dcaron" format="1">
  <advance width="600"/>
  <unicode hex="010F"/>
  <outline>
    <contour>
      <point x="205" y="-12" type="curve" smooth="yes"/>
      <point x="243" y="-12"/>
      <point x="282" y="15"/>
      <point x="314" y="46" type="curve"/>
      <point x="318" y="46" type="line"/>
      <point x="330" y="0" type="line"/>
      <point x="460" y="0" type="line"/>
      <point x="460" y="696" type="line"/>
      <point x="298" y="696" type="line"/>
      <point x="298" y="534" type="line"/>
      <point x="306" y="462" type="line"/>
      <point x="302" y="462" type="line"/>
      <point x="274" y="492"/>
      <point x="249" y="512"/>
      <point x="205" y="512" type="curve" smooth="yes"/>
      <point x="115.071770335" y="512.0"/>
      <point x="26.0" y="414.0"/>
      <point x="26" y="250" type="curve" smooth="yes"/>
      <point x="26.0" y="88.0"/>
      <point x="96.2296650718" y="-12.0"/>
    </contour>
    <contour>
      <point x="250" y="128" type="curve" smooth="yes"/>
      <point x="213.564102564" y="128.0"/>
      <point x="192" y="162"/>
      <point x="192" y="252" type="curve" smooth="yes"/>
      <point x="192" y="340"/>
      <point x="220.5" y="372.0"/>
      <point x="252" y="372" type="curve" smooth="yes"/>
      <point x="269" y="372"/>
      <point x="281" y="363"/>
      <point x="298" y="348" type="curve"/>
      <point x="298" y="164" type="line"/>
      <point x="281" y="138"/>
      <point x="270" y="128"/>
    </contour>
    <component base="caron.a" xOffset="260"/>
  </outline>
</glyph>
<glyph name="eogonek" format="1">
  <advance width="600"/>
  <unicode hex="0119"/>
  <outline>
    <contour>
      <point x="412" y="-228" type="curve" smooth="yes"/>
      <point x="449" y="-228"/>
      <point x="502" y="-215"/>
      <point x="532" y="-192" type="curve"/>
      <point x="498" y="-116" type="line"/>
      <point x="486" y="-123"/>
      <point x="470" y="-128"/>
      <point x="454" y="-128" type="curve" smooth="yes"/>
      <point x="426" y="-128"/>
      <point x="404" y="-114"/>
      <point x="404" y="-86" type="curve" smooth="yes"/>
      <point x="404" y="-46"/>
      <point x="428" y="-21"/>
      <point x="530" y="46" type="curve"/>
      <point x="474" y="148" type="line"/>
      <point x="430" y="128"/>
      <point x="394" y="118"/>
      <point x="354" y="118" type="curve" smooth="yes"/>
      <point x="262" y="118"/>
      <point x="216" y="156"/>
      <point x="216" y="250" type="curve" smooth="yes"/>
      <point x="216" y="340"/>
      <point x="252" y="382"/>
      <point x="318" y="382" type="curve" smooth="yes"/>
      <point x="374" y="382"/>
      <point x="400" y="346"/>
      <point x="400" y="280" type="curve"/>
      <point x="424" y="310" type="line"/>
      <point x="180" y="310" type="line"/>
      <point x="180" y="198" type="line"/>
      <point x="543" y="198" type="line"/>
      <point x="545" y="210"/>
      <point x="550" y="240"/>
      <point x="550" y="270" type="curve" smooth="yes"/>
      <point x="550" y="404"/>
      <point x="470" y="512"/>
      <point x="312" y="512" type="curve" smooth="yes"/>
      <point x="178" y="512"/>
      <point x="50" y="414"/>
      <point x="50" y="250" type="curve" smooth="yes"/>
      <point x="50" y="84"/>
      <point x="172" y="-12"/>
      <point x="330" y="-12" type="curve" smooth="yes"/>
      <point x="342" y="-12"/>
      <point x="362" y="-10"/>
      <point x="386" y="-6" type="curve"/>
      <point x="378" y="8" type="line"/>
      <point x="320" y="-36"/>
      <point x="290" y="-74"/>
      <point x="290" y="-126" type="curve" smooth="yes"/>
      <point x="290" y="-193"/>
      <point x="341" y="-228"/>
    </contour>
    <contour>
      <point x="310.0" y="520.0" type="move" name="aboveLC"/>
    </contour>
  </outline>
</glyph>
<glyph name="eng" format="1">
  <advance width="600"/>
  <unicode hex="014B"/>
  <outline>
    <contour>
      <point x="362" y="-188" type="curve" smooth="yes"/>
      <point x="500" y="-188"/>
      <point x="546" y="-86.0"/>
      <point x="546" y="26" type="curve" smooth="yes"/>
      <point x="546" y="308" type="line" smooth="yes"/>
      <point x="546" y="432"/>
      <point x="498" y="512"/>
      <point x="387" y="512" type="curve" smooth="yes"/>
      <point x="314" y="512"/>
      <point x="260" y="478"/>
      <point x="220" y="440" type="curve"/>
      <point x="216" y="440" type="line"/>
      <point x="204" y="500" type="line"/>
      <point x="64" y="500" type="line"/>
      <point x="64" y="0" type="line"/>
      <point x="236" y="0" type="line"/>
      <point x="236" y="328" type="line"/>
      <point x="262" y="352"/>
      <point x="284" y="366"/>
      <point x="316" y="366" type="curve" smooth="yes"/>
      <point x="360" y="366"/>
      <point x="374" y="342"/>
      <point x="374" y="286" type="curve" smooth="yes"/>
      <point x="374" y="20" type="line" smooth="yes"/>
      <point x="374" y="-34.0"/>
      <point x="360" y="-54"/>
      <point x="334" y="-54" type="curve" smooth="yes"/>
      <point x="323.333333333" y="-54.0"/>
      <point x="314.568563418" y="-51.5910181195"/>
      <point x="302" y="-48" type="curve"/>
      <point x="272" y="-174" type="line"/>
      <point x="293.175298232" y="-181.700108448"/>
      <point x="317.957446809" y="-188.0"/>
    </contour>
    <contour>
      <point x="314" y="520" type="move" name="aboveLC"/>
    </contour>
    <contour>
      <point x="310" y="-200" type="move" name="belowLC"/>
    </contour>
  </outline>
</glyph>
<glyph name="oe" format="1">
  <advance width="600"/>
  <unicode hex="0153"/>
  <outline>
    <contour>
      <point x="212" y="126" type="curve" smooth="yes"/>
      <point x="179" y="126"/>
      <point x="166" y="174"/>
      <point x="166" y="250" type="curve" smooth="yes"/>
      <point x="166" y="326"/>
      <point x="179" y="374"/>
      <point x="212" y="374" type="curve" smooth="yes"/>
      <point x="238" y="374"/>
      <point x="251" y="326"/>
      <point x="251" y="250" type="curve" smooth="yes"/>
      <point x="251" y="174"/>
      <point x="238" y="126"/>
    </contour>
    <contour>
      <point x="198" y="-12" type="curve" smooth="yes"/>
      <point x="256" y="-12"/>
      <point x="300" y="10"/>
      <point x="326" y="84" type="curve"/>
      <point x="308" y="84" type="line"/>
      <point x="330" y="10"/>
      <point x="396" y="-12"/>
      <point x="442" y="-12" type="curve" smooth="yes"/>
      <point x="480" y="-12"/>
      <point x="536" y="4"/>
      <point x="576" y="36" type="curve"/>
      <point x="518" y="146" type="line"/>
      <point x="492" y="128"/>
      <point x="471" y="122"/>
      <point x="448" y="122" type="curve" smooth="yes"/>
      <point x="402" y="122"/>
      <point x="360" y="160"/>
      <point x="360" y="250" type="curve" smooth="yes"/>
      <point x="360" y="348"/>
      <point x="390" y="382"/>
      <point x="416" y="382" type="curve" smooth="yes"/>
      <point x="446" y="382"/>
      <point x="458" y="356"/>
      <point x="458" y="282" type="curve"/>
      <point x="486" y="302" type="line"/>
      <point x="336" y="302" type="line"/>
      <point x="336" y="198" type="line"/>
      <point x="584" y="198" type="line"/>
      <point x="587" y="210"/>
      <point x="591" y="236"/>
      <point x="591" y="266" type="curve" smooth="yes"/>
      <point x="591" y="400"/>
      <point x="536" y="512"/>
      <point x="432" y="512" type="curve" smooth="yes"/>
      <point x="388" y="512"/>
      <point x="330" y="484"/>
      <point x="308" y="410" type="curve"/>
      <point x="326" y="410" type="line"/>
      <point x="300" y="484"/>
      <point x="256" y="512"/>
      <point x="202" y="512" type="curve" smooth="yes"/>
      <point x="99" y="512"/>
      <point x="12" y="416"/>
      <point x="12" y="250" type="curve" smooth="yes"/>
      <point x="12" y="84"/>
      <point x="96" y="-12"/>
    </contour>
    <contour>
      <point x="314.0" y="520.0" type="move" name="aboveLC"/>
    </contour>
    <contour>
      <point x="308.0" y="-20.0" type="move" name="belowLC"/>
    </contour>
    <contour>
      <point x="430.0" y="0.0" type="move" name="baseLC"/>
    </contour>
  </outline>
</glyph>
<glyph name="Ohorn" format="1">
  <advance width="600"/>
  <unicode hex="01A0"/>
  <outline>
    <contour>
      <point x="488" y="582" type="line"/>
      <point x="572" y="604"/>
      <point x="608" y="654"/>
      <point x="608" y="732" type="curve" smooth="yes"/>
      <point x="608" y="776"/>
      <point x="592" y="816"/>
      <point x="576" y="838" type="curve"/>
      <point x="450" y="788" type="line"/>
      <point x="457" y="773"/>
      <point x="466" y="748"/>
      <point x="466" y="720" type="curve" smooth="yes"/>
      <point x="466" y="670"/>
      <point x="448" y="648"/>
      <point x="412" y="636" type="curve"/>
    </contour>
    <component base="O"/>
    <contour>
      <point x="300" y="670" type="move" name="aboveUC"/>
    </contour>
    <contour>
      <point x="300" y="-20" type="move" name="belowLC"/>
    </contour>
  </outline>
</glyph>
<glyph name="uhorn" format="1">
  <advance width="600"/>
  <unicode hex="01B0"/>
  <outline>
    <contour>
      <point x="512" y="448" type="line"/>
      <point x="582" y="472"/>
      <point x="632" y="522"/>
      <point x="632" y="602" type="curve" smooth="yes"/>
      <point x="632" y="646"/>
      <point x="618" y="688"/>
      <point x="600" y="712" type="curve"/>
      <point x="474" y="658" type="line"/>
      <point x="484" y="644"/>
      <point x="490" y="618"/>
      <point x="490" y="590" type="curve" smooth="yes"/>
      <point x="490" y="510"/>
      <point x="438" y="500"/>
      <point x="400" y="500" type="curve"/>
    </contour>
    <component base="u"/>
    <contour>
      <point x="296.0" y="520.0" type="move" name="aboveLC"/>
    </contour>
    <contour>
      <point x="318.0" y="-20.0" type="move" name="belowLC"/>
    </contour>
  </outline>
</glyph>
<glyph name="Oogonek" format="1">
  <advance width="600"/>
  <unicode hex="01EA"/>
  <outline>
    <contour>
      <point x="324" y="-228" type="curve" smooth="yes"/>
      <point x="362" y="-228"/>
      <point x="410" y="-212"/>
      <point x="438" y="-190" type="curve"/>
      <point x="400" y="-104" type="line"/>
      <point x="391" y="-110"/>
      <point x="378" y="-118"/>
      <point x="366" y="-118" type="curve" smooth="yes"/>
      <point x="346" y="-118"/>
      <point x="326" y="-108"/>
      <point x="326" y="-84" type="curve" smooth="yes"/>
      <point x="326" y="-55"/>
      <point x="342" y="-18"/>
      <point x="392" y="4" type="curve" smooth="yes"/>
      <point x="496" y="50"/>
      <point x="566" y="150"/>
      <point x="566" y="328" type="curve" smooth="yes"/>
      <point x="566" y="541"/>
      <point x="458" y="662"/>
      <point x="300" y="662" type="curve" smooth="yes"/>
      <point x="142" y="662"/>
      <point x="34" y="542"/>
      <point x="34" y="328" type="curve" smooth="yes"/>
      <point x="34" y="156"/>
      <point x="108" y="12"/>
      <point x="266" y="-10" type="curve"/>
      <point x="238" y="-34"/>
      <point x="202" y="-76"/>
      <point x="202" y="-130" type="curve" smooth="yes"/>
      <point x="202" y="-192"/>
      <point x="256" y="-228"/>
    </contour>
    <contour>
      <point x="300" y="132" type="curve" smooth="yes"/>
      <point x="244.0" y="132.0"/>
      <point x="210" y="188"/>
      <point x="210" y="328" type="curve" smooth="yes"/>
      <point x="210" y="452"/>
      <point x="244" y="514"/>
      <point x="300" y="514" type="curve" smooth="yes"/>
      <point x="356" y="514"/>
      <point x="390" y="452"/>
      <point x="390" y="328" type="curve" smooth="yes"/>
      <point x="390" y="188"/>
      <point x="356.0" y="132.0"/>
    </contour>
    <contour>
      <point x="300" y="670" type="move" name="aboveUC"/>
    </contour>
  </outline>
</glyph>
<glyph name="ccurl" format="1">
  <advance width="600"/>
  <unicode hex="0255"/>
  <outline>
    <contour>
      <point x="196" y="-94" type="line"/>
      <point x="246" y="76"/>
      <point x="344" y="184"/>
      <point x="394" y="184" type="curve" smooth="yes"/>
      <point x="424" y="184"/>
      <point x="438" y="174"/>
      <point x="438" y="154" type="curve" smooth="yes"/>
      <point x="438" y="136"/>
      <point x="413.5625" y="118.0"/>
      <point x="370" y="118" type="curve" smooth="yes"/>
      <point x="294.136986301" y="118.0"/>
      <point x="228.0" y="168.0"/>
      <point x="228" y="250" type="curve" smooth="yes"/>
      <point x="228.0" y="332.0"/>
      <point x="286" y="382"/>
      <point x="366" y="382" type="curve" smooth="yes"/>
      <point x="402" y="382"/>
      <point x="438" y="370"/>
      <point x="470" y="344" type="curve"/>
      <point x="544" y="446" type="line"/>
      <point x="500" y="486"/>
      <point x="436" y="512"/>
      <point x="356" y="512" type="curve" smooth="yes"/>
      <point x="200" y="512"/>
      <point x="62.0" y="416.0"/>
      <point x="62" y="250" type="curve" smooth="yes"/>
      <point x="62.0" y="84.0"/>
      <point x="192.274509804" y="-12.0"/>
      <point x="364" y="-12" type="curve" smooth="yes"/>
      <point x="489.510204082" y="-12.0"/>
      <point x="564.0" y="62.0"/>
      <point x="564" y="154" type="curve" smooth="yes"/>
      <point x="564" y="242"/>
      <point x="504" y="296"/>
      <point x="408" y="296" type="curve" smooth="yes"/>
      <point x="302" y="296"/>
      <point x="146" y="186"/>
      <point x="64" y="-36" type="curve"/>
    </contour>
    <contour>
      <point x="340" y="520" type="move" name="aboveLC"/>
    </contour>
    <contour>
      <point x="360" y="-20" type="move" name="belowLC"/>
    </contour>
  </outline>
</glyph>
<glyph name="dtail" format="1">
  <advance width="600"/>
  <unicode hex="0256"/>
  <outline>
    <contour>
      <point x="542.0" y="-168.0" type="curve" smooth="yes"/>
      <point x="583.0" y="-168.0"/>
      <point x="606.0" y="-162.0"/>
      <point x="626.0" y="-154.0" type="curve"/>
      <point x="596.0" y="-28.0" type="line"/>
      <point x="586.0" y="-32.0"/>
      <point x="579.0" y="-34.0"/>
      <point x="570.0" y="-34.0" type="curve" smooth="yes"/>
      <point x="541.0" y="-34.0"/>
      <point x="530.0" y="-17.0"/>
      <point x="530.0" y="30.0" type="curve"/>
      <point x="530" y="696" type="line"/>
      <point x="358" y="696" type="line"/>
      <point x="358.0" y="534.0" type="line"/>
      <point x="366.0" y="462.0" type="line"/>
      <point x="362.0" y="462.0" type="line"/>
      <point x="334.0" y="492.0"/>
      <point x="302.0" y="512.0"/>
      <point x="248.0" y="512.0" type="curve" smooth="yes"/>
      <point x="146.0" y="512.0"/>
      <point x="42" y="414"/>
      <point x="42" y="250" type="curve" smooth="yes"/>
      <point x="42" y="88"/>
      <point x="124" y="-12"/>
      <point x="248.0" y="-12.0" type="curve" smooth="yes"/>
      <point x="290" y="-12"/>
      <point x="332" y="8"/>
      <point x="362" y="38" type="curve"/>
      <point x="366" y="38" type="line"/>
      <point x="364.0" y="-12.0" type="line"/>
      <point x="364.0" y="-90.0"/>
      <point x="420.0" y="-168.0"/>
    </contour>
    <contour>
      <point x="294" y="128" type="curve" smooth="yes"/>
      <point x="248" y="128"/>
      <point x="218" y="162"/>
      <point x="218" y="252" type="curve" smooth="yes"/>
      <point x="218" y="340"/>
      <point x="254" y="372"/>
      <point x="290" y="372" type="curve" smooth="yes"/>
      <point x="312" y="372"/>
      <point x="338" y="366"/>
      <point x="358" y="348" type="curve"/>
      <point x="358" y="164" type="line"/>
      <point x="340" y="136"/>
      <point x="320" y="128"/>
    </contour>
    <contour>
      <point x="440" y="730" type="move" name="aboveUC"/>
    </contour>
    <contour>
      <point x="320" y="-200" type="move" name="belowLC"/>
    </contour>
  </outline>
</glyph>
<glyph name="dhook" format="1">
  <advance width="600"/>
  <unicode hex="0257"/>
  <outline>
    <contour>
      <point x="246.0" y="-12.0" type="curve" smooth="yes"/>
      <point x="290.0" y="-12.0"/>
      <point x="338.0" y="12.0"/>
      <point x="372.0" y="46.0" type="curve"/>
      <point x="376.0" y="46.0" type="line"/>
      <point x="388.0" y="0.0" type="line"/>
      <point x="528.0" y="0.0" type="line"/>
      <point x="528.0" y="510.0" type="line" smooth="yes"/>
      <point x="528.0" y="557.0"/>
      <point x="542.0" y="574.0"/>
      <point x="578.0" y="574.0" type="curve" smooth="yes"/>
      <point x="584.0" y="574.0"/>
      <point x="588.0" y="574.0"/>
      <point x="594.0" y="572.0" type="curve"/>
      <point x="624.0" y="698.0" type="line"/>
      <point x="606.0" y="704.0"/>
      <point x="586.0" y="708.0"/>
      <point x="550.0" y="708.0" type="curve" smooth="yes"/>
      <point x="410.0" y="708.0"/>
      <point x="364" y="622"/>
      <point x="364" y="536" type="curve"/>
      <point x="364" y="534" type="line"/>
      <point x="364" y="462" type="line"/>
      <point x="360" y="462" type="line"/>
      <point x="332" y="494"/>
      <point x="300.0" y="512.0"/>
      <point x="246.0" y="512.0" type="curve" smooth="yes"/>
      <point x="144.0" y="512.0"/>
      <point x="42.0" y="414.0"/>
      <point x="42.0" y="250.0" type="curve" smooth="yes"/>
      <point x="42.0" y="88.0"/>
      <point x="122.0" y="-12.0"/>
    </contour>
    <contour>
      <point x="292" y="128" type="curve" smooth="yes"/>
      <point x="246" y="128"/>
      <point x="218" y="162"/>
      <point x="218" y="252" type="curve" smooth="yes"/>
      <point x="218" y="340"/>
      <point x="252" y="372"/>
      <point x="288" y="372" type="curve" smooth="yes"/>
      <point x="310" y="372"/>
      <point x="336" y="366"/>
      <point x="356" y="348" type="curve"/>
      <point x="356" y="164" type="line"/>
      <point x="338" y="136"/>
      <point x="318" y="128"/>
    </contour>
    <contour>
      <point x="480" y="730" type="move" name="aboveUC"/>
    </contour>
    <contour>
      <point x="300" y="-20" type="move" name="belowLC"/>
    </contour>
  </outline>
</glyph>
<glyph name="eopen" format="1">
  <advance width="600"/>
  <unicode hex="025B"/>
  <outline>
    <contour>
      <point x="316" y="-12" type="curve" smooth="yes"/>
      <point x="422" y="-12"/>
      <point x="488" y="6"/>
      <point x="550" y="54" type="curve"/>
      <point x="484" y="162" type="line"/>
      <point x="452" y="138"/>
      <point x="404" y="118"/>
      <point x="350" y="118" type="curve" smooth="yes"/>
      <point x="262" y="118"/>
      <point x="230" y="135"/>
      <point x="230" y="163" type="curve" smooth="yes"/>
      <point x="230.0" y="190.222222222"/>
      <point x="256.0" y="198.0"/>
      <point x="318" y="198" type="curve"/>
      <point x="406" y="198" type="line"/>
      <point x="406" y="310" type="line"/>
      <point x="334" y="310" type="line"/>
      <point x="280" y="310"/>
      <point x="250" y="318"/>
      <point x="250" y="343" type="curve" smooth="yes"/>
      <point x="250" y="366"/>
      <point x="274" y="382"/>
      <point x="346" y="382" type="curve" smooth="yes"/>
      <point x="390" y="382"/>
      <point x="440" y="372"/>
      <point x="482" y="348" type="curve"/>
      <point x="542" y="456" type="line"/>
      <point x="482" y="492"/>
      <point x="405" y="512"/>
      <point x="336" y="512" type="curve" smooth="yes"/>
      <point x="188" y="512"/>
      <point x="82" y="471"/>
      <point x="82" y="368" type="curve" smooth="yes"/>
      <point x="82" y="330"/>
      <point x="113" y="284"/>
      <point x="177" y="266" type="curve"/>
      <point x="177" y="262" type="line"/>
      <point x="104" y="244"/>
      <point x="62" y="212"/>
      <point x="62" y="146" type="curve" smooth="yes"/>
      <point x="62" y="40"/>
      <point x="174" y="-12"/>
    </contour>
    <contour>
      <point x="330" y="520" type="move" name="aboveLC"/>
    </contour>
    <contour>
      <point x="310" y="-20" type="move" name="belowLC"/>
    </contour>
    <contour>
      <point x="310" y="0" type="move" name="baseLC"/>
    </contour>
  </outline>
</glyph>
<glyph name="eopenreversedclosed" format="1">
  <advance width="600"/>
  <unicode hex="025E"/>
  <outline>
    <contour>
      <point x="312" y="-12" type="curve" smooth="yes"/>
      <point x="445" y="-12"/>
      <point x="550.0" y="40.0"/>
      <point x="550" y="144" type="curve" smooth="yes"/>
      <point x="550.0" y="208.881355932"/>
      <point x="514" y="248"/>
      <point x="442" y="260" type="curve"/>
      <point x="442" y="264" type="line"/>
      <point x="505.90577673" y="279.036653348"/>
      <point x="530.0" y="322.0"/>
      <point x="530" y="366" type="curve" smooth="yes"/>
      <point x="530.0" y="470.0"/>
      <point x="428" y="512"/>
      <point x="310" y="512" type="curve" smooth="yes"/>
      <point x="172" y="512"/>
      <point x="42" y="426"/>
      <point x="42" y="250" type="curve" smooth="yes"/>
      <point x="42.0" y="74.0"/>
      <point x="160" y="-12"/>
    </contour>
    <contour>
      <point x="318" y="118" type="curve" smooth="yes"/>
      <point x="251" y="118"/>
      <point x="212.0" y="146.0"/>
      <point x="212" y="250" type="curve" smooth="yes"/>
      <point x="212.0" y="346.0"/>
      <point x="252.595744681" y="382.0"/>
      <point x="318" y="382" type="curve" smooth="yes"/>
      <point x="350.258064516" y="382.0"/>
      <point x="368" y="366"/>
      <point x="368" y="344" type="curve" smooth="yes"/>
      <point x="368" y="318"/>
      <point x="349.259259259" y="310"/>
      <point x="322" y="310" type="curve" smooth="yes"/>
      <point x="290" y="310" type="line"/>
      <point x="290" y="198" type="line"/>
      <point x="320" y="198" type="line" smooth="yes"/>
      <point x="358" y="198"/>
      <point x="382.0" y="190.0"/>
      <point x="382" y="162" type="curve" smooth="yes"/>
      <point x="382.0" y="134.0"/>
      <point x="354" y="118"/>
    </contour>
    <contour>
      <point x="320" y="520" type="move" name="aboveLC"/>
    </contour>
    <contour>
      <point x="304" y="-20" type="move" name="belowLC"/>
    </contour>
  </outline>
</glyph>
<glyph name="dotlessjstroke" format="1">
  <advance width="600"/>
  <unicode hex="025F"/>
  <outline>
    <contour>
      <point x="98" y="180" type="line"/>
      <point x="556" y="180" type="line"/>
      <point x="556" y="260" type="line"/>
      <point x="264" y="260" type="line"/>
      <point x="98" y="254" type="line"/>
    </contour>
    <component base="dotlessj"/>
    <contour>
      <point x="344" y="520" type="move" name="aboveLC"/>
    </contour>
    <contour>
      <point x="250" y="-200" type="move" name="belowLC"/>
    </contour>
  </outline>
</glyph>
<glyph name="ghook" format="1">
  <advance width="600"/>
  <unicode hex="0260"/>
  <outline>
    <contour>
      <point x="264.0" y="-186.0" type="curve" smooth="yes"/>
      <point x="434.0" y="-186.0"/>
      <point x="530.0" y="-116.0"/>
      <point x="530.0" y="16.0" type="curve" smooth="yes"/>
      <point x="530.0" y="464.0" type="line" smooth="yes"/>
      <point x="530.0" y="508.0"/>
      <point x="544.0" y="528.0"/>
      <point x="580.0" y="528.0" type="curve" smooth="yes"/>
      <point x="585.0" y="528.0"/>
      <point x="591.0" y="528.0"/>
      <point x="596.0" y="526.0" type="curve"/>
      <point x="626.0" y="652.0" type="line"/>
      <point x="608.0" y="658.0"/>
      <point x="588.0" y="662.0"/>
      <point x="552.0" y="662.0" type="curve" smooth="yes"/>
      <point x="409.0" y="662.0"/>
      <point x="362.0" y="570.0"/>
      <point x="362.0" y="492.0" type="curve"/>
      <point x="364" y="462" type="line"/>
      <point x="360" y="462" type="line"/>
      <point x="332" y="492"/>
      <point x="300" y="512"/>
      <point x="252.0" y="512.0" type="curve" smooth="yes"/>
      <point x="150" y="512"/>
      <point x="44.0" y="412.0"/>
      <point x="44.0" y="260.0" type="curve" smooth="yes"/>
      <point x="44.0" y="120.0"/>
      <point x="124" y="16"/>
      <point x="248" y="16" type="curve" smooth="yes"/>
      <point x="288" y="16"/>
      <point x="330" y="32"/>
      <point x="360" y="60" type="curve"/>
      <point x="364" y="60" type="line"/>
      <point x="358" y="10" type="line" smooth="yes"/>
      <point x="354" y="-24"/>
      <point x="330" y="-52"/>
      <point x="264" y="-52" type="curve" smooth="yes"/>
      <point x="226" y="-52"/>
      <point x="176.0" y="-42.0"/>
      <point x="130.0" y="-18.0" type="curve"/>
      <point x="74.0" y="-130.0" type="line"/>
      <point x="134.0" y="-168.0"/>
      <point x="212.0" y="-186.0"/>
    </contour>
    <contour>
      <point x="294" y="154" type="curve" smooth="yes"/>
      <point x="248" y="154"/>
      <point x="218" y="191"/>
      <point x="218" y="262" type="curve" smooth="yes"/>
      <point x="218" y="337"/>
      <point x="252" y="372"/>
      <point x="290" y="372" type="curve" smooth="yes"/>
      <point x="312" y="372"/>
      <point x="338" y="366"/>
      <point x="358" y="348" type="curve"/>
      <point x="358" y="192" type="line"/>
      <point x="338" y="162"/>
      <point x="320" y="154"/>
    </contour>
    <contour>
      <point x="310" y="520" type="move" name="aboveLC"/>
    </contour>
    <contour>
      <point x="300" y="-200" type="move" name="belowLC"/>
    </contour>
  </outline>
</glyph>
<glyph name="gsmall" format="1">
  <advance width="600"/>
  <unicode hex="0262"/>
  <outline>
    <contour>
      <point x="336" y="-12" type="curve" smooth="yes"/>
      <point x="411" y="-12"/>
      <point x="490" y="15"/>
      <point x="534" y="55" type="curve"/>
      <point x="534" y="310" type="line"/>
      <point x="312" y="310" type="line"/>
      <point x="312" y="198" type="line"/>
      <point x="388" y="198" type="line"/>
      <point x="388" y="126" type="line"/>
      <point x="372" y="119"/>
      <point x="359" y="118"/>
      <point x="342" y="118" type="curve" smooth="yes"/>
      <point x="276" y="118"/>
      <point x="232" y="164"/>
      <point x="232" y="246" type="curve" smooth="yes"/>
      <point x="232" y="344"/>
      <point x="292" y="382"/>
      <point x="352" y="382" type="curve" smooth="yes"/>
      <point x="402" y="382"/>
      <point x="421.407797701" y="368.518278338"/>
      <point x="458" y="346" type="curve"/>
      <point x="534" y="448" type="line"/>
      <point x="484.562790696" y="485.804924762"/>
      <point x="433" y="512"/>
      <point x="340" y="512" type="curve" smooth="yes"/>
      <point x="198" y="512"/>
      <point x="58" y="418"/>
      <point x="58" y="246" type="curve" smooth="yes"/>
      <point x="58" y="67"/>
      <point x="190" y="-12"/>
    </contour>
    <contour>
      <point x="340" y="520" type="move" name="aboveLC"/>
    </contour>
    <contour>
      <point x="320" y="-20" type="move" name="belowLC"/>
    </contour>
  </outline>
</glyph>
<glyph name="gammalatin" format="1">
  <advance width="600"/>
  <unicode hex="0263"/>
  <outline>
    <contour>
      <point x="204" y="69" type="line"/>
      <point x="402" y="69" type="line"/>
      <point x="576" y="500" type="line"/>
      <point x="412" y="500" type="line"/>
      <point x="342" y="292" type="line"/>
      <point x="330" y="250"/>
      <point x="318" y="221"/>
      <point x="306" y="175" type="curve"/>
      <point x="302" y="175" type="line"/>
      <point x="290" y="221"/>
      <point x="278" y="250"/>
      <point x="266" y="292" type="curve"/>
      <point x="196" y="500" type="line"/>
      <point x="24" y="500" type="line"/>
    </contour>
    <contour>
      <point x="304" y="-206" type="curve" smooth="yes"/>
      <point x="410.8" y="-206.0"/>
      <point x="482.0" y="-144.0"/>
      <point x="482" y="-50" type="curve" smooth="yes"/>
      <point x="482.0" y="14.0"/>
      <point x="443.385586596" y="53.6247086919"/>
      <point x="386" y="152" type="curve"/>
      <point x="222" y="152" type="line"/>
      <point x="164.614413404" y="53.6247086919"/>
      <point x="126.0" y="14.0"/>
      <point x="126" y="-50" type="curve" smooth="yes"/>
      <point x="126.0" y="-144.0"/>
      <point x="197.2" y="-206.0"/>
    </contour>
    <contour>
      <point x="304" y="-100" type="curve" smooth="yes"/>
      <point x="281.5" y="-100.0"/>
      <point x="264.0" y="-82.0"/>
      <point x="264" y="-52" type="curve" smooth="yes"/>
      <point x="264.0" y="-30.0"/>
      <point x="276.315962037" y="-10.4602315204"/>
      <point x="300" y="30" type="curve"/>
      <point x="305" y="30" type="line"/>
      <point x="331.621605132" y="-11.4113857615"/>
      <point x="344.0" y="-30.0"/>
      <point x="344" y="-52" type="curve" smooth="yes"/>
      <point x="344.0" y="-82.0"/>
      <point x="326.5" y="-100.0"/>
    </contour>
    <contour>
      <point x="300" y="520" type="move" name="aboveLC"/>
    </contour>
    <contour>
      <point x="300" y="-218" type="move" name="belowLC"/>
    </contour>
  </outline>
</glyph>
<glyph name="lezh" format="1">
  <advance width="600"/>
  <unicode hex="026E"/>
  <outline>
    <contour>
      <point x="26" y="0" type="line"/>
      <point x="198" y="0" type="line"/>
      <point x="198" y="696" type="line"/>
      <point x="26" y="696" type="line"/>
    </contour>
    <contour>
      <point x="374" y="-188" type="curve" smooth="yes"/>
      <point x="503" y="-188"/>
      <point x="610" y="-104"/>
      <point x="610" y="44" type="curve" smooth="yes"/>
      <point x="610" y="144"/>
      <point x="552" y="228"/>
      <point x="422" y="240" type="curve"/>
      <point x="434" y="211" type="line"/>
      <point x="586" y="408" type="line"/>
      <point x="586" y="500" type="line"/>
      <point x="194" y="500" type="line"/>
      <point x="194" y="366" type="line"/>
      <point x="382" y="366" type="line"/>
      <point x="246" y="188" type="line"/>
      <point x="300" y="108" type="line"/>
      <point x="322" y="116"/>
      <point x="330" y="118"/>
      <point x="356" y="118" type="curve" smooth="yes"/>
      <point x="404" y="118"/>
      <point x="438" y="90"/>
      <point x="438" y="40" type="curve" smooth="yes"/>
      <point x="438" y="-18"/>
      <point x="404" y="-50"/>
      <point x="352" y="-50" type="curve" smooth="yes"/>
      <point x="310" y="-50"/>
      <point x="272" y="-28"/>
      <point x="240" y="0" type="curve"/>
      <point x="164" y="-106" type="line"/>
      <point x="212" y="-152"/>
      <point x="279" y="-188"/>
    </contour>
    <contour>
      <point x="110" y="730" type="move" name="aboveUC"/>
    </contour>
    <contour>
      <point x="370" y="-200" type="move" name="belowLC"/>
    </contour>
  </outline>
</glyph>
<glyph name="mlonglegturned" format="1">
  <advance width="600"/>
  <unicode hex="0270"/>
  <outline>
    <contour>
      <point x="412" y="-176" type="line"/>
      <point x="574" y="-176" type="line"/>
      <point x="574" y="500" type="line"/>
      <point x="412" y="500" type="line"/>
      <point x="412" y="172" type="line"/>
      <point x="403" y="146"/>
      <point x="394" y="134"/>
      <point x="382" y="134" type="curve" smooth="yes"/>
      <point x="369" y="134"/>
      <point x="362" y="143"/>
      <point x="362" y="164" type="curve" smooth="yes"/>
      <point x="362" y="500" type="line"/>
      <point x="232" y="500" type="line"/>
      <point x="232" y="172" type="line"/>
      <point x="223" y="146"/>
      <point x="212" y="134"/>
      <point x="199" y="134" type="curve" smooth="yes"/>
      <point x="186" y="134"/>
      <point x="182" y="143"/>
      <point x="182" y="164" type="curve" smooth="yes"/>
      <point x="182" y="500" type="line"/>
      <point x="20" y="500" type="line"/>
      <point x="20" y="152" type="line" smooth="yes"/>
      <point x="20" y="52"/>
      <point x="62" y="-12"/>
      <point x="132" y="-12" type="curve" smooth="yes"/>
      <point x="188" y="-12"/>
      <point x="225" y="26"/>
      <point x="239" y="68" type="curve"/>
      <point x="250" y="16"/>
      <point x="282" y="-12"/>
      <point x="323" y="-12" type="curve" smooth="yes"/>
      <point x="376" y="-12"/>
      <point x="402" y="23"/>
      <point x="419" y="61" type="curve"/>
      <point x="423" y="61" type="line"/>
      <point x="412" y="-34" type="line"/>
    </contour>
    <contour>
      <point x="300" y="520" type="move" name="aboveLC"/>
    </contour>
    <contour>
      <point x="490" y="-218" type="move" name="belowLC"/>
    </contour>
  </outline>
</glyph>
<glyph name="mhook" format="1">
  <advance width="600"/>
  <unicode hex="0271"/>
  <outline>
    <contour>
      <point x="420" y="-188" type="curve" smooth="yes"/>
      <point x="543.218390805" y="-188.0"/>
      <point x="580.0" y="-101.0"/>
      <point x="580" y="-4" type="curve"/>
      <point x="580" y="348" type="line" smooth="yes"/>
      <point x="580" y="448"/>
      <point x="538" y="512"/>
      <point x="468" y="512" type="curve" smooth="yes"/>
      <point x="412" y="512"/>
      <point x="374" y="474"/>
      <point x="360" y="432" type="curve"/>
      <point x="349" y="484"/>
      <point x="317" y="512"/>
      <point x="276" y="512" type="curve" smooth="yes"/>
      <point x="217" y="512"/>
      <point x="187" y="478"/>
      <point x="170" y="439" type="curve"/>
      <point x="166" y="439" type="line"/>
      <point x="154" y="500" type="line"/>
      <point x="26" y="500" type="line"/>
      <point x="26" y="0" type="line"/>
      <point x="188" y="0" type="line"/>
      <point x="188" y="328" type="line"/>
      <point x="197" y="354"/>
      <point x="206" y="366"/>
      <point x="218" y="366" type="curve" smooth="yes"/>
      <point x="231" y="366"/>
      <point x="238" y="357"/>
      <point x="238" y="336" type="curve" smooth="yes"/>
      <point x="238" y="0" type="line"/>
      <point x="368" y="0" type="line"/>
      <point x="368" y="328" type="line"/>
      <point x="377" y="354"/>
      <point x="388" y="366"/>
      <point x="401" y="366" type="curve" smooth="yes"/>
      <point x="414" y="366"/>
      <point x="418" y="357"/>
      <point x="418" y="336" type="curve" smooth="yes"/>
      <point x="418" y="0" type="line"/>
      <point x="418.0" y="-39.0"/>
      <point x="411.5" y="-54.0"/>
      <point x="392" y="-54" type="curve" smooth="yes"/>
      <point x="385.230769231" y="-54.0"/>
      <point x="378.237254745" y="-53.2949018979"/>
      <point x="370" y="-50" type="curve"/>
      <point x="340" y="-176" type="line"/>
      <point x="358.79637253" y="-183.518549012"/>
      <point x="381.904761905" y="-188.0"/>
    </contour>
    <contour>
      <point x="310" y="520" type="move" name="aboveLC"/>
    </contour>
    <contour>
      <point x="310" y="-200" type="move" name="belowLC"/>
    </contour>
  </outline>
</glyph>
<glyph name="philatin" format="1">
  <advance width="600"/>
  <unicode hex="0278"/>
  <outline>
    <contour>
      <point x="246" y="-8" type="curve"/>
      <point x="236" y="120" type="line"/>
      <point x="189.592958182" y="121.38528483"/>
      <point x="164.0" y="164.0"/>
      <point x="164" y="250" type="curve" smooth="yes"/>
      <point x="164.0" y="336.0"/>
      <point x="189.592958182" y="378.61471517"/>
      <point x="236" y="380" type="curve"/>
      <point x="246" y="508" type="line"/>
      <point x="128.488376876" y="506.246095177"/>
      <point x="18.0" y="416.0"/>
      <point x="18" y="250" type="curve" smooth="yes"/>
      <point x="18.0" y="84.0"/>
      <point x="128.488376876" y="-6.24609517725"/>
    </contour>
    <contour>
      <point x="354" y="-8" type="line"/>
      <point x="471.511623124" y="-6.24609517725"/>
      <point x="582.0" y="84.0"/>
      <point x="582" y="250" type="curve" smooth="yes"/>
      <point x="582.0" y="416.0"/>
      <point x="471.511623124" y="506.246095177"/>
      <point x="354" y="508" type="curve"/>
      <point x="364" y="380" type="line"/>
      <point x="410.407041818" y="378.61471517"/>
      <point x="436.0" y="336.0"/>
      <point x="436" y="250" type="curve" smooth="yes"/>
      <point x="436.0" y="164.0"/>
      <point x="410.407041818" y="121.38528483"/>
      <point x="364" y="120" type="curve"/>
    </contour>
    <contour>
      <point x="230" y="-177" type="line"/>
      <point x="370" y="-176" type="line"/>
      <point x="370" y="696" type="line"/>
      <point x="230" y="696" type="line"/>
    </contour>
    <contour>
      <point x="300" y="-200" type="move" name="belowLC"/>
    </contour>
    <contour>
      <point x="300" y="730" type="move" name="aboveUC"/>
    </contour>
  </outline>
</glyph>
<glyph name="rturned" format="1">
  <advance width="600"/>
  <unicode hex="0279"/>
  <outline>
    <component base="r" xScale="-1" yScale="-1" xOffset="600" yOffset="500"/>
    <contour>
      <point x="410" y="520" type="move" name="aboveLC"/>
    </contour>
    <contour>
      <point x="290" y="-20" type="move" name="belowLC"/>
    </contour>
  </outline>
</glyph>
<glyph name="rhookturned" format="1">
  <advance width="600"/>
  <unicode hex="027B"/>
  <outline>
    <contour>
      <point x="476" y="-188" type="curve" smooth="yes"/>
      <point x="522" y="-188"/>
      <point x="552" y="-178"/>
      <point x="578" y="-168" type="curve"/>
      <point x="542" y="-44" type="line"/>
      <point x="530" y="-50"/>
      <point x="516" y="-54"/>
      <point x="504" y="-54" type="curve" smooth="yes"/>
      <point x="470" y="-54"/>
      <point x="458" y="-38"/>
      <point x="458" y="10" type="curve"/>
      <point x="458" y="500" type="line"/>
      <point x="286" y="500" type="line"/>
      <point x="286" y="242" type="line"/>
      <point x="256" y="164"/>
      <point x="190" y="138"/>
      <point x="148" y="138" type="curve" smooth="yes"/>
      <point x="123" y="138"/>
      <point x="104" y="142"/>
      <point x="82" y="152" type="curve"/>
      <point x="48" y="8" type="line"/>
      <point x="76" y="-6"/>
      <point x="106" y="-12"/>
      <point x="130" y="-12" type="curve" smooth="yes"/>
      <point x="194" y="-12"/>
      <point x="262" y="22"/>
      <point x="302" y="96" type="curve"/>
      <point x="306" y="96" type="line"/>
      <point x="306" y="-10" type="line" smooth="yes"/>
      <point x="306" y="-102"/>
      <point x="344" y="-188"/>
    </contour>
    <contour>
      <point x="370" y="520" type="move" name="aboveLC"/>
    </contour>
    <contour>
      <point x="310" y="-200" type="move" name="belowLC"/>
    </contour>
  </outline>
</glyph>
<glyph name="rtail" format="1">
  <advance width="600"/>
  <unicode hex="027D"/>
  <outline>
    <contour>
      <point x="328" y="-188" type="curve" smooth="yes"/>
      <point x="396" y="-188"/>
      <point x="450" y="-174"/>
      <point x="494" y="-162" type="curve"/>
      <point x="464" y="-38" type="line"/>
      <point x="437" y="-47"/>
      <point x="407" y="-54"/>
      <point x="373" y="-54" type="curve" smooth="yes"/>
      <point x="309" y="-54"/>
      <point x="276" y="-32"/>
      <point x="276" y="39" type="curve"/>
      <point x="276" y="248" type="line"/>
      <point x="313" y="332"/>
      <point x="374" y="362"/>
      <point x="431" y="362" type="curve" smooth="yes"/>
      <point x="467" y="362"/>
      <point x="488" y="357"/>
      <point x="518" y="348" type="curve"/>
      <point x="552" y="492" type="line"/>
      <point x="524" y="504"/>
      <point x="503" y="512"/>
      <point x="457" y="512" type="curve" smooth="yes"/>
      <point x="382" y="512"/>
      <point x="310" y="476"/>
      <point x="262" y="394" type="curve"/>
      <point x="258" y="394" type="line"/>
      <point x="245" y="500" type="line"/>
      <point x="104" y="500" type="line"/>
      <point x="104" y="36" type="line"/>
      <point x="104" y="-98"/>
      <point x="164" y="-188"/>
    </contour>
    <contour>
      <point x="350" y="520" type="move" name="aboveLC"/>
    </contour>
    <contour>
      <point x="290" y="-200" type="move" name="belowLC"/>
    </contour>
  </outline>
</glyph>
<glyph name="rfishhook" format="1">
  <advance width="600"/>
  <unicode hex="027E"/>
  <outline>
    <contour>
      <point x="104" y="0" type="line"/>
      <point x="276" y="0" type="line"/>
      <point x="276" y="222" type="line" smooth="yes"/>
      <point x="276" y="332"/>
      <point x="353" y="364"/>
      <point x="402" y="364" type="curve" smooth="yes"/>
      <point x="452" y="364"/>
      <point x="468" y="361"/>
      <point x="518" y="348" type="curve"/>
      <point x="552" y="492" type="line"/>
      <point x="514" y="503"/>
      <point x="454" y="512"/>
      <point x="376" y="512" type="curve" smooth="yes"/>
      <point x="178" y="512"/>
      <point x="104" y="393"/>
      <point x="104" y="260" type="curve" smooth="yes"/>
    </contour>
    <contour>
      <point x="350" y="520" type="move" name="aboveLC"/>
    </contour>
    <contour>
      <point x="194" y="-20" type="move" name="belowLC"/>
    </contour>
  </outline>
</glyph>
<glyph name="rsmall" format="1">
  <advance width="600"/>
  <unicode hex="0280"/>
  <outline>
    <contour>
      <point x="64" y="0" type="line"/>
      <point x="236" y="0" type="line"/>
      <point x="236" y="150" type="line"/>
      <point x="318" y="150" type="line"/>
      <point x="414" y="150"/>
      <point x="534" y="198"/>
      <point x="534" y="328" type="curve" smooth="yes"/>
      <point x="534" y="458"/>
      <point x="438" y="500"/>
      <point x="321" y="500" type="curve" smooth="yes"/>
      <point x="64" y="500" type="line"/>
    </contour>
    <contour>
      <point x="236" y="264" type="line"/>
      <point x="236" y="376" type="line"/>
      <point x="300" y="376" type="line" smooth="yes"/>
      <point x="345" y="376"/>
      <point x="365.0" y="357.653846154"/>
      <point x="365" y="323" type="curve" smooth="yes"/>
      <point x="365.0" y="289.431034483"/>
      <point x="345" y="264"/>
      <point x="300" y="264" type="curve" smooth="yes"/>
    </contour>
    <contour>
      <point x="382" y="0" type="line"/>
      <point x="574" y="0" type="line"/>
      <point x="400" y="242" type="line"/>
      <point x="252" y="196" type="line"/>
    </contour>
    <contour>
      <point x="310" y="-20" type="move" name="belowLC"/>
    </contour>
    <contour>
      <point x="310" y="520" type="move" name="aboveLC"/>
    </contour>
  </outline>
</glyph>
<glyph name="rsmallinverted" format="1">
  <advance width="600"/>
  <unicode hex="0281"/>
  <outline>
    <component base="rsmall" xScale="-1" yScale="-1" xOffset="600" yOffset="500"/>
    <contour>
      <point x="290" y="520" type="move" name="aboveLC"/>
    </contour>
    <contour>
      <point x="310" y="-20" type="move" name="belowLC"/>
    </contour>
  </outline>
</glyph>
<glyph name="shook" format="1">
  <advance width="600"/>
  <unicode hex="0282"/>
  <outline>
    <contour>
      <point x="220" y="-188" type="curve" smooth="yes"/>
      <point x="266" y="-188"/>
      <point x="292" y="-182"/>
      <point x="314" y="-174" type="curve"/>
      <point x="284" y="-52" type="line"/>
      <point x="270" y="-56"/>
      <point x="260" y="-58"/>
      <point x="248" y="-58" type="curve" smooth="yes"/>
      <point x="212" y="-58"/>
      <point x="196" y="-42"/>
      <point x="196" y="-6" type="curve"/>
      <point x="196" y="42" type="line"/>
      <point x="46" y="64" type="line"/>
      <point x="46" y="26" type="line" smooth="yes"/>
      <point x="46" y="-106"/>
      <point x="92" y="-188"/>
    </contour>
    <component base="s"/>
    <contour>
      <point x="316" y="520" type="move" name="aboveLC"/>
    </contour>
    <contour>
      <point x="310" y="-200" type="move" name="belowLC"/>
    </contour>
  </outline>
</glyph>
<glyph name="vturned" format="1">
  <advance width="600"/>
  <unicode hex="028C"/>
  <outline>
    <contour>
      <point x="24" y="0" type="line"/>
      <point x="188" y="0" type="line"/>
      <point x="253" y="218" type="line" smooth="yes"/>
      <point x="268" y="268"/>
      <point x="280" y="320"/>
      <point x="294" y="374" type="curve"/>
      <point x="298" y="374" type="line"/>
      <point x="312" y="320"/>
      <point x="324" y="268"/>
      <point x="339" y="218" type="curve" smooth="yes"/>
      <point x="404" y="0" type="line"/>
      <point x="576" y="0" type="line"/>
      <point x="396" y="500" type="line"/>
      <point x="198" y="500" type="line"/>
    </contour>
    <contour>
      <point x="300" y="520" type="move" name="aboveLC"/>
    </contour>
    <contour>
      <point x="300" y="-20" type="move" name="belowLC"/>
    </contour>
  </outline>
</glyph>
<glyph name="zretroflex" format="1">
  <advance width="600"/>
  <unicode hex="0290"/>
  <outline>
    <contour>
      <point x="556" y="-188" type="curve" smooth="yes"/>
      <point x="597" y="-188"/>
      <point x="620" y="-182"/>
      <point x="640" y="-174" type="curve"/>
      <point x="610" y="-48" type="line"/>
      <point x="600" y="-52"/>
      <point x="593" y="-54"/>
      <point x="584" y="-54" type="curve" smooth="yes"/>
      <point x="555" y="-54"/>
      <point x="544" y="-37"/>
      <point x="544" y="10" type="curve" smooth="yes"/>
      <point x="544" y="134" type="line"/>
      <point x="306" y="134" type="line"/>
      <point x="538" y="408" type="line"/>
      <point x="538" y="500" type="line"/>
      <point x="98" y="500" type="line"/>
      <point x="98" y="366" type="line"/>
      <point x="300" y="366" type="line"/>
      <point x="70" y="92" type="line"/>
      <point x="70" y="0" type="line"/>
      <point x="372" y="0" type="line"/>
      <point x="372" y="-4" type="line" smooth="yes"/>
      <point x="372" y="-90"/>
      <point x="414" y="-188"/>
    </contour>
    <contour>
      <point x="324" y="520" type="move" name="aboveLC"/>
    </contour>
  </outline>
</glyph>
<glyph name="jcrossedtail" format="1">
  <advance width="600"/>
  <unicode hex="029D"/>
  <outline>
    <component base="jcrossedtail.d"/>
    <component base="dotaccentcmb" xOffset="44"/>
    <contour>
      <point x="210" y="-200" type="move" name="belowLC"/>
    </contour>
  </outline>
</glyph>
<glyph name="kturned" format="1">
  <advance width="600"/>
  <unicode hex="029E"/>
  <outline>
    <contour>
      <point x="364" y="-176" type="line"/>
      <point x="536" y="-176" type="line"/>
      <point x="536" y="500" type="line"/>
      <point x="364" y="500" type="line"/>
      <point x="364" y="378" type="line"/>
      <point x="22" y="0" type="line"/>
      <point x="208" y="0" type="line"/>
      <point x="360" y="178" type="line"/>
      <point x="364" y="178" type="line"/>
    </contour>
    <contour>
      <point x="224" y="182" type="line"/>
      <point x="322" y="288" type="line"/>
      <point x="196" y="500" type="line"/>
      <point x="10" y="500" type="line"/>
    </contour>
    <contour>
      <point x="300" y="520" type="move" name="aboveLC"/>
    </contour>
    <contour>
      <point x="450" y="-200" type="move" name="belowLC"/>
    </contour>
  </outline>
</glyph>
<glyph name="lsmall" format="1">
  <advance width="600"/>
  <unicode hex="029F"/>
  <outline>
    <contour>
      <point x="110" y="0" type="line"/>
      <point x="538" y="0" type="line"/>
      <point x="538" y="134" type="line"/>
      <point x="282" y="134" type="line"/>
      <point x="282" y="500" type="line"/>
      <point x="110" y="500" type="line"/>
    </contour>
    <contour>
      <point x="194" y="520" type="move" name="aboveLC"/>
    </contour>
    <contour>
      <point x="330" y="-20" type="move" name="belowLC"/>
    </contour>
  </outline>
</glyph>
<glyph name="glottalstopstrokereversed" format="1">
  <advance width="600"/>
  <unicode hex="02A2"/>
  <outline>
    <contour>
      <point x="232" y="0" type="line"/>
      <point x="404" y="0" type="line"/>
      <point x="404" y="234" type="line"/>
      <point x="550" y="234" type="line"/>
      <point x="550" y="314" type="line"/>
      <point x="384" y="314" type="line"/>
      <point x="278" y="378"/>
      <point x="234" y="439"/>
      <point x="234" y="486" type="curve" smooth="yes"/>
      <point x="234" y="542"/>
      <point x="274" y="570"/>
      <point x="334" y="570" type="curve" smooth="yes"/>
      <point x="386" y="570"/>
      <point x="435" y="541"/>
      <point x="470" y="504" type="curve"/>
      <point x="554" y="612" type="line"/>
      <point x="502" y="666"/>
      <point x="422" y="708"/>
      <point x="314" y="708" type="curve" smooth="yes"/>
      <point x="179" y="708"/>
      <point x="62" y="638"/>
      <point x="62" y="494" type="curve" smooth="yes"/>
      <point x="62" y="427"/>
      <point x="112" y="362"/>
      <point x="172" y="314" type="curve"/>
      <point x="124" y="314" type="line"/>
      <point x="48" y="308" type="line"/>
      <point x="48" y="234" type="line"/>
      <point x="232" y="234" type="line"/>
    </contour>
    <contour>
      <point x="320" y="-20" type="move" name="belowLC"/>
    </contour>
    <contour>
      <point x="300" y="730" type="move" name="aboveUC"/>
    </contour>
  </outline>
</glyph>
<glyph name="dezh" format="1">
  <advance width="600"/>
  <unicode hex="02A4"/>
  <outline>
    <contour>
      <point x="143" y="-12" type="curve" smooth="yes"/>
      <point x="174" y="-12"/>
      <point x="200" y="3"/>
      <point x="226" y="38" type="curve"/>
      <point x="230" y="38" type="line"/>
      <point x="244" y="0" type="line"/>
      <point x="344" y="0" type="line"/>
      <point x="344" y="696" type="line"/>
      <point x="214" y="696" type="line"/>
      <point x="214" y="560" type="line"/>
      <point x="222" y="470" type="line"/>
      <point x="220" y="470" type="line"/>
      <point x="198" y="498"/>
      <point x="168" y="512"/>
      <point x="140" y="512" type="curve" smooth="yes"/>
      <point x="54" y="512"/>
      <point x="-10" y="408"/>
      <point x="-10" y="250" type="curve" smooth="yes"/>
      <point x="-10" y="92"/>
      <point x="54" y="-12"/>
    </contour>
    <contour>
      <point x="185" y="128" type="curve" smooth="yes"/>
      <point x="156" y="128"/>
      <point x="136" y="166"/>
      <point x="136" y="252" type="curve" smooth="yes"/>
      <point x="136" y="338"/>
      <point x="156" y="372"/>
      <point x="182" y="372" type="curve" smooth="yes"/>
      <point x="194" y="372"/>
      <point x="207" y="364"/>
      <point x="214" y="348" type="curve"/>
      <point x="214" y="170" type="line"/>
      <point x="212" y="142"/>
      <point x="198" y="128"/>
    </contour>
    <contour>
      <point x="434.0" y="-188.0" type="curve" smooth="yes"/>
      <point x="554.0" y="-188.0"/>
      <point x="618.0" y="-85.0"/>
      <point x="618.0" y="38.0" type="curve" smooth="yes"/>
      <point x="618.0" y="154.0"/>
      <point x="560.0" y="234.0"/>
      <point x="466.0" y="238.0" type="curve"/>
      <point x="474.0" y="218.0" type="line"/>
      <point x="482.0" y="198.0" type="line"/>
      <point x="596.0" y="408.0" type="line"/>
      <point x="596.0" y="500.0" type="line"/>
      <point x="302.0" y="500.0" type="line"/>
      <point x="302.0" y="366.0" type="line"/>
      <point x="444.0" y="366.0" type="line"/>
      <point x="348.0" y="204.0" type="line"/>
      <point x="398.0" y="112.0" type="line"/>
      <point x="410.0" y="118.0"/>
      <point x="412.0" y="118.0"/>
      <point x="420.0" y="118.0" type="curve" smooth="yes"/>
      <point x="446.0" y="118.0"/>
      <point x="472.0" y="94.0"/>
      <point x="472.0" y="40.0" type="curve" smooth="yes"/>
      <point x="472.0" y="-26.0"/>
      <point x="446.0" y="-50.0"/>
      <point x="414.0" y="-50.0" type="curve" smooth="yes"/>
      <point x="396.0" y="-50.0"/>
      <point x="376.0" y="-42.0"/>
      <point x="358.0" y="-26.0" type="curve"/>
      <point x="294.0" y="-136.0" type="line"/>
      <point x="330.0" y="-170.0"/>
      <point x="374.0" y="-188.0"/>
    </contour>
    <contour>
      <point x="280.0" y="730.0" type="move" name="aboveUC"/>
    </contour>
    <contour>
      <point x="330.0" y="-200.0" type="move" name="belowLC"/>
    </contour>
  </outline>
</glyph>
<glyph name="tesh" format="1">
  <advance width="600"/>
  <unicode hex="02A7"/>
  <outline>
    <contour>
      <point x="131" y="-12" type="curve" smooth="yes"/>
      <point x="162" y="-12"/>
      <point x="189" y="3"/>
      <point x="215" y="38" type="curve"/>
      <point x="217" y="38" type="line"/>
      <point x="231" y="0" type="line"/>
      <point x="331" y="0" type="line"/>
      <point x="332" y="696" type="line"/>
      <point x="202" y="696" type="line"/>
      <point x="203" y="560" type="line"/>
      <point x="211" y="470" type="line"/>
      <point x="209" y="470" type="line"/>
      <point x="185" y="498"/>
      <point x="156" y="512"/>
      <point x="128" y="512" type="curve" smooth="yes"/>
      <point x="22" y="512"/>
      <point x="-48" y="356"/>
      <point x="-12" y="176" type="curve" smooth="yes"/>
      <point x="11" y="58"/>
      <point x="64" y="-12"/>
    </contour>
    <contour>
      <point x="173" y="118" type="curve" smooth="yes"/>
      <point x="155" y="118"/>
      <point x="142" y="136"/>
      <point x="133" y="178" type="curve" smooth="yes"/>
      <point x="109" y="298"/>
      <point x="134" y="382"/>
      <point x="170" y="382" type="curve" smooth="yes"/>
      <point x="182" y="382"/>
      <point x="194" y="374"/>
      <point x="201" y="358" type="curve"/>
      <point x="201" y="160" type="line"/>
      <point x="198" y="126"/>
      <point x="185" y="118"/>
    </contour>
    <contour>
      <point x="422" y="-188" type="curve" smooth="yes"/>
      <point x="564" y="-188"/>
      <point x="628" y="-46"/>
      <point x="601" y="88" type="curve" smooth="yes"/>
      <point x="588" y="156"/>
      <point x="538" y="214"/>
      <point x="484" y="224" type="curve"/>
      <point x="583" y="408" type="line"/>
      <point x="583" y="500" type="line"/>
      <point x="289" y="500" type="line"/>
      <point x="290" y="376" type="line"/>
      <point x="432" y="376" type="line"/>
      <point x="336" y="204" type="line"/>
      <point x="386" y="112" type="line"/>
      <point x="397" y="118"/>
      <point x="401" y="118"/>
      <point x="409" y="118" type="curve" smooth="yes"/>
      <point x="431" y="118"/>
      <point x="453" y="100"/>
      <point x="461" y="58" type="curve" smooth="yes"/>
      <point x="474" y="-4"/>
      <point x="445" y="-62"/>
      <point x="399" y="-62" type="curve" smooth="yes"/>
      <point x="383" y="-62"/>
      <point x="366" y="-54"/>
      <point x="346" y="-36" type="curve"/>
      <point x="282" y="-128" type="line"/>
      <point x="317" y="-162"/>
      <point x="358" y="-188"/>
    </contour>
    <contour>
      <point x="254.885814375" y="730.0" type="move" name="aboveUC"/>
    </contour>
    <contour>
      <point x="330.718151835" y="-200.0" type="move" name="belowLC"/>
    </contour>
  </outline>
</glyph>
<glyph name="hookrhoticmod" format="1">
  <advance width="600"/>
  <unicode hex="02DE"/>
  <outline>
    <contour>
      <point x="337" y="225" type="curve" smooth="yes"/>
      <point x="373" y="225"/>
      <point x="400" y="236"/>
      <point x="422" y="250" type="curve"/>
      <point x="389" y="329" type="line"/>
      <point x="378" y="324"/>
      <point x="365" y="319"/>
      <point x="348" y="319" type="curve" smooth="yes"/>
      <point x="323" y="319"/>
      <point x="300" y="352"/>
      <point x="280" y="472" type="curve"/>
      <point x="76" y="384" type="line"/>
      <point x="76" y="262" type="line"/>
      <point x="212" y="322" type="line"/>
      <point x="240" y="246"/>
      <point x="288" y="225"/>
    </contour>
  </outline>
</glyph>
<glyph name="circumflexcmb" format="1">
  <advance width="600"/>
  <unicode hex="0302"/>
  <outline>
    <contour>
      <point x="170" y="558" type="line"/>
      <point x="298" y="642" type="line"/>
      <point x="302" y="642" type="line"/>
      <point x="430" y="558" type="line"/>
      <point x="494" y="618" type="line"/>
      <point x="388" y="746" type="line"/>
      <point x="212" y="746" type="line"/>
      <point x="106" y="618" type="line"/>
    </contour>
    <contour>
      <point x="300" y="520" type="move" name="_aboveLC"/>
    </contour>
    <contour>
      <point x="300" y="740" type="move" name="aboveLC"/>
    </contour>
  </outline>
</glyph>
<glyph name="overlinecmb" format="1">
  <advance width="600"/>
  <unicode hex="0305"/>
  <outline>
    <component base="macroncmb"/>
    <contour>
      <point x="300" y="520" type="move" name="_aboveLC"/>
    </contour>
    <contour>
      <point x="300" y="700" type="move" name="aboveLC"/>
    </contour>
  </outline>
</glyph>
<glyph name="brevecmb" format="1">
  <advance width="600"/>
  <unicode hex="0306"/>
  <outline>
    <contour>
      <point x="300" y="572" type="curve" smooth="yes"/>
      <point x="418" y="572"/>
      <point x="472" y="638"/>
      <point x="474" y="732" type="curve"/>
      <point x="378" y="748" type="line"/>
      <point x="372" y="708"/>
      <point x="348" y="678"/>
      <point x="300" y="678" type="curve" smooth="yes"/>
      <point x="252" y="678"/>
      <point x="228" y="708"/>
      <point x="222" y="748" type="curve"/>
      <point x="126" y="732" type="line"/>
      <point x="128" y="638"/>
      <point x="183" y="572"/>
    </contour>
    <contour>
      <point x="300" y="520" type="move" name="_aboveLC"/>
    </contour>
    <contour>
      <point x="300" y="740" type="move" name="aboveLC"/>
    </contour>
  </outline>
</glyph>
<glyph name="hoicmb" format="1">
  <advance width="600"/>
  <unicode hex="0309"/>
  <outline>
    <contour>
      <point x="252" y="566" type="line"/>
      <point x="334" y="570"/>
      <point x="404" y="602"/>
      <point x="404" y="674" type="curve" smooth="yes"/>
      <point x="404" y="748"/>
      <point x="358" y="802"/>
      <point x="212" y="806" type="curve"/>
      <point x="202" y="702" type="line"/>
      <point x="260" y="698"/>
      <point x="280" y="684"/>
      <point x="280" y="662" type="curve" smooth="yes"/>
      <point x="280" y="642"/>
      <point x="262" y="635"/>
      <point x="240" y="632" type="curve"/>
    </contour>
    <contour>
      <point x="300" y="520" type="move" name="_aboveLC"/>
    </contour>
    <contour>
      <point x="300" y="780" type="move" name="aboveLC"/>
    </contour>
  </outline>
</glyph>
<glyph name="lefttackbelowcmb" format="1">
  <advance width="600"/>
  <unicode hex="0318"/>
  <outline>
    <contour>
      <point x="326" y="-260" type="line"/>
      <point x="422" y="-260" type="line"/>
      <point x="422" y="-52" type="line"/>
      <point x="326" y="-52" type="line"/>
      <point x="326" y="-116" type="line"/>
      <point x="208" y="-116" type="line"/>
      <point x="208" y="-196" type="line"/>
      <point x="326" y="-196" type="line"/>
    </contour>
    <contour>
      <point x="300" y="-20" type="move" name="_belowLC"/>
    </contour>
  </outline>
</glyph>
<glyph name="tildeoverlaycmb" format="1">
  <advance width="600"/>
  <unicode hex="0334"/>
  <outline>
    <contour>
      <point x="398" y="164" type="curve" smooth="yes"/>
      <point x="472" y="164"/>
      <point x="518" y="210"/>
      <point x="520" y="322" type="curve"/>
      <point x="414" y="328" type="line"/>
      <point x="410" y="292"/>
      <point x="400" y="282"/>
      <point x="384" y="282" type="curve" smooth="yes"/>
      <point x="338" y="282"/>
      <point x="287" y="338"/>
      <point x="202" y="338" type="curve" smooth="yes"/>
      <point x="128" y="338"/>
      <point x="82" y="292"/>
      <point x="80" y="180" type="curve"/>
      <point x="186" y="174" type="line"/>
      <point x="190" y="210"/>
      <point x="200" y="220"/>
      <point x="216" y="220" type="curve" smooth="yes"/>
      <point x="262" y="220"/>
      <point x="314" y="164"/>
    </contour>
    <contour>
      <point x="300" y="250" type="move" name="_center"/>
    </contour>
  </outline>
</glyph>
<glyph name="iotasubscriptcmb" format="1">
  <advance width="600"/>
  <unicode hex="0345"/>
  <outline>
    <contour>
      <point x="358" y="-222" type="curve" smooth="yes"/>
      <point x="388" y="-222"/>
      <point x="410" y="-217"/>
      <point x="425" y="-210" type="curve"/>
      <point x="409" y="-120" type="line"/>
      <point x="402" y="-121"/>
      <point x="399" y="-121"/>
      <point x="394" y="-121" type="curve" smooth="yes"/>
      <point x="371" y="-121"/>
      <point x="354" y="-115"/>
      <point x="354" y="-88" type="curve" smooth="yes"/>
      <point x="354" y="-80"/>
      <point x="354" y="-66"/>
      <point x="356" y="-52" type="curve"/>
      <point x="234" y="-52" type="line"/>
      <point x="234" y="-82" type="line" smooth="yes"/>
      <point x="234" y="-166"/>
      <point x="265" y="-222"/>
    </contour>
    <contour>
      <point x="300" y="-20" type="move" name="_belowLC"/>
    </contour>
  </outline>
</glyph>
<glyph name="lownumeralsign" format="1">
  <advance width="600"/>
  <unicode hex="0375"/>
  <outline>
    <contour>
      <point x="188" y="0" type="line"/>
      <point x="360" y="0" type="line"/>
      <point x="378" y="320" type="line"/>
      <point x="266" y="320" type="line"/>
      <point x="214" y="140" type="line"/>
    </contour>
  </outline>
</glyph>
<glyph name="dieresistonos" format="1">
  <advance width="600"/>
  <unicode hex="0385"/>
  <outline>
    <component base="dieresistonoscmb"/>
    <contour>
      <point x="300" y="520" type="move" name="_aboveLC"/>
    </contour>
  </outline>
</glyph>
<glyph name="Iota" format="1">
  <advance width="600"/>
  <unicode hex="0399"/>
  <outline>
    <component base="I"/>
    <contour>
      <point x="300" y="670" type="move" name="aboveUC"/>
    </contour>
  </outline>
</glyph>
<glyph name="Xi" format="1">
  <advance width="600"/>
  <unicode hex="039E"/>
  <outline>
    <contour>
      <point x="64" y="0" type="line"/>
      <point x="536" y="0" type="line"/>
      <point x="536" y="144" type="line"/>
      <point x="64" y="144" type="line"/>
    </contour>
    <contour>
      <point x="130" y="260" type="line"/>
      <point x="470" y="260" type="line"/>
      <point x="470" y="404" type="line"/>
      <point x="130" y="404" type="line"/>
    </contour>
    <contour>
      <point x="74" y="506" type="line"/>
      <point x="526" y="506" type="line"/>
      <point x="526" y="650" type="line"/>
      <point x="74" y="650" type="line"/>
    </contour>
  </outline>
</glyph>
<glyph name="zeta" format="1">
  <advance width="600"/>
  <unicode hex="03B6"/>
  <outline>
    <contour>
      <point x="476" y="-188" type="line"/>
      <point x="520" y="-120"/>
      <point x="538" y="-48"/>
      <point x="538" y="-12" type="curve" smooth="yes"/>
      <point x="538.0" y="68.0"/>
      <point x="495.162454925" y="102.11250919"/>
      <point x="378" y="126" type="curve" smooth="yes"/>
      <point x="271.925924931" y="147.214815014"/>
      <point x="250" y="172"/>
      <point x="250" y="240" type="curve" smooth="yes"/>
      <point x="250" y="332"/>
      <point x="350" y="486"/>
      <point x="522" y="562" type="curve"/>
      <point x="528" y="562" type="line"/>
      <point x="528" y="696" type="line"/>
      <point x="106" y="696" type="line"/>
      <point x="106" y="562" type="line"/>
      <point x="177.040451125" y="569.224452657"/>
      <point x="296.270607245" y="569.813530362"/>
      <point x="340" y="572" type="curve"/>
      <point x="158" y="458"/>
      <point x="74" y="344"/>
      <point x="74" y="230" type="curve" smooth="yes"/>
      <point x="74" y="64"/>
      <point x="179.0" y="14.0"/>
      <point x="278" y="-8" type="curve" smooth="yes"/>
      <point x="362.850516715" y="-27.3944038207"/>
      <point x="388.0" y="-34.0"/>
      <point x="388" y="-60" type="curve" smooth="yes"/>
      <point x="388" y="-85"/>
      <point x="368" y="-110"/>
      <point x="342" y="-146" type="curve"/>
    </contour>
  </outline>
</glyph>
<glyph name="eta" format="1">
  <advance width="600"/>
  <unicode hex="03B7"/>
  <outline>
    <contour>
      <point x="364" y="-176" type="curve"/>
      <point x="538" y="-176" type="line"/>
      <point x="538" y="308" type="line" smooth="yes"/>
      <point x="538" y="432.0"/>
      <point x="497" y="512"/>
      <point x="380" y="512" type="curve" smooth="yes"/>
      <point x="309" y="512"/>
      <point x="262.789728307" y="468.748699684"/>
      <point x="222" y="420" type="curve"/>
      <point x="218" y="420" type="line"/>
      <point x="206" y="500" type="line"/>
      <point x="54" y="500" type="line"/>
      <point x="64" y="444"/>
      <point x="66" y="380"/>
      <point x="66" y="340" type="curve" smooth="yes"/>
      <point x="66" y="0" type="line"/>
      <point x="238" y="0" type="line"/>
      <point x="238" y="308" type="line"/>
      <point x="262.810490333" y="344.719525692"/>
      <point x="288.120481928" y="366.0"/>
      <point x="318" y="366" type="curve" smooth="yes"/>
      <point x="362.237288136" y="366.0"/>
      <point x="376.0" y="350.0"/>
      <point x="376" y="286" type="curve" smooth="yes"/>
      <point x="376" y="182"/>
      <point x="370" y="-22"/>
    </contour>
    <contour>
      <point x="320" y="520" type="move" name="aboveLC"/>
    </contour>
    <contour>
      <point x="144" y="-20" type="move" name="belowLC"/>
    </contour>
  </outline>
</glyph>
<glyph name="theta" format="1">
  <advance width="600"/>
  <unicode hex="03B8"/>
  <outline>
    <contour>
      <point x="300" y="-12" type="curve" smooth="yes"/>
      <point x="449.491525424" y="-12.0"/>
      <point x="552.0" y="110.0"/>
      <point x="552" y="350" type="curve" smooth="yes"/>
      <point x="552.0" y="595.0"/>
      <point x="449.491525424" y="708.0"/>
      <point x="300" y="708" type="curve" smooth="yes"/>
      <point x="150.508474576" y="708.0"/>
      <point x="48.0" y="596.0"/>
      <point x="48" y="350" type="curve" smooth="yes"/>
      <point x="48.0" y="110.0"/>
      <point x="150.508474576" y="-12.0"/>
    </contour>
    <contour>
      <point x="300" y="126" type="curve" smooth="yes"/>
      <point x="253.314285714" y="126.0"/>
      <point x="214.0" y="164.0"/>
      <point x="214" y="350" type="curve" smooth="yes"/>
      <point x="214.0" y="544.0"/>
      <point x="253.314285714" y="570.0"/>
      <point x="300" y="570" type="curve" smooth="yes"/>
      <point x="346.685714286" y="570.0"/>
      <point x="386.0" y="544.0"/>
      <point x="386" y="350" type="curve" smooth="yes"/>
      <point x="386.0" y="164.0"/>
      <point x="346.685714286" y="126.0"/>
    </contour>
    <contour>
      <point x="140" y="294" type="line"/>
      <point x="460" y="294" type="line"/>
      <point x="460" y="406" type="line"/>
      <point x="140" y="406" type="line"/>
    </contour>
  </outline>
</glyph>
<glyph name="sigma" format="1">
  <advance width="600"/>
  <unicode hex="03C3"/>
  <outline>
    <contour>
      <point x="282" y="-12" type="curve" smooth="yes"/>
      <point x="418.815450644" y="-12.0"/>
      <point x="513.0" y="76.0"/>
      <point x="513" y="216" type="curve" smooth="yes"/>
      <point x="513" y="285"/>
      <point x="488" y="342"/>
      <point x="442" y="368" type="curve"/>
      <point x="442" y="372" type="line"/>
      <point x="493" y="370"/>
      <point x="524" y="366"/>
      <point x="578" y="360" type="curve"/>
      <point x="578" y="500" type="line"/>
      <point x="290" y="500" type="line" smooth="yes"/>
      <point x="163" y="500"/>
      <point x="42.0" y="416.0"/>
      <point x="42" y="244" type="curve" smooth="yes"/>
      <point x="42.0" y="78.0"/>
      <point x="149.107438017" y="-12.0"/>
    </contour>
    <contour>
      <point x="284" y="126" type="curve" smooth="yes"/>
      <point x="241.294117647" y="126.0"/>
      <point x="218.0" y="168.0"/>
      <point x="218" y="244" type="curve" smooth="yes"/>
      <point x="218.0" y="330.0"/>
      <point x="241.294117647" y="362.0"/>
      <point x="284" y="362" type="curve" smooth="yes"/>
      <point x="326.705882353" y="362.0"/>
      <point x="350.0" y="305.0"/>
      <point x="350" y="234" type="curve" smooth="yes"/>
      <point x="350.0" y="164.0"/>
      <point x="326.705882353" y="126.0"/>
    </contour>
  </outline>
</glyph>
<glyph name="tau" format="1">
  <advance width="600"/>
  <unicode hex="03C4"/>
  <outline>
    <contour>
      <point x="388" y="-12" type="curve" smooth="yes"/>
      <point x="439.435897436" y="-12.0"/>
      <point x="484" y="-2"/>
      <point x="524" y="12" type="curve"/>
      <point x="502" y="140" type="line"/>
      <point x="472" y="130"/>
      <point x="454.863636364" y="126.0"/>
      <point x="434" y="126" type="curve" smooth="yes"/>
      <point x="400.421052632" y="126.0"/>
      <point x="376.0" y="138.272727273"/>
      <point x="376" y="180" type="curve" smooth="yes"/>
      <point x="376.0" y="221.755102041"/>
      <point x="378.20350276" y="293.866552449"/>
      <point x="382" y="366" type="curve"/>
      <point x="556" y="366" type="line"/>
      <point x="556" y="500" type="line"/>
      <point x="120" y="500" type="line"/>
      <point x="44" y="494" type="line"/>
      <point x="44" y="366" type="line"/>
      <point x="214" y="366" type="line"/>
      <point x="214" y="186" type="line" smooth="yes"/>
      <point x="214" y="68.0425531915"/>
      <point x="256.935064935" y="-12.0"/>
    </contour>
  </outline>
</glyph>
<glyph name="phi" format="1">
  <advance width="600"/>
  <unicode hex="03C6"/>
  <outline>
    <contour>
      <point x="246" y="-8" type="curve"/>
      <point x="236" y="120" type="line"/>
      <point x="191" y="121"/>
      <point x="164" y="164"/>
      <point x="164" y="250" type="curve" smooth="yes"/>
      <point x="164" y="336"/>
      <point x="191" y="379"/>
      <point x="236" y="380" type="curve"/>
      <point x="246" y="508" type="line"/>
      <point x="129" y="506"/>
      <point x="18" y="416"/>
      <point x="18" y="250" type="curve" smooth="yes"/>
      <point x="18" y="84"/>
      <point x="129" y="-6"/>
    </contour>
    <contour>
      <point x="354" y="-8" type="line"/>
      <point x="471" y="-6"/>
      <point x="582" y="84"/>
      <point x="582" y="250" type="curve" smooth="yes"/>
      <point x="582" y="416"/>
      <point x="471" y="506"/>
      <point x="354" y="508" type="curve"/>
      <point x="364" y="380" type="line"/>
      <point x="410" y="379"/>
      <point x="436" y="336"/>
      <point x="436" y="250" type="curve" smooth="yes"/>
      <point x="436" y="164"/>
      <point x="410" y="121"/>
      <point x="364" y="120" type="curve"/>
    </contour>
    <contour>
      <point x="230" y="-176" type="line"/>
      <point x="370" y="-176" type="line"/>
      <point x="370" y="630" type="line"/>
      <point x="230" y="630" type="line"/>
    </contour>
  </outline>
</glyph>
<glyph name="omega" format="1">
  <advance width="600"/>
  <unicode hex="03C9"/>
  <outline>
    <contour>
      <point x="198" y="-12" type="curve" smooth="yes"/>
      <point x="240.355932203" y="-12.0"/>
      <point x="273.795874677" y="7.25612417496"/>
      <point x="296" y="64" type="curve"/>
      <point x="300" y="64" type="line"/>
      <point x="322.204125323" y="7.25612417496"/>
      <point x="364.125" y="-12.0"/>
      <point x="408" y="-12" type="curve" smooth="yes"/>
      <point x="522.242424242" y="-12.0"/>
      <point x="582.0" y="92.0"/>
      <point x="582" y="266" type="curve" smooth="yes"/>
      <point x="582.0" y="364.0"/>
      <point x="555.39515459" y="443.008075683"/>
      <point x="514" y="512" type="curve"/>
      <point x="360" y="456" type="line"/>
      <point x="406" y="378"/>
      <point x="418" y="327"/>
      <point x="418" y="254" type="curve" smooth="yes"/>
      <point x="418.0" y="173.0"/>
      <point x="404.4" y="126.0"/>
      <point x="384" y="126" type="curve" smooth="yes"/>
      <point x="361.2" y="126.0"/>
      <point x="354.0" y="148.0"/>
      <point x="354" y="208" type="curve" smooth="yes"/>
      <point x="354" y="256"/>
      <point x="360" y="280"/>
      <point x="368" y="340" type="curve"/>
      <point x="228" y="340" type="line"/>
      <point x="236" y="280"/>
      <point x="242" y="256"/>
      <point x="242" y="208" type="curve" smooth="yes"/>
      <point x="242.0" y="156.0"/>
      <point x="231.714285714" y="126.0"/>
      <point x="206" y="126" type="curve" smooth="yes"/>
      <point x="180.16" y="126.0"/>
      <point x="172.0" y="170.0"/>
      <point x="172" y="228" type="curve" smooth="yes"/>
      <point x="172" y="302"/>
      <point x="196" y="369"/>
      <point x="244" y="452" type="curve"/>
      <point x="90" y="512" type="line"/>
      <point x="47" y="440"/>
      <point x="18" y="336"/>
      <point x="18" y="262" type="curve" smooth="yes"/>
      <point x="18.0" y="86.0"/>
      <point x="85.0588235294" y="-12.0"/>
    </contour>
    <contour>
      <point x="300" y="520" type="move" name="aboveLC"/>
    </contour>
    <contour>
      <point x="300" y="-20" type="move" name="belowLC"/>
    </contour>
  </outline>
</glyph>
<glyph name="beta.a" format="1">
  <advance width="600"/>
  <unicode hex="03D0"/>
  <outline>
    <contour>
      <point x="326" y="-12" type="curve" smooth="yes"/>
      <point x="454.596774194" y="-12.0"/>
      <point x="564.0" y="52.0"/>
      <point x="564" y="202" type="curve" smooth="yes"/>
      <point x="564.0" y="290.0"/>
      <point x="502" y="364"/>
      <point x="436" y="376" type="curve"/>
      <point x="436" y="380" type="line"/>
      <point x="484" y="404"/>
      <point x="514.0" y="458.0"/>
      <point x="514" y="523" type="curve" smooth="yes"/>
      <point x="514.0" y="651.0"/>
      <point x="404.956521739" y="706.0"/>
      <point x="294" y="706" type="curve" smooth="yes"/>
      <point x="135.639344262" y="706.0"/>
      <point x="64" y="602.0"/>
      <point x="64" y="466" type="curve" smooth="yes"/>
      <point x="64" y="244" type="line" smooth="yes"/>
      <point x="64" y="60.0"/>
      <point x="193.101449275" y="-12.0"/>
    </contour>
    <contour>
      <point x="320" y="136" type="curve" smooth="yes"/>
      <point x="271.127272727" y="136.0"/>
      <point x="224.0" y="172.0"/>
      <point x="224" y="263" type="curve" smooth="yes"/>
      <point x="224" y="312"/>
      <point x="226" y="384"/>
      <point x="230" y="448" type="curve" smooth="yes"/>
      <point x="234.996286129" y="521.945034702"/>
      <point x="245" y="574"/>
      <point x="292" y="574" type="curve" smooth="yes"/>
      <point x="321" y="574"/>
      <point x="350.0" y="552.0"/>
      <point x="350" y="506" type="curve" smooth="yes"/>
      <point x="350.0" y="436.0"/>
      <point x="327.630469848" y="404.418544149"/>
      <point x="166" y="376" type="curve"/>
      <point x="186" y="254" type="line"/>
      <point x="263.33350885" y="279.777836283"/>
      <point x="308.126582278" y="292.0"/>
      <point x="330" y="292" type="curve" smooth="yes"/>
      <point x="373.421052632" y="292.0"/>
      <point x="396.0" y="256.0"/>
      <point x="396" y="214" type="curve" smooth="yes"/>
      <point x="396.0" y="160.0"/>
      <point x="360.651162791" y="136.0"/>
    </contour>
  </outline>
</glyph>
<glyph name="phi.alt" format="1">
  <advance width="600"/>
  <unicode hex="03D5"/>
  <outline>
    <contour>
      <point x="230" y="-176" type="line"/>
      <point x="382" y="-176" type="line"/>
      <point x="374" y="-30"/>
      <point x="370" y="126"/>
      <point x="370" y="272" type="curve" smooth="yes"/>
      <point x="370.0" y="342.0"/>
      <point x="382.75" y="372.0"/>
      <point x="404" y="372" type="curve" smooth="yes"/>
      <point x="425.333333333" y="372.0"/>
      <point x="436.0" y="346.0"/>
      <point x="436" y="256" type="curve" smooth="yes"/>
      <point x="436.0" y="152.0"/>
      <point x="405.322137605" y="120.932693577"/>
      <point x="354" y="118" type="curve"/>
      <point x="356" y="-8" type="line"/>
      <point x="471.370629371" y="-8.0"/>
      <point x="582.0" y="90.0"/>
      <point x="582" y="268" type="curve" smooth="yes"/>
      <point x="582.0" y="424.0"/>
      <point x="517.772151899" y="512.0"/>
      <point x="410" y="512" type="curve" smooth="yes"/>
      <point x="306.082474227" y="512.0"/>
      <point x="230" y="438.0"/>
      <point x="230" y="243" type="curve" smooth="yes"/>
    </contour>
    <contour>
      <point x="246" y="-8" type="curve"/>
      <point x="254" y="118" type="line"/>
      <point x="183.5" y="118.0"/>
      <point x="164.0" y="172.0"/>
      <point x="164" y="248" type="curve" smooth="yes"/>
      <point x="164" y="307"/>
      <point x="186" y="362"/>
      <point x="232" y="422" type="curve"/>
      <point x="120" y="522" type="line"/>
      <point x="60" y="452"/>
      <point x="18" y="346"/>
      <point x="18" y="264" type="curve" smooth="yes"/>
      <point x="18.0" y="88.0"/>
      <point x="122.5" y="-8.0"/>
    </contour>
  </outline>
</glyph>
<glyph name="koppa" format="1">
  <advance width="600"/>
  <unicode hex="03D9"/>
  <outline>
    <contour>
      <point x="300" y="-12" type="curve" smooth="yes"/>
      <point x="433.161290323" y="-12.0"/>
      <point x="558.0" y="84.0"/>
      <point x="558" y="250" type="curve" smooth="yes"/>
      <point x="558.0" y="416.0"/>
      <point x="433.161290323" y="512.0"/>
      <point x="300" y="512" type="curve" smooth="yes"/>
      <point x="166.838709677" y="512.0"/>
      <point x="42.0" y="416.0"/>
      <point x="42" y="250" type="curve" smooth="yes"/>
      <point x="42.0" y="84.0"/>
      <point x="166.838709677" y="-12.0"/>
    </contour>
    <contour>
      <point x="300" y="118" type="curve" smooth="yes"/>
      <point x="240.777777778" y="118.0"/>
      <point x="218.0" y="168.0"/>
      <point x="218" y="250" type="curve" smooth="yes"/>
      <point x="218.0" y="326.0"/>
      <point x="240.777777778" y="374.0"/>
      <point x="300" y="374" type="curve" smooth="yes"/>
      <point x="359.222222222" y="374.0"/>
      <point x="382.0" y="326.0"/>
      <point x="382" y="250" type="curve" smooth="yes"/>
      <point x="382.0" y="168.0"/>
      <point x="359.222222222" y="118.0"/>
    </contour>
    <contour>
      <point x="220" y="-176" type="line"/>
      <point x="394" y="-176" type="line"/>
      <point x="390" y="-105"/>
      <point x="386" y="-27"/>
      <point x="382" y="48" type="curve"/>
      <point x="220" y="54" type="line"/>
    </contour>
  </outline>
</glyph>
<glyph name="Lje" format="1">
  <advance width="600"/>
  <unicode hex="0409"/>
  <outline>
    <contour>
      <point x="46" y="-12" type="curve" smooth="yes"/>
      <point x="144.076923077" y="-12.0"/>
      <point x="180.004838204" y="50.053825021"/>
      <point x="196" y="228" type="curve" smooth="yes"/>
      <point x="209.072305258" y="365.761986176"/>
      <point x="209.99741123" y="423.946930212"/>
      <point x="214" y="506" type="curve"/>
      <point x="356" y="506" type="line"/>
      <point x="358" y="650" type="line"/>
      <point x="84" y="650" type="line"/>
      <point x="81.9999391474" y="537.996592253"/>
      <point x="78.1167219271" y="400.894868108"/>
      <point x="60" y="262" type="curve" smooth="yes"/>
      <point x="46.0386738374" y="156.292816198"/>
      <point x="42" y="148"/>
      <point x="30" y="148" type="curve" smooth="yes"/>
      <point x="22" y="148"/>
      <point x="18" y="150"/>
      <point x="12" y="152" type="curve"/>
      <point x="-18" y="-4" type="line"/>
      <point x="4" y="-10"/>
      <point x="24" y="-12"/>
    </contour>
    <contour>
      <point x="248" y="0" type="line"/>
      <point x="384" y="0" type="line" smooth="yes"/>
      <point x="492.421052632" y="0"/>
      <point x="584.0" y="54.0"/>
      <point x="584" y="218" type="curve" smooth="yes"/>
      <point x="584.0" y="366.0"/>
      <point x="503.681818182" y="424"/>
      <point x="398" y="424" type="curve" smooth="yes"/>
      <point x="390" y="424" type="line"/>
      <point x="390" y="650" type="line"/>
      <point x="248" y="650" type="line"/>
    </contour>
    <contour>
      <point x="390" y="136" type="line"/>
      <point x="390" y="288" type="line"/>
      <point x="396" y="288" type="line" smooth="yes"/>
      <point x="432.818181818" y="288"/>
      <point x="450.0" y="264.0"/>
      <point x="450" y="216" type="curve" smooth="yes"/>
      <point x="450.0" y="158.0"/>
      <point x="429.136363636" y="136"/>
      <point x="396" y="136" type="curve" smooth="yes"/>
    </contour>
  </outline>
</glyph>
<glyph name="Tshe" format="1">
  <advance width="600"/>
  <unicode hex="040B"/>
  <outline>
    <contour>
      <point x="152" y="0" type="line"/>
      <point x="324" y="0" type="line"/>
      <point x="324" y="268" type="line"/>
      <point x="334" y="272"/>
      <point x="344" y="274"/>
      <point x="354" y="274" type="curve" smooth="yes"/>
      <point x="387" y="274"/>
      <point x="400" y="257"/>
      <point x="400" y="222" type="curve" smooth="yes"/>
      <point x="400" y="0" type="line"/>
      <point x="568" y="0" type="line"/>
      <point x="568" y="222" type="line" smooth="yes"/>
      <point x="568" y="356"/>
      <point x="494" y="410"/>
      <point x="383" y="410" type="curve" smooth="yes"/>
      <point x="364" y="410"/>
      <point x="347" y="407"/>
      <point x="324" y="404" type="curve"/>
      <point x="324" y="650" type="line"/>
      <point x="152" y="650" type="line"/>
    </contour>
    <contour>
      <point x="28" y="506" type="line"/>
      <point x="468" y="506" type="line"/>
      <point x="468" y="650" type="line"/>
      <point x="28" y="650" type="line"/>
    </contour>
  </outline>
</glyph>
<glyph name="Icyr" format="1">
  <advance width="600"/>
  <unicode hex="0418"/>
  <outline>
    <contour>
      <point x="58" y="0" type="line"/>
      <point x="232" y="0" type="line"/>
      <point x="354" y="291" type="line"/>
      <point x="406" y="436" type="line"/>
      <point x="410" y="436" type="line"/>
      <point x="402" y="362"/>
      <point x="388" y="268"/>
      <point x="388" y="188" type="curve" smooth="yes"/>
      <point x="388" y="0" type="line"/>
      <point x="542" y="0" type="line"/>
      <point x="542" y="650" type="line"/>
      <point x="368" y="650" type="line"/>
      <point x="246" y="360" type="line"/>
      <point x="194" y="214" type="line"/>
      <point x="190" y="214" type="line"/>
      <point x="198" y="284"/>
      <point x="212" y="382"/>
      <point x="212" y="462" type="curve" smooth="yes"/>
      <point x="212" y="650" type="line"/>
      <point x="58" y="650" type="line"/>
    </contour>
    <contour>
      <point x="304.0" y="670.0" type="move" name="aboveUC"/>
    </contour>
  </outline>
</glyph>
<glyph name="El" format="1">
  <advance width="600"/>
  <unicode hex="041B"/>
  <outline>
    <contour>
      <point x="76" y="-12" type="curve" smooth="yes"/>
      <point x="182" y="-12"/>
      <point x="231" y="52"/>
      <point x="276" y="278" type="curve" smooth="yes"/>
      <point x="293" y="361"/>
      <point x="302" y="424"/>
      <point x="314" y="506" type="curve"/>
      <point x="370" y="506" type="line"/>
      <point x="370" y="0" type="line"/>
      <point x="542" y="0" type="line"/>
      <point x="542" y="650" type="line"/>
      <point x="182" y="650" type="line"/>
      <point x="159" y="525"/>
      <point x="146" y="422"/>
      <point x="118" y="296" type="curve" smooth="yes"/>
      <point x="88" y="160"/>
      <point x="76" y="148"/>
      <point x="50" y="148" type="curve" smooth="yes"/>
      <point x="38" y="148"/>
      <point x="30" y="150"/>
      <point x="22" y="152" type="curve"/>
      <point x="-8" y="-2" type="line"/>
      <point x="14" y="-10"/>
      <point x="36" y="-12"/>
    </contour>
  </outline>
</glyph>
<glyph name="Tse" format="1">
  <advance width="600"/>
  <unicode hex="0426"/>
  <outline>
    <contour>
      <point x="58" y="0" type="line"/>
      <point x="536" y="0" type="line"/>
      <point x="536" y="650" type="line"/>
      <point x="364" y="650" type="line"/>
      <point x="364" y="144" type="line"/>
      <point x="230" y="144" type="line"/>
      <point x="230" y="650" type="line"/>
      <point x="58" y="650" type="line"/>
    </contour>
    <contour>
      <point x="456" y="-188" type="line"/>
      <point x="598" y="-188" type="line"/>
      <point x="612" y="36" type="line"/>
      <point x="612" y="144" type="line"/>
      <point x="432" y="144" type="line"/>
      <point x="432" y="0" type="line"/>
      <point x="456" y="0" type="line"/>
    </contour>
  </outline>
</glyph>
<glyph name="Hard" format="1">
  <advance width="600"/>
  <unicode hex="042A"/>
  <outline>
    <contour>
      <point x="152" y="0" type="line"/>
      <point x="344" y="0" type="line" smooth="yes"/>
      <point x="465" y="0"/>
      <point x="568" y="54"/>
      <point x="568" y="218" type="curve" smooth="yes"/>
      <point x="568" y="363"/>
      <point x="459" y="424"/>
      <point x="340" y="424" type="curve" smooth="yes"/>
      <point x="324" y="424" type="line"/>
      <point x="324" y="650" type="line"/>
      <point x="28" y="650" type="line"/>
      <point x="28" y="506" type="line"/>
      <point x="152" y="506" type="line"/>
    </contour>
    <contour>
      <point x="324" y="136" type="line"/>
      <point x="324" y="288" type="line"/>
      <point x="332" y="288" type="line" smooth="yes"/>
      <point x="382" y="288"/>
      <point x="406" y="262"/>
      <point x="406" y="216" type="curve" smooth="yes"/>
      <point x="406" y="158"/>
      <point x="380" y="136"/>
      <point x="336" y="136" type="curve" smooth="yes"/>
    </contour>
  </outline>
</glyph>
<glyph name="Yu" format="1">
  <advance width="600"/>
  <unicode hex="042E"/>
  <outline>
    <contour>
      <point x="26" y="0" type="line"/>
      <point x="178" y="0" type="line"/>
      <point x="178" y="258" type="line"/>
      <point x="306" y="258" type="line"/>
      <point x="306" y="408" type="line"/>
      <point x="178" y="408" type="line"/>
      <point x="178" y="650" type="line"/>
      <point x="26" y="650" type="line"/>
    </contour>
    <contour>
      <point x="388" y="-12" type="curve" smooth="yes"/>
      <point x="517" y="-12"/>
      <point x="586" y="94"/>
      <point x="586" y="328" type="curve" smooth="yes"/>
      <point x="586" y="562"/>
      <point x="517" y="662"/>
      <point x="388" y="662" type="curve" smooth="yes"/>
      <point x="284" y="662"/>
      <point x="216" y="562"/>
      <point x="216" y="328" type="curve" smooth="yes"/>
      <point x="216" y="94"/>
      <point x="284" y="-12"/>
    </contour>
    <contour>
      <point x="388" y="136" type="curve" smooth="yes"/>
      <point x="366" y="136"/>
      <point x="354" y="170"/>
      <point x="354" y="328" type="curve" smooth="yes"/>
      <point x="354" y="486"/>
      <point x="366" y="514"/>
      <point x="388" y="514" type="curve" smooth="yes"/>
      <point x="411" y="514"/>
      <point x="422" y="486"/>
      <point x="422" y="328" type="curve" smooth="yes"/>
      <point x="422" y="170"/>
      <point x="411" y="136"/>
    </contour>
    <contour>
      <point x="320" y="670" type="move" name="aboveUC"/>
    </contour>
  </outline>
</glyph>
<glyph name="zhe" format="1">
  <advance width="600"/>
  <unicode hex="0436"/>
  <outline>
    <contour>
      <point x="0" y="0" type="line"/>
      <point x="154" y="0" type="line"/>
      <point x="204" y="198" type="line"/>
      <point x="238" y="198" type="line"/>
      <point x="238" y="0" type="line"/>
      <point x="362" y="0" type="line"/>
      <point x="362" y="198" type="line"/>
      <point x="396" y="198" type="line"/>
      <point x="446" y="0" type="line"/>
      <point x="600" y="0" type="line"/>
      <point x="478" y="310" type="line"/>
      <point x="362" y="310" type="line"/>
      <point x="362" y="500" type="line"/>
      <point x="238" y="500" type="line"/>
      <point x="238" y="310" type="line"/>
      <point x="122" y="310" type="line"/>
    </contour>
    <contour>
      <point x="114" y="242" type="line"/>
      <point x="234" y="264" type="line"/>
      <point x="184" y="412" type="line" smooth="yes"/>
      <point x="157.332525664" y="490.935724034"/>
      <point x="109.0" y="512.0"/>
      <point x="46" y="512" type="curve" smooth="yes"/>
      <point x="32.1818181818" y="512.0"/>
      <point x="20.082361415" y="511.491982461"/>
      <point x="8" y="506" type="curve"/>
      <point x="28" y="346" type="line"/>
      <point x="34" y="348"/>
      <point x="42" y="350"/>
      <point x="50" y="350" type="curve" smooth="yes"/>
      <point x="68" y="350"/>
      <point x="82" y="342"/>
      <point x="90" y="316" type="curve" smooth="yes"/>
    </contour>
    <contour>
      <point x="486" y="242" type="line"/>
      <point x="510" y="316" type="line" smooth="yes"/>
      <point x="518" y="342"/>
      <point x="532" y="350"/>
      <point x="550" y="350" type="curve" smooth="yes"/>
      <point x="558" y="350"/>
      <point x="566" y="348"/>
      <point x="572" y="346" type="curve"/>
      <point x="592" y="506" type="line"/>
      <point x="580.151302264" y="511.078013316"/>
      <point x="567.818181818" y="512.0"/>
      <point x="554" y="512" type="curve" smooth="yes"/>
      <point x="491.0" y="512.0"/>
      <point x="442.667474336" y="490.935724034"/>
      <point x="416" y="412" type="curve" smooth="yes"/>
      <point x="366" y="264" type="line"/>
    </contour>
    <contour>
      <point x="300.0" y="520.0" type="move" name="aboveLC"/>
    </contour>
  </outline>
</glyph>
<glyph name="ze" format="1">
  <advance width="600"/>
  <unicode hex="0437"/>
  <outline>
    <contour>
      <point x="278" y="-12" type="curve" smooth="yes"/>
      <point x="432" y="-12"/>
      <point x="550.0" y="40.0"/>
      <point x="550" y="144" type="curve" smooth="yes"/>
      <point x="550.0" y="210.0"/>
      <point x="519.307262727" y="242.550756197"/>
      <point x="444" y="260" type="curve"/>
      <point x="444" y="264" type="line"/>
      <point x="514.557810803" y="282.09174636"/>
      <point x="532.0" y="328.0"/>
      <point x="532" y="366" type="curve" smooth="yes"/>
      <point x="532.0" y="469.0"/>
      <point x="429" y="512"/>
      <point x="276" y="512" type="curve" smooth="yes"/>
      <point x="197" y="512"/>
      <point x="120.848041911" y="493.778734773"/>
      <point x="50" y="448" type="curve"/>
      <point x="112" y="338" type="line"/>
      <point x="167.217649027" y="372.511030642"/>
      <point x="212" y="382"/>
      <point x="264" y="382" type="curve" smooth="yes"/>
      <point x="346" y="382"/>
      <point x="368.0" y="368.0"/>
      <point x="368" y="346" type="curve" smooth="yes"/>
      <point x="368.0" y="322.0"/>
      <point x="346.472222222" y="310"/>
      <point x="306" y="310" type="curve" smooth="yes"/>
      <point x="181" y="310" type="line"/>
      <point x="181" y="198" type="line"/>
      <point x="314" y="198" type="line" smooth="yes"/>
      <point x="361.948717949" y="198"/>
      <point x="382.0" y="188.0"/>
      <point x="382" y="162" type="curve" smooth="yes"/>
      <point x="382.0" y="134.0"/>
      <point x="351" y="118"/>
      <point x="261" y="118" type="curve" smooth="yes"/>
      <point x="220" y="118"/>
      <point x="163.123378071" y="133.126026119"/>
      <point x="108" y="168" type="curve"/>
      <point x="42" y="60" type="line"/>
      <point x="125.427722684" y="2.57572334726"/>
      <point x="197" y="-12"/>
    </contour>
    <contour>
      <point x="320" y="520" type="move" name="aboveLC"/>
    </contour>
  </outline>
</glyph>
<glyph name="pe" format="1">
  <advance width="600"/>
  <unicode hex="043F"/>
  <outline>
    <contour>
      <point x="64" y="0" type="line"/>
      <point x="236" y="0" type="line"/>
      <point x="236" y="366" type="line"/>
      <point x="364" y="366" type="line"/>
      <point x="364" y="0" type="line"/>
      <point x="536" y="0" type="line"/>
      <point x="536" y="500" type="line"/>
      <point x="64" y="500" type="line"/>
    </contour>
    <contour>
      <point x="300" y="520" type="move" name="aboveLC"/>
    </contour>
  </outline>
</glyph>
<glyph name="hard" format="1">
  <advance width="600"/>
  <unicode hex="044A"/>
  <outline>
    <contour>
      <point x="152" y="0" type="line"/>
      <point x="348" y="0" type="line" smooth="yes"/>
      <point x="470" y="0"/>
      <point x="568" y="42"/>
      <point x="568" y="178" type="curve" smooth="yes"/>
      <point x="568" y="308"/>
      <point x="470" y="350"/>
      <point x="348" y="350" type="curve" smooth="yes"/>
      <point x="324" y="350" type="line"/>
      <point x="324" y="500" type="line"/>
      <point x="28" y="500" type="line"/>
      <point x="28" y="366" type="line"/>
      <point x="152" y="366" type="line"/>
    </contour>
    <contour>
      <point x="324" y="130" type="line"/>
      <point x="324" y="224" type="line"/>
      <point x="342" y="224" type="line" smooth="yes"/>
      <point x="384" y="224"/>
      <point x="404" y="208"/>
      <point x="404" y="178" type="curve" smooth="yes"/>
      <point x="404" y="146"/>
      <point x="384" y="130"/>
      <point x="342" y="130" type="curve" smooth="yes"/>
    </contour>
    <contour>
      <point x="240" y="520" type="move" name="aboveLC"/>
    </contour>
  </outline>
</glyph>
<glyph name="soft" format="1">
  <advance width="600"/>
  <unicode hex="044C"/>
  <outline>
    <contour>
      <point x="64" y="0" type="line"/>
      <point x="338" y="0" type="line" smooth="yes"/>
      <point x="466.0" y="0"/>
      <point x="568.0" y="42.2372881356"/>
      <point x="568" y="178" type="curve" smooth="yes"/>
      <point x="568.0" y="308.242774566"/>
      <point x="466.0" y="350"/>
      <point x="338" y="350" type="curve" smooth="yes"/>
      <point x="236" y="350" type="line"/>
      <point x="236" y="500" type="line"/>
      <point x="64" y="500" type="line"/>
    </contour>
    <contour>
      <point x="236" y="130" type="line"/>
      <point x="236" y="224" type="line"/>
      <point x="332" y="224" type="line" smooth="yes"/>
      <point x="381" y="224"/>
      <point x="404" y="208"/>
      <point x="404" y="178" type="curve" smooth="yes"/>
      <point x="404" y="146"/>
      <point x="381" y="130"/>
      <point x="332" y="130" type="curve" smooth="yes"/>
    </contour>
    <contour>
      <point x="150" y="520" type="move" name="aboveLC"/>
    </contour>
  </outline>
</glyph>
<glyph name="ya" format="1">
  <advance width="600"/>
  <unicode hex="044F"/>
  <outline>
    <contour>
      <point x="364" y="0" type="line"/>
      <point x="536" y="0" type="line"/>
      <point x="536" y="500" type="line"/>
      <point x="279" y="500" type="line" smooth="yes"/>
      <point x="162" y="500"/>
      <point x="66" y="458"/>
      <point x="66" y="328" type="curve" smooth="yes"/>
      <point x="66" y="198"/>
      <point x="186" y="150"/>
      <point x="282" y="150" type="curve"/>
      <point x="364" y="150" type="line"/>
    </contour>
    <contour>
      <point x="300" y="264" type="line" smooth="yes"/>
      <point x="255" y="264"/>
      <point x="235" y="289"/>
      <point x="235" y="323" type="curve" smooth="yes"/>
      <point x="235" y="358"/>
      <point x="255" y="376"/>
      <point x="300" y="376" type="curve" smooth="yes"/>
      <point x="364" y="376" type="line"/>
      <point x="364" y="264" type="line"/>
    </contour>
    <contour>
      <point x="26" y="0" type="line"/>
      <point x="218" y="0" type="line"/>
      <point x="348" y="196" type="line"/>
      <point x="200" y="242" type="line"/>
    </contour>
    <contour>
      <point x="330" y="520" type="move" name="aboveLC"/>
    </contour>
  </outline>
</glyph>
<glyph name="dje" format="1">
  <advance width="600"/>
  <unicode hex="0452"/>
  <outline>
    <contour>
      <point x="310" y="-188" type="curve" smooth="yes"/>
      <point x="460" y="-188"/>
      <point x="554" y="-96"/>
      <point x="554" y="184" type="curve" smooth="yes"/>
      <point x="554" y="370"/>
      <point x="490" y="492"/>
      <point x="367" y="492" type="curve" smooth="yes"/>
      <point x="305" y="492"/>
      <point x="258" y="458"/>
      <point x="230" y="428" type="curve"/>
      <point x="226" y="428" type="line"/>
      <point x="236" y="514" type="line"/>
      <point x="236" y="696" type="line"/>
      <point x="64" y="696" type="line"/>
      <point x="64" y="0" type="line"/>
      <point x="236" y="0" type="line"/>
      <point x="236" y="308" type="line"/>
      <point x="259" y="332"/>
      <point x="278" y="346"/>
      <point x="301" y="346" type="curve" smooth="yes"/>
      <point x="350" y="346"/>
      <point x="378" y="308"/>
      <point x="378" y="162" type="curve" smooth="yes"/>
      <point x="378" y="-10"/>
      <point x="338" y="-54"/>
      <point x="292" y="-54" type="curve" smooth="yes"/>
      <point x="280" y="-54"/>
      <point x="270" y="-52"/>
      <point x="256" y="-48" type="curve"/>
      <point x="226" y="-174" type="line"/>
      <point x="246" y="-182"/>
      <point x="270" y="-188"/>
    </contour>
    <contour>
      <point x="0" y="550" type="line"/>
      <point x="406" y="550" type="line"/>
      <point x="406" y="630" type="line"/>
      <point x="74" y="630" type="line"/>
      <point x="0" y="624" type="line"/>
    </contour>
  </outline>
</glyph>
<glyph name="ieukran" format="1">
  <advance width="600"/>
  <unicode hex="0454"/>
  <outline>
    <contour>
      <point x="348" y="-12" type="curve" smooth="yes"/>
      <point x="410.65060241" y="-12.0"/>
      <point x="490.293548946" y="-0.493144672505"/>
      <point x="548" y="50" type="curve"/>
      <point x="488" y="154" type="line"/>
      <point x="458.770652937" y="133.121894955"/>
      <point x="412.651162791" y="118.0"/>
      <point x="368" y="118" type="curve" smooth="yes"/>
      <point x="279.357142857" y="118.0"/>
      <point x="222.0" y="154.0"/>
      <point x="222" y="250" type="curve" smooth="yes"/>
      <point x="222.0" y="346.0"/>
      <point x="274.830188679" y="382.0"/>
      <point x="362" y="382" type="curve" smooth="yes"/>
      <point x="402.526315789" y="382.0"/>
      <point x="439.227204428" y="376.315299941"/>
      <point x="472" y="352" type="curve"/>
      <point x="544" y="456" type="line"/>
      <point x="499.60709295" y="493.166154739"/>
      <point x="435.783783784" y="512.0"/>
      <point x="362" y="512" type="curve" smooth="yes"/>
      <point x="199.593984962" y="512.0"/>
      <point x="62.0" y="424.0"/>
      <point x="62" y="250" type="curve" smooth="yes"/>
      <point x="62.0" y="76.0"/>
      <point x="184.571428571" y="-12.0"/>
    </contour>
    <contour>
      <point x="162" y="198" type="line"/>
      <point x="409" y="198" type="line"/>
      <point x="409" y="310" type="line"/>
      <point x="162" y="310" type="line"/>
    </contour>
  </outline>
</glyph>
<glyph name="lje" format="1">
  <advance width="600"/>
  <unicode hex="0459"/>
  <outline>
    <contour>
      <point x="49" y="-12" type="curve" smooth="yes"/>
      <point x="130.151079137" y="-12.0"/>
      <point x="173.992581814" y="41.9591999763"/>
      <point x="190" y="130" type="curve" smooth="yes"/>
      <point x="203.967644366" y="207.819732896"/>
      <point x="208.002482852" y="286.033104698"/>
      <point x="214" y="366" type="curve"/>
      <point x="248" y="366" type="line"/>
      <point x="248" y="0" type="line"/>
      <point x="388" y="0" type="line"/>
      <point x="388" y="500" type="line"/>
      <point x="90" y="500" type="line"/>
      <point x="84.0013200131" y="394.023320232"/>
      <point x="77.9771993696" y="303.853424519"/>
      <point x="64" y="214" type="curve" smooth="yes"/>
      <point x="55.9881727993" y="159.920166396"/>
      <point x="43.7333333333" y="150.0"/>
      <point x="32" y="150" type="curve" smooth="yes"/>
      <point x="24" y="150"/>
      <point x="18" y="152"/>
      <point x="12" y="154" type="curve"/>
      <point x="-16" y="0" type="line"/>
      <point x="4" y="-8"/>
      <point x="24" y="-12"/>
    </contour>
    <contour>
      <point x="248" y="0" type="line"/>
      <point x="398" y="0" type="line" smooth="yes"/>
      <point x="501.145454545" y="0"/>
      <point x="584" y="42"/>
      <point x="584" y="178" type="curve" smooth="yes"/>
      <point x="584" y="308"/>
      <point x="501.145454545" y="350"/>
      <point x="398" y="350" type="curve" smooth="yes"/>
      <point x="388" y="350" type="line"/>
      <point x="388" y="500" type="line"/>
      <point x="248" y="500" type="line"/>
    </contour>
    <contour>
      <point x="388" y="130" type="line"/>
      <point x="388" y="224" type="line"/>
      <point x="392" y="224" type="line" smooth="yes"/>
      <point x="431.290322581" y="224"/>
      <point x="450.0" y="208.0"/>
      <point x="450" y="178" type="curve" smooth="yes"/>
      <point x="450.0" y="146.0"/>
      <point x="431.290322581" y="130"/>
      <point x="392" y="130" type="curve" smooth="yes"/>
    </contour>
  </outline>
</glyph>
<glyph name="nje" format="1">
  <advance width="600"/>
  <unicode hex="045A"/>
  <outline>
    <contour>
      <point x="28" y="0" type="line"/>
      <point x="178" y="0" type="line"/>
      <point x="178" y="178" type="line"/>
      <point x="238" y="178" type="line"/>
      <point x="238" y="0" type="line"/>
      <point x="388" y="0" type="line"/>
      <point x="388" y="500" type="line"/>
      <point x="238" y="500" type="line"/>
      <point x="238" y="328" type="line"/>
      <point x="178" y="328" type="line"/>
      <point x="178" y="500" type="line"/>
      <point x="28" y="500" type="line"/>
    </contour>
    <contour>
      <point x="238" y="0" type="line"/>
      <point x="398" y="0" type="line" smooth="yes"/>
      <point x="504.0" y="0"/>
      <point x="584" y="42"/>
      <point x="584" y="178" type="curve" smooth="yes"/>
      <point x="584" y="308"/>
      <point x="504.0" y="350"/>
      <point x="398" y="350" type="curve" smooth="yes"/>
      <point x="388" y="350" type="line"/>
      <point x="388" y="500" type="line"/>
      <point x="238" y="500" type="line"/>
    </contour>
    <contour>
      <point x="388" y="130" type="line"/>
      <point x="388" y="224" type="line"/>
      <point x="392" y="224" type="line" smooth="yes"/>
      <point x="424" y="224"/>
      <point x="440" y="210"/>
      <point x="440" y="178" type="curve" smooth="yes"/>
      <point x="440" y="144"/>
      <point x="424" y="130"/>
      <point x="392" y="130" type="curve" smooth="yes"/>
    </contour>
  </outline>
</glyph>
<glyph name="yat" format="1">
  <advance width="600"/>
  <unicode hex="0463"/>
  <outline>
    <contour>
      <point x="152" y="0" type="line"/>
      <point x="348" y="0" type="line" smooth="yes"/>
      <point x="470" y="0"/>
      <point x="568" y="42"/>
      <point x="568" y="177" type="curve" smooth="yes"/>
      <point x="568" y="308"/>
      <point x="470" y="350"/>
      <point x="348" y="350" type="curve" smooth="yes"/>
      <point x="324" y="350" type="line"/>
      <point x="324" y="420" type="line"/>
      <point x="470" y="420" type="line"/>
      <point x="470" y="554" type="line"/>
      <point x="324" y="554" type="line"/>
      <point x="324" y="630" type="line"/>
      <point x="152" y="630" type="line"/>
      <point x="152" y="554" type="line"/>
      <point x="28" y="554" type="line"/>
      <point x="28" y="420" type="line"/>
      <point x="152" y="420" type="line"/>
    </contour>
    <contour>
      <point x="324" y="130" type="line"/>
      <point x="324" y="224" type="line"/>
      <point x="342" y="224" type="line" smooth="yes"/>
      <point x="384" y="224"/>
      <point x="404" y="208"/>
      <point x="404" y="178" type="curve" smooth="yes"/>
      <point x="404" y="146"/>
      <point x="384" y="130"/>
      <point x="342" y="130" type="curve" smooth="yes"/>
    </contour>
  </outline>
</glyph>
<glyph name="Fita" format="1">
  <advance width="600"/>
  <unicode hex="0472"/>
  <outline>
    <contour>
      <point x="300" y="-12" type="curve" smooth="yes"/>
      <point x="456.781456954" y="-12.0"/>
      <point x="566.0" y="106.0"/>
      <point x="566" y="328" type="curve" smooth="yes"/>
      <point x="566.0" y="549.0"/>
      <point x="456.781456954" y="662.0"/>
      <point x="300" y="662" type="curve" smooth="yes"/>
      <point x="143.218543046" y="662.0"/>
      <point x="34.0" y="550.0"/>
      <point x="34" y="328" type="curve" smooth="yes"/>
      <point x="34.0" y="106.0"/>
      <point x="143.218543046" y="-12.0"/>
    </contour>
    <contour>
      <point x="300" y="128" type="curve" smooth="yes"/>
      <point x="240.363636364" y="128.0"/>
      <point x="204" y="196"/>
      <point x="204" y="328" type="curve" smooth="yes"/>
      <point x="204" y="460"/>
      <point x="240.363636364" y="522.0"/>
      <point x="300" y="522" type="curve" smooth="yes"/>
      <point x="359.636363636" y="522.0"/>
      <point x="396" y="460"/>
      <point x="396" y="328" type="curve" smooth="yes"/>
      <point x="396" y="196"/>
      <point x="359.636363636" y="128.0"/>
    </contour>
    <contour>
      <point x="154" y="264" type="line"/>
      <point x="466" y="264" type="line"/>
      <point x="466" y="400" type="line"/>
      <point x="154" y="400" type="line"/>
    </contour>
    <contour>
      <point x="300" y="670" type="move" name="aboveUC"/>
    </contour>
  </outline>
</glyph>
<glyph name="endescender" format="1">
  <advance width="600"/>
  <unicode hex="04A3"/>
  <outline>
    <contour>
      <point x="64" y="0" type="line"/>
      <point x="236" y="0" type="line"/>
      <point x="236" y="178" type="line"/>
      <point x="338" y="178" type="line"/>
      <point x="338" y="0" type="line"/>
      <point x="510" y="0" type="line"/>
      <point x="510" y="500" type="line"/>
      <point x="338" y="500" type="line"/>
      <point x="338" y="328" type="line"/>
      <point x="236" y="328" type="line"/>
      <point x="236" y="500" type="line"/>
      <point x="64" y="500" type="line"/>
    </contour>
    <contour>
      <point x="428" y="-172" type="line"/>
      <point x="576" y="-172" type="line"/>
      <point x="592" y="20" type="line"/>
      <point x="592" y="134" type="line"/>
      <point x="400" y="134" type="line"/>
      <point x="400" y="0" type="line"/>
      <point x="428" y="0" type="line"/>
    </contour>
  </outline>
</glyph>
<glyph name="ustraightstroke" format="1">
  <advance width="600"/>
  <unicode hex="04B1"/>
  <outline>
    <contour>
      <point x="78" y="0" type="line"/>
      <point x="522" y="0" type="line"/>
      <point x="522" y="80" type="line"/>
      <point x="154" y="80" type="line"/>
      <point x="78" y="74" type="line"/>
    </contour>
    <contour>
      <point x="218" y="-176" type="line"/>
      <point x="390" y="-176" type="line"/>
      <point x="390" y="0" type="line"/>
      <point x="576" y="500" type="line"/>
      <point x="412" y="500" type="line"/>
      <point x="344" y="288" type="line"/>
      <point x="328" y="234"/>
      <point x="318" y="192"/>
      <point x="306" y="142" type="curve"/>
      <point x="302" y="142" type="line"/>
      <point x="290" y="192"/>
      <point x="280" y="234"/>
      <point x="264" y="288" type="curve"/>
      <point x="196" y="500" type="line"/>
      <point x="24" y="500" type="line"/>
      <point x="218" y="0" type="line"/>
    </contour>
  </outline>
</glyph>
<glyph name="Hadescender" format="1">
  <advance width="600"/>
  <unicode hex="04B2"/>
  <outline>
    <contour>
      <point x="466" y="-188" type="line"/>
      <point x="596" y="-188" type="line"/>
      <point x="610" y="36" type="line"/>
      <point x="610" y="144" type="line"/>
      <point x="432" y="144" type="line"/>
      <point x="432" y="0" type="line"/>
      <point x="466" y="0" type="line"/>
    </contour>
    <component base="Ha"/>
  </outline>
</glyph>
<glyph name="hadescender" format="1">
  <advance width="600"/>
  <unicode hex="04B3"/>
  <outline>
    <contour>
      <point x="422" y="-172" type="line"/>
      <point x="568" y="-172" type="line"/>
      <point x="584" y="20" type="line"/>
      <point x="584" y="134" type="line"/>
      <point x="412" y="134" type="line"/>
      <point x="412" y="0" type="line"/>
      <point x="422" y="0" type="line"/>
    </contour>
    <component base="ha"/>
  </outline>
</glyph>
<glyph name="Chedescender" format="1">
  <advance width="600"/>
  <unicode hex="04B6"/>
  <outline>
    <contour>
      <point x="364" y="0" type="line"/>
      <point x="536" y="0" type="line"/>
      <point x="536" y="650" type="line"/>
      <point x="364" y="650" type="line"/>
      <point x="364" y="388" type="line"/>
      <point x="347.426367504" y="384.316970556"/>
      <point x="329.166666667" y="382.0"/>
      <point x="298" y="382" type="curve" smooth="yes"/>
      <point x="230.704545455" y="382.0"/>
      <point x="204" y="412.0"/>
      <point x="204" y="494" type="curve" smooth="yes"/>
      <point x="204" y="650" type="line"/>
      <point x="36" y="650" type="line"/>
      <point x="36" y="494" type="line" smooth="yes"/>
      <point x="36" y="312.0"/>
      <point x="127.243697479" y="246.0"/>
      <point x="280" y="246" type="curve" smooth="yes"/>
      <point x="317.333333333" y="246.0"/>
      <point x="337.828028563" y="248.261146938"/>
      <point x="364" y="252" type="curve"/>
    </contour>
    <contour>
      <point x="454" y="-188" type="line"/>
      <point x="598" y="-188" type="line"/>
      <point x="612" y="36" type="line"/>
      <point x="612" y="144" type="line"/>
      <point x="426" y="144" type="line"/>
      <point x="426" y="0" type="line"/>
      <point x="454" y="0" type="line"/>
    </contour>
  </outline>
</glyph>
<glyph name="chedescender" format="1">
  <advance width="600"/>
  <unicode hex="04B7"/>
  <outline>
    <contour>
      <point x="344" y="0" type="line"/>
      <point x="516" y="0" type="line"/>
      <point x="516" y="500" type="line"/>
      <point x="344" y="500" type="line"/>
      <point x="344" y="291" type="line"/>
      <point x="330" y="288"/>
      <point x="316" y="286"/>
      <point x="298" y="286" type="curve" smooth="yes"/>
      <point x="246" y="286"/>
      <point x="226" y="310"/>
      <point x="226" y="353" type="curve" smooth="yes"/>
      <point x="226" y="500" type="line"/>
      <point x="54" y="500" type="line"/>
      <point x="54" y="353" type="line" smooth="yes"/>
      <point x="54" y="208"/>
      <point x="144" y="152"/>
      <point x="260" y="152" type="curve" smooth="yes"/>
      <point x="300" y="152"/>
      <point x="320" y="154"/>
      <point x="344" y="159" type="curve"/>
    </contour>
    <contour>
      <point x="436" y="-172" type="line"/>
      <point x="582" y="-172" type="line"/>
      <point x="598" y="20" type="line"/>
      <point x="598" y="134" type="line"/>
      <point x="406" y="134" type="line"/>
      <point x="406" y="0" type="line"/>
      <point x="436" y="0" type="line"/>
    </contour>
  </outline>
</glyph>
<glyph name="iotaadscript" format="1">
  <advance width="600"/>
  <unicode hex="1FBE"/>
  <outline>
    <contour>
      <point x="364" y="-12" type="curve" smooth="yes"/>
      <point x="412" y="-12"/>
      <point x="438" y="-4"/>
      <point x="462" y="6" type="curve"/>
      <point x="442" y="132" type="line"/>
      <point x="432" y="128"/>
      <point x="418" y="126"/>
      <point x="410" y="126" type="curve" smooth="yes"/>
      <point x="380" y="126"/>
      <point x="362" y="136"/>
      <point x="362" y="170" type="curve" smooth="yes"/>
      <point x="362" y="224"/>
      <point x="368" y="334"/>
      <point x="374" y="420" type="curve"/>
      <point x="200" y="420" type="line"/>
      <point x="200" y="176" type="line" smooth="yes"/>
      <point x="200" y="64"/>
      <point x="238" y="-12"/>
    </contour>
  </outline>
</glyph>
<glyph name="exclamquestion" format="1">
  <advance width="600"/>
  <unicode hex="2049"/>
  <outline>
    <contour>
      <point x="348" y="264" type="curve"/>
      <point x="488" y="264" type="line"/>
      <point x="476" y="366"/>
      <point x="584" y="403"/>
      <point x="584" y="546" type="curve" smooth="yes"/>
      <point x="584" y="630"/>
      <point x="514" y="682"/>
      <point x="430" y="682" type="curve" smooth="yes"/>
      <point x="380" y="682"/>
      <point x="326" y="664"/>
      <point x="286" y="626" type="curve"/>
      <point x="360" y="528" type="line"/>
      <point x="372" y="540"/>
      <point x="380" y="544"/>
      <point x="394" y="544" type="curve" smooth="yes"/>
      <point x="407" y="544"/>
      <point x="420" y="534"/>
      <point x="420" y="510" type="curve" smooth="yes"/>
      <point x="420" y="440"/>
      <point x="326" y="382"/>
    </contour>
    <contour>
      <point x="426" y="-12" type="curve" smooth="yes"/>
      <point x="490" y="-12"/>
      <point x="536" y="35"/>
      <point x="536" y="99" type="curve" smooth="yes"/>
      <point x="536" y="163"/>
      <point x="490" y="208"/>
      <point x="426" y="208" type="curve" smooth="yes"/>
      <point x="362" y="208"/>
      <point x="316" y="163"/>
      <point x="316" y="99" type="curve" smooth="yes"/>
      <point x="316" y="35"/>
      <point x="362" y="-12"/>
    </contour>
    <component base="exclam" xOffset="-140"/>
  </outline>
</glyph>
<glyph name="dong" format="1">
  <advance width="600"/>
  <unicode hex="20AB"/>
  <outline>
    <contour>
      <point x="256.0" y="118.0" type="curve" smooth="yes"/>
      <point x="299.0" y="118.0"/>
      <point x="339.0" y="134.0"/>
      <point x="368.0" y="162.0" type="curve"/>
      <point x="372.0" y="162.0" type="line"/>
      <point x="382.0" y="128.0" type="line"/>
      <point x="498.0" y="128.0" type="line"/>
      <point x="498.0" y="646.0" type="line"/>
      <point x="358.0" y="646.0" type="line"/>
      <point x="358.0" y="512.0" type="line"/>
      <point x="364" y="452" type="line"/>
      <point x="360" y="452" type="line"/>
      <point x="334" y="476"/>
      <point x="306.078431373" y="488.0"/>
      <point x="260.0" y="488.0" type="curve" smooth="yes"/>
      <point x="175.0" y="488.0"/>
      <point x="84.0" y="422.0"/>
      <point x="84.0" y="308.0" type="curve" smooth="yes"/>
      <point x="84.0" y="186.0"/>
      <point x="152.0" y="118.0"/>
    </contour>
    <contour>
      <point x="292" y="230" type="curve" smooth="yes"/>
      <point x="254" y="230"/>
      <point x="228" y="252"/>
      <point x="228" y="307" type="curve" smooth="yes"/>
      <point x="228" y="352"/>
      <point x="263" y="374"/>
      <point x="296" y="374" type="curve" smooth="yes"/>
      <point x="320" y="374"/>
      <point x="339" y="368"/>
      <point x="358" y="354" type="curve"/>
      <point x="358" y="260" type="line"/>
      <point x="337" y="238"/>
      <point x="320" y="230"/>
    </contour>
    <contour>
      <point x="204" y="520" type="line"/>
      <point x="498" y="520" type="line"/>
      <point x="569" y="526" type="line"/>
      <point x="569" y="604" type="line"/>
      <point x="204" y="604" type="line"/>
    </contour>
    <contour>
      <point x="98" y="0" type="line"/>
      <point x="532" y="0" type="line"/>
      <point x="532" y="84" type="line"/>
      <point x="98" y="84" type="line"/>
    </contour>
  </outline>
</glyph>
<glyph name="rupeeindian" format="1">
  <advance width="600"/>
  <unicode hex="20B9"/>
  <outline>
    <contour>
      <point x="81" y="182" type="line"/>
      <point x="166" y="182" type="line" smooth="yes"/>
      <point x="320" y="182"/>
      <point x="450" y="249"/>
      <point x="450" y="414" type="curve" smooth="yes"/>
      <point x="450" y="472"/>
      <point x="423" y="518"/>
      <point x="377" y="550" type="curve"/>
      <point x="523" y="550" type="line"/>
      <point x="523" y="634" type="line"/>
      <point x="81" y="634" type="line"/>
      <point x="81" y="498" type="line"/>
      <point x="152" y="498" type="line" smooth="yes"/>
      <point x="236" y="498"/>
      <point x="282" y="478"/>
      <point x="282" y="414" type="curve" smooth="yes"/>
      <point x="282" y="351"/>
      <point x="236" y="318"/>
      <point x="152" y="318" type="curve" smooth="yes"/>
      <point x="81" y="318" type="line"/>
    </contour>
    <contour>
      <point x="81" y="370" type="line"/>
      <point x="523" y="370" type="line"/>
      <point x="523" y="454" type="line"/>
      <point x="164" y="454" type="line"/>
      <point x="81" y="448" type="line"/>
    </contour>
    <contour>
      <point x="315" y="0" type="line"/>
      <point x="506" y="0" type="line"/>
      <point x="250" y="301" type="line"/>
      <point x="135" y="217" type="line"/>
    </contour>
  </outline>
</glyph>
<glyph name="liraturkish" format="1">
  <advance width="600"/>
  <unicode hex="20BA"/>
  <outline>
    <contour>
      <point x="106" y="-12" type="line"/>
      <point x="396" y="-20"/>
      <point x="556" y="84"/>
      <point x="556" y="271" type="curve" smooth="yes"/>
      <point x="556" y="280"/>
      <point x="554" y="301"/>
      <point x="549" y="320" type="curve"/>
      <point x="408" y="288" type="line"/>
      <point x="411" y="275"/>
      <point x="411" y="267"/>
      <point x="411" y="264" type="curve" smooth="yes"/>
      <point x="411" y="206"/>
      <point x="354" y="157"/>
      <point x="278" y="148" type="curve"/>
      <point x="278" y="288" type="line"/>
      <point x="449" y="372" type="line"/>
      <point x="409" y="444" type="line"/>
      <point x="278" y="380" type="line"/>
      <point x="278" y="428" type="line"/>
      <point x="449" y="512" type="line"/>
      <point x="409" y="584" type="line"/>
      <point x="278" y="520" type="line"/>
      <point x="278" y="634" type="line"/>
      <point x="106" y="634" type="line"/>
      <point x="106" y="436" type="line"/>
      <point x="8" y="388" type="line"/>
      <point x="48" y="316" type="line"/>
      <point x="106" y="344" type="line"/>
      <point x="106" y="296" type="line"/>
      <point x="8" y="248" type="line"/>
      <point x="48" y="176" type="line"/>
      <point x="106" y="204" type="line"/>
    </contour>
  </outline>
</glyph>
<glyph name="arrowdown" format="1">
  <advance width="600"/>
  <unicode hex="2193"/>
  <outline>
    <contour>
      <point x="298" y="-26" type="line"/>
      <point x="302" y="-26" type="line"/>
      <point x="570" y="254" type="line"/>
      <point x="478" y="334" type="line"/>
      <point x="368" y="204" type="line"/>
      <point x="368" y="530" type="line"/>
      <point x="232" y="530" type="line"/>
      <point x="232" y="204" type="line"/>
      <point x="122" y="334" type="line"/>
      <point x="30" y="254" type="line"/>
    </contour>
  </outline>
</glyph>
<glyph name="arrowdownleft" format="1">
  <advance width="600"/>
  <unicode hex="2199"/>
  <outline>
    <contour>
      <point x="105" y="54" type="line"/>
      <point x="492" y="62" type="line"/>
      <point x="484" y="184" type="line"/>
      <point x="314" y="170" type="line"/>
      <point x="545" y="400" type="line"/>
      <point x="448" y="497" type="line"/>
      <point x="218" y="266" type="line"/>
      <point x="232" y="436" type="line"/>
      <point x="110" y="444" type="line"/>
      <point x="102" y="57" type="line"/>
    </contour>
  </outline>
</glyph>
<glyph name="intersection" format="1">
  <advance width="600"/>
  <unicode hex="2229"/>
  <outline>
    <contour>
      <point x="64" y="90" type="line"/>
      <point x="188" y="90" type="line"/>
      <point x="188" y="332" type="line" smooth="yes"/>
      <point x="188" y="416"/>
      <point x="232" y="462"/>
      <point x="300" y="462" type="curve" smooth="yes"/>
      <point x="368" y="462"/>
      <point x="412" y="416"/>
      <point x="412" y="332" type="curve" smooth="yes"/>
      <point x="412" y="90" type="line"/>
      <point x="536" y="90" type="line"/>
      <point x="536" y="344" type="line" smooth="yes"/>
      <point x="536" y="489"/>
      <point x="436" y="584"/>
      <point x="300" y="584" type="curve" smooth="yes"/>
      <point x="164" y="584"/>
      <point x="64" y="489"/>
      <point x="64" y="344" type="curve" smooth="yes"/>
    </contour>
  </outline>
</glyph>
<glyph name="house" format="1">
  <advance width="600"/>
  <unicode hex="2302"/>
  <outline>
    <contour>
      <point x="30" y="0" type="line"/>
      <point x="570" y="0" type="line"/>
      <point x="570" y="360" type="line"/>
      <point x="368" y="670" type="line"/>
      <point x="232" y="670" type="line"/>
      <point x="30" y="360" type="line"/>
    </contour>
    <contour>
      <point x="170" y="114" type="line"/>
      <point x="170" y="322" type="line"/>
      <point x="236" y="434" type="line"/>
      <point x="298" y="544" type="line"/>
      <point x="302" y="544" type="line"/>
      <point x="364" y="434" type="line"/>
      <point x="430" y="322" type="line"/>
      <point x="430" y="114" type="line"/>
    </contour>
  </outline>
</glyph>
<glyph name="heavyhorzbxd" format="1">
  <advance width="600"/>
  <unicode hex="2501"/>
  <outline>
    <contour>
      <point x="-80" y="140" type="line"/>
      <point x="680" y="140" type="line"/>
      <point x="680" y="460" type="line"/>
      <point x="-80" y="460" type="line"/>
    </contour>
  </outline>
</glyph>
<glyph name="heavyvertbxd" format="1">
  <advance width="600"/>
  <unicode hex="2503"/>
  <outline>
    <contour>
      <point x="140" y="-400" type="line"/>
      <point x="460" y="-400" type="line"/>
      <point x="460" y="1000" type="line"/>
      <point x="140" y="1000" type="line"/>
    </contour>
  </outline>
</glyph>
<glyph name="dnheavyrightlightbxd" format="1">
  <advance width="600"/>
  <unicode hex="250E"/>
  <outline>
    <contour>
      <point x="140" y="-400" type="line"/>
      <point x="460" y="-400" type="line"/>
      <point x="460" y="220" type="line"/>
      <point x="680" y="220" type="line"/>
      <point x="680" y="380" type="line"/>
      <point x="140" y="380" type="line"/>
    </contour>
  </outline>
</glyph>
<glyph name="heavydnrightbxd" format="1">
  <advance width="600"/>
  <unicode hex="250F"/>
  <outline>
    <contour>
      <point x="140" y="-400" type="line"/>
      <point x="460" y="-400" type="line"/>
      <point x="460" y="140" type="line"/>
      <point x="680" y="140" type="line"/>
      <point x="680" y="460" type="line"/>
      <point x="140" y="460" type="line"/>
    </contour>
  </outline>
</glyph>
<glyph name="lightvertrightbxd" format="1">
  <advance width="600"/>
  <unicode hex="251C"/>
  <outline>
    <contour>
      <point x="220" y="-400" type="line"/>
      <point x="380" y="-400" type="line"/>
      <point x="380" y="220" type="line"/>
      <point x="680" y="220" type="line"/>
      <point x="680" y="380" type="line"/>
      <point x="380" y="380" type="line"/>
      <point x="380" y="1000" type="line"/>
      <point x="220" y="1000" type="line"/>
    </contour>
  </outline>
</glyph>
<glyph name="dnheavyrightuplightbxd" format="1">
  <advance width="600"/>
  <unicode hex="251F"/>
  <outline>
    <contour>
      <point x="140" y="-400" type="line"/>
      <point x="460" y="-400" type="line"/>
      <point x="460" y="220" type="line"/>
      <point x="680" y="220" type="line"/>
      <point x="680" y="380" type="line"/>
      <point x="380" y="380" type="line"/>
      <point x="380" y="1000" type="line"/>
      <point x="220" y="1000" type="line"/>
      <point x="220" y="380" type="line"/>
      <point x="140" y="380" type="line"/>
    </contour>
  </outline>
</glyph>
<glyph name="dnlightrightupheavybxd" format="1">
	<unicode hex="2521"/>
	<advance width="600"/>
	<outline>
		<contour>
			<point x="680" y="140" type="line"/>
			<point x="680" y="460" type="line"/>
			<point x="460" y="460" type="line"/>
			<point x="460" y="1000" type="line"/>
			<point x="140" y="1000" type="line"/>
			<point x="140" y="140" type="line"/>
			<point x="220" y="140" type="line"/>
			<point x="220" y="-400" type="line"/>
			<point x="380" y="-400" type="line"/>
			<point x="380" y="140" type="line"/>
		</contour>
	</outline>
</glyph>
<glyph name="rightheavyleftdnlightbxd" format="1">
  <advance width="600"/>
  <unicode hex="252E"/>
  <outline>
    <contour>
      <point x="-80" y="220" type="line"/>
      <point x="220" y="220" type="line"/>
      <point x="220" y="-400" type="line"/>
      <point x="380" y="-400" type="line"/>
      <point x="380" y="140" type="line"/>
      <point x="680" y="140" type="line"/>
      <point x="680" y="460" type="line"/>
      <point x="220" y="460" type="line"/>
      <point x="220" y="380" type="line"/>
      <point x="-80" y="380" type="line"/>
    </contour>
  </outline>
</glyph>
<glyph name="dnlighthorzheavybxd" format="1">
  <advance width="600"/>
  <unicode hex="252F"/>
  <outline>
    <contour>
      <point x="-80" y="140" type="line"/>
      <point x="220" y="140" type="line"/>
      <point x="220" y="-400" type="line"/>
      <point x="380" y="-400" type="line"/>
      <point x="380" y="140" type="line"/>
      <point x="680" y="140" type="line"/>
      <point x="680" y="460" type="line"/>
      <point x="-80" y="460" type="line"/>
    </contour>
  </outline>
</glyph>
<glyph name="heavydnhorzbxd" format="1">
  <advance width="600"/>
  <unicode hex="2533"/>
  <outline>
    <contour>
      <point x="-80" y="140" type="line"/>
      <point x="140" y="140" type="line"/>
      <point x="140" y="-400" type="line"/>
      <point x="460" y="-400" type="line"/>
      <point x="460" y="140" type="line"/>
      <point x="680" y="140" type="line"/>
      <point x="680" y="460" type="line"/>
      <point x="-80" y="460" type="line"/>
    </contour>
  </outline>
</glyph>
<glyph name="uplighthorzheavybxd" format="1">
  <advance width="600"/>
  <unicode hex="2537"/>
  <outline>
    <contour>
      <point x="-80" y="140" type="line"/>
      <point x="680" y="140" type="line"/>
      <point x="680" y="460" type="line"/>
      <point x="380" y="460" type="line"/>
      <point x="380" y="1000" type="line"/>
      <point x="220" y="1000" type="line"/>
      <point x="220" y="460" type="line"/>
      <point x="-80" y="460" type="line"/>
    </contour>
  </outline>
</glyph>
<glyph name="lightdbldashhorzbxd" format="1">
  <advance width="600"/>
  <unicode hex="254C"/>
  <outline>
    <contour>
      <point x="75" y="220" type="line"/>
      <point x="225" y="220" type="line"/>
      <point x="225" y="380" type="line"/>
      <point x="75" y="380" type="line"/>
    </contour>
    <contour>
      <point x="375" y="220" type="line"/>
      <point x="525" y="220" type="line"/>
      <point x="525" y="380" type="line"/>
      <point x="375" y="380" type="line"/>
    </contour>
  </outline>
</glyph>
<glyph name="dblvertbxd" format="1">
  <advance width="600"/>
  <unicode hex="2551"/>
  <outline>
    <contour>
      <point x="60" y="-400" type="line"/>
      <point x="220" y="-400" type="line"/>
      <point x="220" y="1000" type="line"/>
      <point x="60" y="1000" type="line"/>
    </contour>
    <contour>
      <point x="380" y="-400" type="line"/>
      <point x="540" y="-400" type="line"/>
      <point x="540" y="1000" type="line"/>
      <point x="380" y="1000" type="line"/>
    </contour>
  </outline>
</glyph>
<glyph name="vertdblhorzsngbxd" format="1">
  <advance width="600"/>
  <unicode hex="256B"/>
  <outline>
    <contour>
      <point x="-80" y="220" type="line"/>
      <point x="60" y="220" type="line"/>
      <point x="60" y="-400" type="line"/>
      <point x="220" y="-400" type="line"/>
      <point x="220" y="220" type="line"/>
      <point x="380" y="220" type="line"/>
      <point x="380" y="-400" type="line"/>
      <point x="540" y="-400" type="line"/>
      <point x="540" y="220" type="line"/>
      <point x="680" y="220" type="line"/>
      <point x="680" y="380" type="line"/>
      <point x="540" y="380" type="line"/>
      <point x="540" y="1000" type="line"/>
      <point x="380" y="1000" type="line"/>
      <point x="380" y="380" type="line"/>
      <point x="220" y="380" type="line"/>
      <point x="220" y="1000" type="line"/>
      <point x="60" y="1000" type="line"/>
      <point x="60" y="380" type="line"/>
      <point x="-80" y="380" type="line"/>
    </contour>
  </outline>
</glyph>
<glyph name="lightdiaguprightdnleftbxd" format="1">
  <advance width="600"/>
  <unicode hex="2571"/>
  <outline>
    <contour>
      <point x="-80" y="-120" type="line"/>
      <point x="-80" y="-280" type="line"/>
      <point x="80" y="-280" type="line"/>
      <point x="680" y="720" type="line"/>
      <point x="680" y="880" type="line"/>
      <point x="520" y="880" type="line"/>
    </contour>
  </outline>
</glyph>
<glyph name="lightdiagupleftdnrightbxd" format="1">
  <advance width="600"/>
  <unicode hex="2572"/>
  <outline>
    <contour>
      <point x="80" y="880" type="line"/>
      <point x="-80" y="880" type="line"/>
      <point x="-80" y="720" type="line"/>
      <point x="520" y="-280" type="line"/>
      <point x="680" y="-280" type="line"/>
      <point x="680" y="-120" type="line"/>
    </contour>
  </outline>
</glyph>
<glyph name="lightrightbxd" format="1">
  <advance width="600"/>
  <unicode hex="2576"/>
  <outline>
    <contour>
      <point x="220" y="220" type="line"/>
      <point x="680" y="220" type="line"/>
      <point x="680" y="380" type="line"/>
      <point x="220" y="380" type="line"/>
    </contour>
  </outline>
</glyph>
<glyph name="heavydnbxd" format="1">
  <advance width="600"/>
  <unicode hex="257B"/>
  <outline>
    <contour>
      <point x="140" y="-400" type="line"/>
      <point x="460" y="-400" type="line"/>
      <point x="460" y="380" type="line"/>
      <point x="140" y="380" type="line"/>
    </contour>
  </outline>
</glyph>
<glyph name="dneighthblock" format="1">
  <advance width="600"/>
  <unicode hex="2581"/>
  <outline>
    <contour>
      <point x="0" y="-200" type="line"/>
      <point x="600" y="-200" type="line"/>
      <point x="600" y="-75" type="line"/>
      <point x="0" y="-75" type="line"/>
    </contour>
  </outline>
</glyph>
<glyph name="fullblock" format="1">
	<unicode hex="2588"/>
	<advance width="600"/>
	<outline>
		<contour>
			<point x="0" y="-400" type="line"/>
			<point x="600" y="-400" type="line"/>
			<point x="600" y="1000" type="line"/>
			<point x="0" y="1000" type="line"/>
		</contour>
	</outline>
</glyph>
<glyph name="leftthreequartersblock" format="1">
	<unicode hex="258A"/>
	<advance width="600"/>
	<outline>
		<contour>
			<point x="0" y="-400" type="line"/>
			<point x="450" y="-400" type="line"/>
			<point x="450" y="1000" type="line"/>
			<point x="0" y="1000" type="line"/>
		</contour>
	</outline>
</glyph>
<glyph name="lefthalfblock" format="1">
  <advance width="600"/>
  <unicode hex="258C"/>
  <outline>
    <contour>
      <point x="0" y="-200" type="line"/>
      <point x="300" y="-200" type="line"/>
      <point x="300" y="800" type="line"/>
      <point x="0" y="800" type="line"/>
    </contour>
  </outline>
</glyph>
<glyph name="leftquarterblock" format="1">
  <advance width="600"/>
  <unicode hex="258E"/>
  <outline>
    <contour>
      <point x="0" y="-200" type="line"/>
      <point x="150" y="-200" type="line"/>
      <point x="150" y="800" type="line"/>
      <point x="0" y="800" type="line"/>
    </contour>
  </outline>
</glyph>
<glyph name="upleftquadrant" format="1">
  <advance width="600"/>
  <unicode hex="2598"/>
  <outline>
    <contour>
      <point x="0" y="300" type="line"/>
      <point x="300" y="300" type="line"/>
      <point x="300" y="800" type="line"/>
      <point x="0" y="800" type="line"/>
    </contour>
  </outline>
</glyph>
<glyph name="upleftuprightdnrightquadrant" format="1">
	<unicode hex="259C"/>
	<advance width="600"/>
	<outline>
		<contour>
			<point x="600" y="-400" type="line"/>
			<point x="600" y="1000" type="line"/>
			<point x="0" y="1000" type="line"/>
			<point x="0" y="300" type="line"/>
			<point x="300" y="300" type="line"/>
			<point x="300" y="-400" type="line"/>
		</contour>
	</outline>
</glyph>
<glyph name="trianglewhitedown" format="1">
  <advance width="600"/>
  <unicode hex="25BD"/>
  <outline>
    <contour>
      <point x="298" y="80" type="line"/>
      <point x="302" y="80" type="line"/>
      <point x="534" y="556" type="line"/>
      <point x="534" y="560" type="line"/>
      <point x="66" y="560" type="line"/>
      <point x="66" y="556" type="line"/>
    </contour>
    <contour>
      <point x="300" y="286" type="line"/>
      <point x="214" y="474" type="line"/>
      <point x="386" y="474" type="line"/>
    </contour>
  </outline>
</glyph>
<glyph name="fisheye" format="1">
  <advance width="600"/>
  <unicode hex="25C9"/>
  <outline>
    <contour>
      <point x="300" y="86" type="curve" smooth="yes"/>
      <point x="440" y="86"/>
      <point x="544" y="188"/>
      <point x="544" y="330" type="curve" smooth="yes"/>
      <point x="544" y="472"/>
      <point x="440" y="574"/>
      <point x="300" y="574" type="curve" smooth="yes"/>
      <point x="160" y="574"/>
      <point x="56" y="472"/>
      <point x="56" y="330" type="curve" smooth="yes"/>
      <point x="56" y="188"/>
      <point x="160" y="86"/>
    </contour>
    <contour>
      <point x="300" y="166" type="curve" smooth="yes"/>
      <point x="208" y="166"/>
      <point x="140" y="235"/>
      <point x="140" y="330" type="curve" smooth="yes"/>
      <point x="140" y="425"/>
      <point x="208" y="494"/>
      <point x="300" y="494" type="curve" smooth="yes"/>
      <point x="392" y="494"/>
      <point x="460" y="425"/>
      <point x="460" y="330" type="curve" smooth="yes"/>
      <point x="460" y="235"/>
      <point x="392" y="166"/>
    </contour>
    <contour>
      <point x="300" y="218" type="curve" smooth="yes"/>
      <point x="361" y="218"/>
      <point x="408" y="268"/>
      <point x="408" y="330" type="curve" smooth="yes"/>
      <point x="408" y="392"/>
      <point x="361" y="442"/>
      <point x="300" y="442" type="curve" smooth="yes"/>
      <point x="239" y="442"/>
      <point x="192" y="392"/>
      <point x="192" y="330" type="curve" smooth="yes"/>
      <point x="192" y="268"/>
      <point x="239" y="218"/>
    </contour>
  </outline>
</glyph>
<glyph name="invsmileface" format="1">
  <advance width="600"/>
  <unicode hex="263B"/>
  <outline>
    <contour>
      <point x="300" y="44" type="curve" smooth="yes"/>
      <point x="472" y="44"/>
      <point x="590" y="162"/>
      <point x="590" y="330" type="curve" smooth="yes"/>
      <point x="590" y="498"/>
      <point x="472" y="616"/>
      <point x="300" y="616" type="curve" smooth="yes"/>
      <point x="128" y="616"/>
      <point x="10" y="498"/>
      <point x="10" y="330" type="curve" smooth="yes"/>
      <point x="10" y="162"/>
      <point x="128" y="44"/>
    </contour>
    <contour>
      <point x="206" y="344" type="curve" smooth="yes"/>
      <point x="166" y="344"/>
      <point x="140" y="374"/>
      <point x="140" y="414" type="curve" smooth="yes"/>
      <point x="140" y="454"/>
      <point x="166" y="484"/>
      <point x="206" y="484" type="curve" smooth="yes"/>
      <point x="246" y="484"/>
      <point x="272" y="454"/>
      <point x="272" y="414" type="curve" smooth="yes"/>
      <point x="272" y="374"/>
      <point x="246" y="344"/>
    </contour>
    <contour>
      <point x="394" y="344" type="curve" smooth="yes"/>
      <point x="354" y="344"/>
      <point x="328" y="374"/>
      <point x="328" y="414" type="curve" smooth="yes"/>
      <point x="328" y="454"/>
      <point x="354" y="484"/>
      <point x="394" y="484" type="curve" smooth="yes"/>
      <point x="434" y="484"/>
      <point x="460" y="454"/>
      <point x="460" y="414" type="curve" smooth="yes"/>
      <point x="460" y="374"/>
      <point x="434" y="344"/>
    </contour>
    <contour>
      <point x="300" y="140" type="curve" smooth="yes"/>
      <point x="210" y="140"/>
      <point x="152" y="190"/>
      <point x="132" y="260" type="curve"/>
      <point x="198" y="290" type="line"/>
      <point x="214" y="250"/>
      <point x="250" y="222"/>
      <point x="300" y="222" type="curve" smooth="yes"/>
      <point x="350" y="222"/>
      <point x="386" y="250"/>
      <point x="402" y="290" type="curve"/>
      <point x="468" y="260" type="line"/>
      <point x="448" y="190"/>
      <point x="391" y="140"/>
    </contour>
  </outline>
</glyph>
<glyph name="sun" format="1">
  <advance width="600"/>
  <unicode hex="263C"/>
  <outline>
    <contour>
      <point x="300" y="108" type="curve" smooth="yes"/>
      <point x="420" y="108"/>
      <point x="530" y="217"/>
      <point x="530" y="330" type="curve" smooth="yes"/>
      <point x="530" y="443"/>
      <point x="420" y="552"/>
      <point x="300" y="552" type="curve" smooth="yes"/>
      <point x="180" y="552"/>
      <point x="70" y="443"/>
      <point x="70" y="330" type="curve" smooth="yes"/>
      <point x="70" y="217"/>
      <point x="180" y="108"/>
    </contour>
    <contour>
      <point x="300" y="212" type="curve" smooth="yes"/>
      <point x="232" y="212"/>
      <point x="184" y="261"/>
      <point x="184" y="330" type="curve" smooth="yes"/>
      <point x="184" y="399"/>
      <point x="232" y="448"/>
      <point x="300" y="448" type="curve" smooth="yes"/>
      <point x="368" y="448"/>
      <point x="416" y="399"/>
      <point x="416" y="330" type="curve" smooth="yes"/>
      <point x="416" y="261"/>
      <point x="368" y="212"/>
    </contour>
    <contour>
      <point x="238" y="520" type="line"/>
      <point x="362" y="520" type="line"/>
      <point x="362" y="650" type="line"/>
      <point x="238" y="650" type="line"/>
    </contour>
    <contour>
      <point x="128" y="412" type="line"/>
      <point x="212" y="496" type="line"/>
      <point x="110" y="600" type="line"/>
      <point x="26" y="516" type="line"/>
    </contour>
    <contour>
      <point x="470" y="414" type="line"/>
      <point x="574" y="516" type="line"/>
      <point x="490" y="600" type="line"/>
      <point x="386" y="498" type="line"/>
    </contour>
    <contour>
      <point x="-16" y="270" type="line"/>
      <point x="134" y="270" type="line"/>
      <point x="114" y="390" type="line"/>
      <point x="-16" y="390" type="line"/>
    </contour>
    <contour>
      <point x="486" y="270" type="line"/>
      <point x="616" y="270" type="line"/>
      <point x="616" y="390" type="line"/>
      <point x="486" y="390" type="line"/>
    </contour>
    <contour>
      <point x="110" y="58" type="line"/>
      <point x="214" y="160" type="line"/>
      <point x="130" y="244" type="line"/>
      <point x="26" y="142" type="line"/>
    </contour>
    <contour>
      <point x="490" y="58" type="line"/>
      <point x="574" y="142" type="line"/>
      <point x="472" y="246" type="line"/>
      <point x="388" y="162" type="line"/>
    </contour>
    <contour>
      <point x="238" y="10" type="line"/>
      <point x="362" y="10" type="line"/>
      <point x="362" y="140" type="line"/>
      <point x="238" y="140" type="line"/>
    </contour>
  </outline>
</glyph>
<glyph name="male" format="1">
  <advance width="600"/>
  <unicode hex="2642"/>
  <outline>
    <contour>
      <point x="240" y="-12" type="curve" smooth="yes"/>
      <point x="394" y="-12"/>
      <point x="500" y="94"/>
      <point x="500" y="234" type="curve" smooth="yes"/>
      <point x="500" y="372"/>
      <point x="394" y="480"/>
      <point x="240" y="480" type="curve" smooth="yes"/>
      <point x="86" y="480"/>
      <point x="-20" y="372"/>
      <point x="-20" y="234" type="curve" smooth="yes"/>
      <point x="-20" y="94"/>
      <point x="86" y="-12"/>
    </contour>
    <contour>
      <point x="240" y="94" type="curve" smooth="yes"/>
      <point x="162" y="94"/>
      <point x="108" y="153"/>
      <point x="108" y="234" type="curve" smooth="yes"/>
      <point x="108" y="314"/>
      <point x="162" y="374"/>
      <point x="240" y="374" type="curve" smooth="yes"/>
      <point x="319" y="374"/>
      <point x="374" y="314"/>
      <point x="374" y="234" type="curve" smooth="yes"/>
      <point x="374" y="153"/>
      <point x="319" y="94"/>
    </contour>
    <contour>
      <point x="406" y="327" type="line"/>
      <point x="526" y="458" type="line"/>
      <point x="518" y="348" type="line"/>
      <point x="630" y="348" type="line"/>
      <point x="632" y="647" type="line"/>
      <point x="629" y="650" type="line"/>
      <point x="330" y="648" type="line"/>
      <point x="330" y="536" type="line"/>
      <point x="440" y="544" type="line"/>
      <point x="309" y="424" type="line"/>
    </contour>
  </outline>
</glyph>
<glyph name="spade" format="1">
  <advance width="600"/>
  <unicode hex="2660"/>
  <outline>
    <contour>
      <point x="92" y="-106" type="line"/>
      <point x="508" y="-106" type="line"/>
      <point x="508" y="-42" type="line"/>
      <point x="408" y="-28"/>
      <point x="352" y="22"/>
      <point x="332" y="166" type="curve"/>
      <point x="268" y="166" type="line"/>
      <point x="248" y="22"/>
      <point x="192" y="-28"/>
      <point x="92" y="-42" type="curve"/>
    </contour>
    <contour>
      <point x="258" y="142" type="curve"/>
      <point x="342" y="142" type="line"/>
      <point x="372" y="74"/>
      <point x="416" y="52"/>
      <point x="468" y="52" type="curve" smooth="yes"/>
      <point x="545" y="52"/>
      <point x="604" y="95"/>
      <point x="604" y="188" type="curve" smooth="yes"/>
      <point x="604" y="308"/>
      <point x="538" y="372"/>
      <point x="302" y="622" type="curve"/>
      <point x="298" y="622" type="line"/>
      <point x="62" y="372"/>
      <point x="-4" y="308"/>
      <point x="-4" y="188" type="curve" smooth="yes"/>
      <point x="-4" y="95"/>
      <point x="55" y="52"/>
      <point x="132" y="52" type="curve" smooth="yes"/>
      <point x="184" y="52"/>
      <point x="228" y="74"/>
    </contour>
  </outline>
</glyph>
<glyph name="musicalnotedbl" format="1">
  <advance width="600"/>
  <unicode hex="266B"/>
  <outline>
    <contour>
      <point x="96" y="-30" type="curve" smooth="yes"/>
      <point x="217" y="-30"/>
      <point x="288" y="44"/>
      <point x="288" y="182" type="curve"/>
      <point x="288" y="508" type="line"/>
      <point x="286" y="674" type="line"/>
      <point x="196" y="674" type="line"/>
      <point x="196" y="186" type="line"/>
      <point x="188" y="192"/>
      <point x="163" y="198"/>
      <point x="136" y="198" type="curve" smooth="yes"/>
      <point x="52" y="198"/>
      <point x="-16" y="136"/>
      <point x="-16" y="60" type="curve" smooth="yes"/>
      <point x="-16" y="-4"/>
      <point x="42" y="-30"/>
    </contour>
    <contour>
      <point x="436" y="10" type="curve" smooth="yes"/>
      <point x="557" y="10"/>
      <point x="628" y="84"/>
      <point x="628" y="222" type="curve"/>
      <point x="628" y="714" type="line"/>
      <point x="536" y="714" type="line"/>
      <point x="536" y="226" type="line"/>
      <point x="528" y="232"/>
      <point x="503" y="238"/>
      <point x="476" y="238" type="curve" smooth="yes"/>
      <point x="393" y="238"/>
      <point x="324" y="176"/>
      <point x="324" y="100" type="curve" smooth="yes"/>
      <point x="324" y="36"/>
      <point x="382" y="10"/>
    </contour>
    <contour>
      <point x="196" y="492" type="line"/>
      <point x="628" y="552" type="line"/>
      <point x="628" y="734" type="line"/>
      <point x="196" y="674" type="line"/>
    </contour>
  </outline>
</glyph>
<glyph name="brackhalfbotright" format="1">
  <advance width="600"/>
  <unicode hex="2E25"/>
  <outline>
    <contour>
      <point x="106" y="-152" type="line"/>
      <point x="410" y="-152" type="line"/>
      <point x="410" y="278" type="line"/>
      <point x="280" y="278" type="line"/>
      <point x="280" y="-62" type="line"/>
      <point x="106" y="-62" type="line"/>
    </contour>
  </outline>
</glyph>
<glyph name="C" format="1">
	<advance width="600"/>
	<outline>
		<contour>
			<point x="358" y="-12" type="curve" smooth="yes"/>
			<point x="446" y="-12"/>
			<point x="522" y="20"/>
			<point x="576" y="84" type="curve"/>
			<point x="482" y="188" type="line"/>
			<point x="454" y="158"/>
			<point x="418" y="136"/>
			<point x="376" y="136" type="curve" smooth="yes"/>
			<point x="288" y="136"/>
			<point x="226" y="204"/>
			<point x="226" y="326" type="curve" smooth="yes"/>
			<point x="226" y="444"/>
			<point x="288" y="514"/>
			<point x="368" y="514" type="curve" smooth="yes"/>
			<point x="412" y="514"/>
			<point x="444" y="498"/>
			<point x="474" y="472" type="curve"/>
			<point x="568" y="578" type="line"/>
			<point x="522" y="622"/>
			<point x="452" y="662"/>
			<point x="368" y="662" type="curve" smooth="yes"/>
			<point x="192" y="662"/>
			<point x="50" y="538"/>
			<point x="50" y="320" type="curve" smooth="yes"/>
			<point x="50" y="98"/>
			<point x="196" y="-12"/>
		</contour>
		<contour>
			<point name="aboveUC" x="356" y="670" type="move"/>
		</contour>
		<contour>
			<point name="baseLC" x="340" y="0" type="move"/>
		</contour>
		<contour>
			<point name="belowLC" x="340" y="-20" type="move"/>
		</contour>
	</outline>
</glyph>
<glyph name="Dcroat" format="1">
	<advance width="600"/>
	<outline>
		<component base="Eth"/>
		<contour>
			<point name="aboveUC" x="296" y="670" type="move"/>
		</contour>
		<contour>
			<point name="belowLC" x="290" y="-20" type="move"/>
		</contour>
	</outline>
</glyph>
<glyph name="De" format="1">
	<advance width="600"/>
	<outline>
		<contour>
			<point x="22" y="-188" type="line"/>
			<point x="176" y="-188" type="line"/>
			<point x="176" y="0" type="line"/>
			<point x="424" y="0" type="line"/>
			<point x="424" y="-188" type="line"/>
			<point x="578" y="-188" type="line"/>
			<point x="592" y="36" type="line"/>
			<point x="592" y="144" type="line"/>
			<point x="8" y="144" type="line"/>
			<point x="8" y="36" type="line"/>
		</contour>
		<contour>
			<point x="339" y="0" type="line"/>
			<point x="511" y="0" type="line"/>
			<point x="511" y="650" type="line"/>
			<point x="153" y="650" type="line"/>
			<point x="138" y="532"/>
			<point x="128" y="474"/>
			<point x="110" y="366" type="curve" smooth="yes"/>
			<point x="85" y="215"/>
			<point x="62" y="152"/>
			<point x="37" y="144" type="curve"/>
			<point x="59" y="36" type="line"/>
			<point x="169" y="36"/>
			<point x="230" y="148"/>
			<point x="262" y="344" type="curve" smooth="yes"/>
			<point x="274" y="418"/>
			<point x="276" y="438"/>
			<point x="285" y="506" type="curve"/>
			<point x="339" y="506" type="line"/>
		</contour>
	</outline>
</glyph>
<glyph name="E" format="1">
  <advance width="600"/>
  <outline>
    <contour>
      <point x="84" y="0" type="line"/>
      <point x="536" y="0" type="line"/>
      <point x="536" y="144" type="line"/>
      <point x="256" y="144" type="line"/>
      <point x="256" y="260" type="line"/>
      <point x="486" y="260" type="line"/>
      <point x="486" y="404" type="line"/>
      <point x="256" y="404" type="line"/>
      <point x="256" y="506" type="line"/>
      <point x="526" y="506" type="line"/>
      <point x="526" y="650" type="line"/>
      <point x="84" y="650" type="line"/>
    </contour>
    <contour>
      <point x="320" y="670" type="move" name="aboveUC"/>
    </contour>
    <contour>
      <point x="320" y="-20" type="move" name="belowLC"/>
    </contour>
    <contour>
      <point x="320" y="0" type="move" name="baseLC"/>
    </contour>
    <contour>
      <point x="430" y="0" type="move" name="ogonekUC"/>
    </contour>
  </outline>
</glyph>
<glyph name="Eng.a" format="1">
  <advance width="600"/>
  <outline>
    <contour>
      <point x="370" y="-188" type="curve" smooth="yes"/>
      <point x="497" y="-188"/>
      <point x="540" y="-86"/>
      <point x="540" y="26" type="curve"/>
      <point x="540" y="650" type="line"/>
      <point x="376" y="650" type="line"/>
      <point x="376" y="462" type="line" smooth="yes"/>
      <point x="376" y="382"/>
      <point x="392" y="284"/>
      <point x="400" y="214" type="curve"/>
      <point x="396" y="214" type="line"/>
      <point x="343" y="360" type="line"/>
      <point x="234" y="650" type="line"/>
      <point x="60" y="650" type="line"/>
      <point x="60" y="0" type="line"/>
      <point x="224" y="0" type="line"/>
      <point x="224" y="188" type="line" smooth="yes"/>
      <point x="224" y="268"/>
      <point x="208" y="362"/>
      <point x="200" y="436" type="curve"/>
      <point x="204" y="436" type="line"/>
      <point x="257" y="291" type="line"/>
      <point x="366" y="0" type="line"/>
      <point x="376" y="0" type="line"/>
      <point x="376" y="-28"/>
      <point x="366" y="-54"/>
      <point x="338" y="-54" type="curve" smooth="yes"/>
      <point x="327" y="-54"/>
      <point x="319" y="-52"/>
      <point x="306" y="-48" type="curve"/>
      <point x="276" y="-174" type="line"/>
      <point x="298" y="-182"/>
      <point x="324" y="-188"/>
    </contour>
    <contour>
      <point x="310" y="670" type="move" name="aboveUC"/>
    </contour>
  </outline>
</glyph>
<glyph name="Eng" format="1">
  <advance width="600"/>
  <outline>
    <contour>
      <point x="354" y="-12" type="curve" smooth="yes"/>
      <point x="511" y="-12"/>
      <point x="558" y="105"/>
      <point x="558" y="330" type="curve" smooth="yes"/>
      <point x="558" y="572"/>
      <point x="473" y="662"/>
      <point x="359" y="662" type="curve" smooth="yes"/>
      <point x="304" y="662"/>
      <point x="263" y="641"/>
      <point x="224" y="594" type="curve"/>
      <point x="224" y="650" type="line"/>
      <point x="58" y="650" type="line"/>
      <point x="58" y="0" type="line"/>
      <point x="230" y="0" type="line"/>
      <point x="230" y="448" type="line"/>
      <point x="254" y="494"/>
      <point x="284" y="514"/>
      <point x="314" y="514" type="curve" smooth="yes"/>
      <point x="358" y="514"/>
      <point x="382" y="461"/>
      <point x="382" y="330" type="curve" smooth="yes"/>
      <point x="382" y="176"/>
      <point x="369" y="148"/>
      <point x="334" y="148" type="curve" smooth="yes"/>
      <point x="322" y="148"/>
      <point x="313" y="151"/>
      <point x="306" y="154" type="curve"/>
      <point x="270" y="6" type="line"/>
      <point x="288" y="-6"/>
      <point x="326" y="-12"/>
    </contour>
    <contour>
      <point x="318" y="670" type="move" name="aboveUC"/>
    </contour>
    <contour>
      <point x="300" y="-20" type="move" name="belowLC"/>
    </contour>
  </outline>
</glyph>
<glyph name="Epsilontonos" format="1">
	<advance width="600"/>
	<outline>
		<contour>
			<point x="214" y="0" type="line"/>
			<point x="536" y="0" type="line"/>
			<point x="536" y="144" type="line"/>
			<point x="366" y="144" type="line"/>
			<point x="366" y="260" type="line"/>
			<point x="486" y="260" type="line"/>
			<point x="486" y="404" type="line"/>
			<point x="366" y="404" type="line"/>
			<point x="366" y="506" type="line"/>
			<point x="526" y="506" type="line"/>
			<point x="526" y="650" type="line"/>
			<point x="214" y="650" type="line"/>
		</contour>
		<component base="tonos.cap" xOffset="-210"/>
	</outline>
</glyph>
<glyph name="Etatonos" format="1">
	<advance width="600"/>
	<outline>
		<contour>
			<point x="198" y="0" type="line"/>
			<point x="350" y="0" type="line"/>
			<point x="350" y="258" type="line"/>
			<point x="410" y="258" type="line"/>
			<point x="410" y="0" type="line"/>
			<point x="562" y="0" type="line"/>
			<point x="562" y="650" type="line"/>
			<point x="410" y="650" type="line"/>
			<point x="410" y="408" type="line"/>
			<point x="350" y="408" type="line"/>
			<point x="350" y="650" type="line"/>
			<point x="198" y="650" type="line"/>
		</contour>
		<component base="tonos.cap" xOffset="-210"/>
	</outline>
</glyph>
<glyph name="Eth" format="1">
  <advance width="600"/>
  <outline>
    <contour>
      <point x="64" y="0" type="line"/>
      <point x="262" y="0" type="line" smooth="yes"/>
      <point x="436" y="0"/>
      <point x="568" y="98"/>
      <point x="568" y="328" type="curve" smooth="yes"/>
      <point x="568" y="558"/>
      <point x="436" y="650"/>
      <point x="252" y="650" type="curve" smooth="yes"/>
      <point x="64" y="650" type="line"/>
      <point x="64" y="372" type="line"/>
      <point x="-4" y="366" type="line"/>
      <point x="-4" y="292" type="line"/>
      <point x="64" y="292" type="line"/>
    </contour>
    <contour>
      <point x="236" y="138" type="line"/>
      <point x="236" y="292" type="line"/>
      <point x="330" y="292" type="line"/>
      <point x="330" y="372" type="line"/>
      <point x="236" y="372" type="line"/>
      <point x="236" y="512" type="line"/>
      <point x="242" y="512" type="line" smooth="yes"/>
      <point x="324" y="512"/>
      <point x="392" y="480"/>
      <point x="392" y="328" type="curve" smooth="yes"/>
      <point x="392" y="176"/>
      <point x="324" y="138"/>
      <point x="242" y="138" type="curve" smooth="yes"/>
    </contour>
    <contour>
      <point x="296" y="670" type="move" name="aboveUC"/>
    </contour>
    <contour>
      <point x="290" y="-20" type="move" name="belowLC"/>
    </contour>
  </outline>
</glyph>
<glyph name="Gheup" format="1">
  <advance width="600"/>
  <outline>
    <contour>
      <point x="98" y="0" type="line"/>
      <point x="270" y="0" type="line"/>
      <point x="270" y="506" type="line"/>
      <point x="531" y="506" type="line"/>
      <point x="521" y="650" type="line"/>
      <point x="98" y="650" type="line"/>
    </contour>
    <contour>
      <point x="337" y="506" type="line"/>
      <point x="531" y="506" type="line"/>
      <point x="542" y="822" type="line"/>
      <point x="394" y="822" type="line"/>
      <point x="372" y="650" type="line"/>
      <point x="337" y="650" type="line"/>
    </contour>
  </outline>
</glyph>
<glyph name="I" format="1">
	<advance width="600"/>
	<outline>
		<contour>
			<point x="66" y="0" type="line"/>
			<point x="534" y="0" type="line"/>
			<point x="534" y="144" type="line"/>
			<point x="386" y="144" type="line"/>
			<point x="386" y="506" type="line"/>
			<point x="534" y="506" type="line"/>
			<point x="534" y="650" type="line"/>
			<point x="66" y="650" type="line"/>
			<point x="66" y="506" type="line"/>
			<point x="214" y="506" type="line"/>
			<point x="214" y="144" type="line"/>
			<point x="66" y="144" type="line"/>
		</contour>
		<contour>
			<point name="aboveUC" x="300" y="670" type="move"/>
		</contour>
		<contour>
			<point name="baseLC" x="300" y="0" type="move"/>
		</contour>
		<contour>
			<point name="belowLC" x="300" y="-20" type="move"/>
		</contour>
		<contour>
			<point name="ogonekUC" x="300" y="0" type="move"/>
		</contour>
	</outline>
</glyph>
<glyph name="Lambda" format="1">
	<advance width="600"/>
	<outline>
		<contour>
			<point x="4" y="0" type="line"/>
			<point x="180" y="0" type="line"/>
			<point x="246" y="284" type="line"/>
			<point x="263" y="353"/>
			<point x="276" y="420"/>
			<point x="294" y="490" type="curve"/>
			<point x="298" y="490" type="line"/>
			<point x="316" y="420"/>
			<point x="328" y="353"/>
			<point x="346" y="284" type="curve"/>
			<point x="414" y="0" type="line"/>
			<point x="596" y="0" type="line"/>
			<point x="404" y="650" type="line"/>
			<point x="196" y="650" type="line"/>
		</contour>
	</outline>
</glyph>
<glyph name="Lcat" format="1">
  <advance width="600"/>
  <outline>
    <contour>
      <point x="26" y="0" type="line"/>
      <point x="274" y="0" type="line"/>
      <point x="274" y="144" type="line"/>
      <point x="178" y="144" type="line"/>
      <point x="178" y="650" type="line"/>
      <point x="26" y="650" type="line"/>
    </contour>
    <contour>
      <point x="258" y="306" type="curve" smooth="yes"/>
      <point x="300" y="306"/>
      <point x="328" y="337"/>
      <point x="328" y="376" type="curve" smooth="yes"/>
      <point x="328" y="414"/>
      <point x="300" y="446"/>
      <point x="258" y="446" type="curve" smooth="yes"/>
      <point x="216" y="446"/>
      <point x="188" y="414"/>
      <point x="188" y="376" type="curve" smooth="yes"/>
      <point x="188" y="337"/>
      <point x="216" y="306"/>
    </contour>
    <contour>
      <point x="338" y="0" type="line"/>
      <point x="586" y="0" type="line"/>
      <point x="586" y="144" type="line"/>
      <point x="490" y="144" type="line"/>
      <point x="490" y="650" type="line"/>
      <point x="338" y="650" type="line"/>
    </contour>
  </outline>
</glyph>
<glyph name="Oslash" format="1">
  <advance width="600"/>
  <outline>
    <contour>
      <point x="12" y="12" type="line"/>
      <point x="102" y="-46" type="line"/>
      <point x="588" y="638" type="line"/>
      <point x="498" y="696" type="line"/>
    </contour>
    <component base="O"/>
    <contour>
      <point x="300" y="670" type="move" name="aboveUC"/>
    </contour>
    <contour>
      <point x="300" y="0" type="move" name="baseLC"/>
    </contour>
  </outline>
</glyph>
<glyph name="Pi" format="1">
	<advance width="600"/>
	<outline>
		<contour>
			<point x="58" y="0" type="line"/>
			<point x="230" y="0" type="line"/>
			<point x="230" y="506" type="line"/>
			<point x="370" y="506" type="line"/>
			<point x="370" y="0" type="line"/>
			<point x="542" y="0" type="line"/>
			<point x="542" y="650" type="line"/>
			<point x="58" y="650" type="line"/>
		</contour>
	</outline>
</glyph>
<glyph name="S" format="1">
	<advance width="600"/>
	<outline>
		<contour>
			<point x="296" y="-12" type="curve" smooth="yes"/>
			<point x="464" y="-12"/>
			<point x="556" y="86"/>
			<point x="556" y="196" type="curve" smooth="yes"/>
			<point x="556" y="286"/>
			<point x="506" y="342"/>
			<point x="419" y="374" type="curve" smooth="yes"/>
			<point x="344" y="405" type="line" smooth="yes"/>
			<point x="279" y="429"/>
			<point x="242" y="440"/>
			<point x="242" y="470" type="curve" smooth="yes"/>
			<point x="242" y="500"/>
			<point x="268" y="514"/>
			<point x="306" y="514" type="curve" smooth="yes"/>
			<point x="368" y="514"/>
			<point x="405" y="498"/>
			<point x="452" y="467" type="curve"/>
			<point x="538" y="575" type="line"/>
			<point x="475" y="634"/>
			<point x="393" y="662"/>
			<point x="316" y="662" type="curve" smooth="yes"/>
			<point x="168" y="662"/>
			<point x="68" y="571"/>
			<point x="68" y="460" type="curve" smooth="yes"/>
			<point x="68" y="366"/>
			<point x="130" y="307"/>
			<point x="205" y="279" type="curve" smooth="yes"/>
			<point x="286" y="245" type="line" smooth="yes"/>
			<point x="346" y="220"/>
			<point x="380" y="212"/>
			<point x="380" y="174" type="curve" smooth="yes"/>
			<point x="380" y="153"/>
			<point x="360" y="136"/>
			<point x="308" y="136" type="curve" smooth="yes"/>
			<point x="249" y="136"/>
			<point x="191" y="162"/>
			<point x="142" y="199" type="curve"/>
			<point x="44" y="81" type="line"/>
			<point x="117" y="18"/>
			<point x="211" y="-12"/>
		</contour>
		<contour>
			<point name="aboveUC" x="320" y="670" type="move"/>
		</contour>
		<contour>
			<point name="baseLC" x="300" y="0" type="move"/>
		</contour>
		<contour>
			<point name="belowLC" x="300" y="-20" type="move"/>
		</contour>
	</outline>
</glyph>
<glyph name="Sha" format="1">
	<advance width="600"/>
	<outline>
		<contour>
			<point x="26" y="0" type="line"/>
			<point x="574" y="0" type="line"/>
			<point x="574" y="650" type="line"/>
			<point x="422" y="650" type="line"/>
			<point x="422" y="144" type="line"/>
			<point x="368" y="144" type="line"/>
			<point x="368" y="650" type="line"/>
			<point x="232" y="650" type="line"/>
			<point x="232" y="144" type="line"/>
			<point x="178" y="144" type="line"/>
			<point x="178" y="650" type="line"/>
			<point x="26" y="650" type="line"/>
		</contour>
	</outline>
</glyph>
<glyph name="Shcha" format="1">
  <advance width="600"/>
  <outline>
    <contour>
      <point x="26" y="0" type="line"/>
      <point x="554" y="0" type="line"/>
      <point x="554" y="650" type="line"/>
      <point x="408" y="650" type="line"/>
      <point x="408" y="144" type="line"/>
      <point x="356" y="144" type="line"/>
      <point x="356" y="650" type="line"/>
      <point x="224" y="650" type="line"/>
      <point x="224" y="144" type="line"/>
      <point x="172" y="144" type="line"/>
      <point x="172" y="650" type="line"/>
      <point x="26" y="650" type="line"/>
    </contour>
    <contour>
      <point x="464" y="-188" type="line"/>
      <point x="598" y="-188" type="line"/>
      <point x="612" y="36" type="line"/>
      <point x="612" y="144" type="line"/>
      <point x="454" y="144" type="line"/>
      <point x="454" y="0" type="line"/>
      <point x="464" y="0" type="line"/>
    </contour>
  </outline>
</glyph>
<glyph name="T" format="1">
	<advance width="600"/>
	<outline>
		<contour>
			<point x="214" y="0" type="line"/>
			<point x="386" y="0" type="line"/>
			<point x="386" y="506" type="line"/>
			<point x="573" y="506" type="line"/>
			<point x="573" y="650" type="line"/>
			<point x="27" y="650" type="line"/>
			<point x="27" y="506" type="line"/>
			<point x="214" y="506" type="line"/>
		</contour>
		<contour>
			<point name="aboveUC" x="300" y="670" type="move"/>
		</contour>
		<contour>
			<point name="baseLC" x="300" y="0" type="move"/>
		</contour>
		<contour>
			<point name="belowLC" x="300" y="-20" type="move"/>
		</contour>
	</outline>
</glyph>
<glyph name="Zedescender" format="1">
  <advance width="600"/>
  <outline>
    <contour>
      <point x="222" y="-188" type="line"/>
      <point x="376" y="-188" type="line"/>
      <point x="390" y="24" type="line"/>
      <point x="222" y="0" type="line"/>
    </contour>
    <component base="Ze"/>
  </outline>
</glyph>
<glyph name="a.a" format="1">
  <advance width="600"/>
  <outline>
    <component base="alphalatin"/>
    <contour>
      <point x="310" y="520" type="move" name="aboveLC"/>
    </contour>
    <contour>
      <point x="310" y="-20" type="move" name="belowLC"/>
    </contour>
    <contour>
      <point x="468" y="0" type="move" name="baseLC"/>
    </contour>
    <contour>
      <point x="430" y="0" type="move" name="ogonekLC"/>
    </contour>
  </outline>
</glyph>
<glyph name="aacute.alt" format="1">
  <advance width="600"/>
  <outline>
    <component base="a.alt"/>
    <component base="acutecmb" xOffset="10"/>
    <contour>
      <point x="430" y="0" type="move" name="ogonekLC"/>
    </contour>
  </outline>
</glyph>
<glyph name="acutecmb.cap" format="1">
  <advance width="600"/>
  <outline>
    <contour>
      <point x="260" y="674" type="line"/>
      <point x="456" y="794" type="line"/>
      <point x="366" y="904" type="line"/>
      <point x="184" y="760" type="line"/>
    </contour>
    <contour>
      <point x="300" y="670" type="move" name="_aboveUC"/>
    </contour>
  </outline>
</glyph>
<glyph name="ae" format="1">
  <advance width="600"/>
  <outline>
    <contour>
      <point x="150" y="-12" type="curve" smooth="yes"/>
      <point x="202" y="-12"/>
      <point x="252" y="10"/>
      <point x="312" y="84" type="curve"/>
      <point x="266" y="160" type="line"/>
      <point x="234" y="124"/>
      <point x="218" y="120"/>
      <point x="204" y="120" type="curve" smooth="yes"/>
      <point x="184" y="120"/>
      <point x="168" y="132"/>
      <point x="168" y="156" type="curve" smooth="yes"/>
      <point x="168" y="186"/>
      <point x="190" y="216"/>
      <point x="260" y="222" type="curve"/>
      <point x="260" y="322" type="line"/>
      <point x="98" y="304"/>
      <point x="16" y="246"/>
      <point x="16" y="134" type="curve" smooth="yes"/>
      <point x="16" y="50"/>
      <point x="70" y="-12"/>
    </contour>
    <contour>
      <point x="442" y="-12" type="curve" smooth="yes"/>
      <point x="480" y="-12"/>
      <point x="536" y="4"/>
      <point x="576" y="36" type="curve"/>
      <point x="518" y="146" type="line"/>
      <point x="492" y="128"/>
      <point x="471" y="122"/>
      <point x="448" y="122" type="curve" smooth="yes"/>
      <point x="402" y="122"/>
      <point x="360" y="160"/>
      <point x="360" y="250" type="curve" smooth="yes"/>
      <point x="360" y="348"/>
      <point x="390" y="382"/>
      <point x="416" y="382" type="curve" smooth="yes"/>
      <point x="446" y="382"/>
      <point x="458" y="356"/>
      <point x="458" y="282" type="curve"/>
      <point x="486" y="302" type="line"/>
      <point x="336" y="302" type="line"/>
      <point x="336" y="198" type="line"/>
      <point x="584" y="198" type="line"/>
      <point x="587" y="210"/>
      <point x="591" y="236"/>
      <point x="591" y="266" type="curve" smooth="yes"/>
      <point x="591" y="400"/>
      <point x="536" y="512"/>
      <point x="432" y="512" type="curve" smooth="yes"/>
      <point x="378" y="512"/>
      <point x="334" y="490"/>
      <point x="292" y="422" type="curve"/>
      <point x="325" y="422" type="line"/>
      <point x="290" y="490"/>
      <point x="250" y="512"/>
      <point x="194" y="512" type="curve" smooth="yes"/>
      <point x="141" y="512"/>
      <point x="88" y="492"/>
      <point x="28" y="456" type="curve"/>
      <point x="88" y="344" type="line"/>
      <point x="124" y="365"/>
      <point x="148" y="376"/>
      <point x="182" y="376" type="curve" smooth="yes"/>
      <point x="210" y="376"/>
      <point x="234" y="362"/>
      <point x="234" y="292" type="curve" smooth="yes"/>
      <point x="234" y="214" type="line" smooth="yes"/>
      <point x="234" y="98"/>
      <point x="310" y="-12"/>
    </contour>
    <contour>
      <point x="308.0" y="520.0" type="move" name="aboveLC"/>
    </contour>
    <contour>
      <point x="308.0" y="-20.0" type="move" name="belowLC"/>
    </contour>
    <contour>
      <point x="430.0" y="0.0" type="move" name="baseLC"/>
    </contour>
  </outline>
</glyph>
<glyph name="alpha" format="1">
  <advance width="600"/>
  <outline>
    <contour>
      <point x="232" y="-12" type="curve" smooth="yes"/>
      <point x="285" y="-12"/>
      <point x="325" y="12"/>
      <point x="356" y="64" type="curve"/>
      <point x="360" y="64" type="line"/>
      <point x="384" y="6"/>
      <point x="426" y="-12"/>
      <point x="500" y="-12" type="curve" smooth="yes"/>
      <point x="544" y="-12"/>
      <point x="576" y="-4"/>
      <point x="596" y="6" type="curve"/>
      <point x="576" y="132" type="line"/>
      <point x="564" y="128"/>
      <point x="553" y="126"/>
      <point x="544" y="126" type="curve" smooth="yes"/>
      <point x="516" y="126"/>
      <point x="496" y="136"/>
      <point x="496" y="170" type="curve" smooth="yes"/>
      <point x="496" y="240"/>
      <point x="536" y="390"/>
      <point x="562" y="500" type="curve"/>
      <point x="392" y="500" type="line"/>
      <point x="378" y="424" type="line"/>
      <point x="374" y="424" type="line"/>
      <point x="339" y="490"/>
      <point x="295" y="512"/>
      <point x="240" y="512" type="curve" smooth="yes"/>
      <point x="136" y="512"/>
      <point x="36" y="414"/>
      <point x="36" y="250" type="curve" smooth="yes"/>
      <point x="36" y="88"/>
      <point x="113" y="-12"/>
    </contour>
    <contour>
      <point x="274" y="128" type="curve" smooth="yes"/>
      <point x="237" y="128"/>
      <point x="212" y="162"/>
      <point x="212" y="252" type="curve" smooth="yes"/>
      <point x="212" y="340"/>
      <point x="246" y="372"/>
      <point x="278" y="372" type="curve" smooth="yes"/>
      <point x="303" y="372"/>
      <point x="329" y="342"/>
      <point x="346" y="302" type="curve"/>
      <point x="340" y="218" type="line" smooth="yes"/>
      <point x="336" y="168"/>
      <point x="306" y="128"/>
    </contour>
    <contour>
      <point x="330" y="520" type="move" name="aboveLC"/>
    </contour>
    <contour>
      <point x="310" y="-20" type="move" name="belowLC"/>
    </contour>
  </outline>
</glyph>
<glyph name="aringacute.a" format="1">
  <advance width="600"/>
  <outline>
    <contour>
      <point x="284" y="736" type="line"/>
      <point x="444" y="808" type="line"/>
      <point x="376" y="892" type="line"/>
      <point x="212" y="754" type="line"/>
    </contour>
    <component base="aring.a"/>
  </outline>
</glyph>
<glyph name="asperacute.cap" format="1">
  <advance width="600"/>
  <outline>
    <contour>
      <point x="243" y="426" type="curve"/>
      <point x="255" y="492" type="line"/>
      <point x="239" y="500"/>
      <point x="225" y="509"/>
      <point x="225" y="532" type="curve" smooth="yes"/>
      <point x="225" y="553"/>
      <point x="243" y="573"/>
      <point x="293" y="578" type="curve"/>
      <point x="273" y="662" type="line"/>
      <point x="161" y="658"/>
      <point x="113" y="614"/>
      <point x="113" y="550" type="curve" smooth="yes"/>
      <point x="113" y="474"/>
      <point x="181" y="436"/>
    </contour>
    <contour>
      <point x="325" y="450" type="line"/>
      <point x="433" y="430" type="line"/>
      <point x="497" y="650" type="line"/>
      <point x="353" y="670" type="line"/>
    </contour>
  </outline>
</glyph>
<glyph name="asperacutecmb" format="1">
  <advance width="600"/>
  <outline>
    <contour>
      <point x="232" y="574" type="curve"/>
      <point x="244" y="640" type="line"/>
      <point x="228" y="643"/>
      <point x="214" y="649"/>
      <point x="214" y="668" type="curve" smooth="yes"/>
      <point x="214" y="685"/>
      <point x="232" y="696"/>
      <point x="282" y="700" type="curve"/>
      <point x="274" y="794" type="line"/>
      <point x="154" y="790"/>
      <point x="102" y="747"/>
      <point x="102" y="686" type="curve" smooth="yes"/>
      <point x="102" y="611"/>
      <point x="171" y="582"/>
    </contour>
    <contour>
      <point x="308" y="574" type="line"/>
      <point x="402" y="556" type="line"/>
      <point x="474" y="776" type="line"/>
      <point x="338" y="802" type="line"/>
    </contour>
    <contour>
      <point x="300" y="520" type="move" name="_aboveLC"/>
    </contour>
  </outline>
</glyph>
<glyph name="aspercmb" format="1">
  <advance width="600"/>
  <outline>
    <contour>
      <point x="348" y="566" type="curve"/>
      <point x="360" y="632" type="line"/>
      <point x="338" y="635"/>
      <point x="320" y="642"/>
      <point x="320" y="662" type="curve" smooth="yes"/>
      <point x="320" y="684"/>
      <point x="340" y="698"/>
      <point x="398" y="702" type="curve"/>
      <point x="388" y="806" type="line"/>
      <point x="242" y="802"/>
      <point x="196" y="750"/>
      <point x="196" y="674" type="curve" smooth="yes"/>
      <point x="196" y="602"/>
      <point x="266" y="570"/>
    </contour>
    <contour>
      <point x="300" y="520" type="move" name="_aboveLC"/>
    </contour>
  </outline>
</glyph>
<glyph name="aspergravecmb" format="1">
	<advance width="600"/>
	<outline>
		<contour>
			<point x="222" y="574" type="curve"/>
			<point x="234" y="640" type="line"/>
			<point x="218" y="643"/>
			<point x="204" y="649"/>
			<point x="204" y="668" type="curve" smooth="yes"/>
			<point x="204" y="685"/>
			<point x="222" y="696"/>
			<point x="272" y="700" type="curve"/>
			<point x="264" y="794" type="line"/>
			<point x="144" y="790"/>
			<point x="92" y="747"/>
			<point x="92" y="686" type="curve" smooth="yes"/>
			<point x="92" y="611"/>
			<point x="161" y="582"/>
		</contour>
		<contour>
			<point x="370" y="556" type="line"/>
			<point x="464" y="574" type="line"/>
			<point x="434" y="802" type="line"/>
			<point x="298" y="776" type="line"/>
		</contour>
		<contour>
			<point name="_aboveLC" x="300" y="520" type="move"/>
		</contour>
	</outline>
</glyph>
<glyph name="aspertilde.cap" format="1">
  <advance width="600"/>
  <outline>
    <contour>
      <point x="338" y="389" type="curve"/>
      <point x="348" y="441" type="line"/>
      <point x="332" y="443"/>
      <point x="322" y="446"/>
      <point x="322" y="455" type="curve" smooth="yes"/>
      <point x="322" y="465"/>
      <point x="335" y="471"/>
      <point x="386" y="475" type="curve"/>
      <point x="370" y="541" type="line"/>
      <point x="248" y="537"/>
      <point x="212" y="513"/>
      <point x="212" y="473" type="curve" smooth="yes"/>
      <point x="212" y="420"/>
      <point x="268" y="396"/>
    </contour>
    <contour>
      <point x="352" y="558" type="curve" smooth="yes"/>
      <point x="402" y="558"/>
      <point x="432" y="575"/>
      <point x="442" y="652" type="curve"/>
      <point x="370" y="662" type="line"/>
      <point x="366" y="642"/>
      <point x="360" y="636"/>
      <point x="346" y="636" type="curve" smooth="yes"/>
      <point x="320" y="636"/>
      <point x="294" y="668"/>
      <point x="248" y="668" type="curve" smooth="yes"/>
      <point x="198" y="668"/>
      <point x="168" y="651"/>
      <point x="158" y="574" type="curve"/>
      <point x="230" y="564" type="line"/>
      <point x="234" y="584"/>
      <point x="240" y="590"/>
      <point x="254" y="590" type="curve" smooth="yes"/>
      <point x="280" y="590"/>
      <point x="306" y="558"/>
    </contour>
  </outline>
</glyph>
<glyph name="brackhalfbotleft" format="1">
	<advance width="600"/>
	<outline>
		<contour>
			<point x="190" y="-152" type="line"/>
			<point x="494" y="-152" type="line"/>
			<point x="494" y="-62" type="line"/>
			<point x="320" y="-62" type="line"/>
			<point x="320" y="278" type="line"/>
			<point x="190" y="278" type="line"/>
		</contour>
	</outline>
</glyph>
<glyph name="brevecmb.cap" format="1">
  <advance width="600"/>
  <outline>
    <contour>
      <point x="300" y="694" type="curve" smooth="yes"/>
      <point x="402" y="694"/>
      <point x="460" y="738"/>
      <point x="470" y="834" type="curve"/>
      <point x="378" y="850" type="line"/>
      <point x="369" y="811"/>
      <point x="340" y="792"/>
      <point x="300" y="792" type="curve" smooth="yes"/>
      <point x="260" y="792"/>
      <point x="231" y="811"/>
      <point x="222" y="850" type="curve"/>
      <point x="130" y="834" type="line"/>
      <point x="140" y="738"/>
      <point x="198" y="694"/>
    </contour>
    <contour>
      <point x="300" y="670" type="move" name="_aboveUC"/>
    </contour>
  </outline>
</glyph>
<glyph name="brevecmb.cyr" format="1">
  <advance width="600"/>
  <outline>
    <contour>
      <point x="300" y="572" type="curve" smooth="yes"/>
      <point x="416" y="572"/>
      <point x="476" y="626"/>
      <point x="478" y="734" type="curve"/>
      <point x="346" y="740" type="line"/>
      <point x="344" y="685"/>
      <point x="334" y="662"/>
      <point x="300" y="662" type="curve" smooth="yes"/>
      <point x="266" y="662"/>
      <point x="256" y="685"/>
      <point x="254" y="740" type="curve"/>
      <point x="122" y="734" type="line"/>
      <point x="124" y="626"/>
      <point x="184" y="572"/>
    </contour>
    <contour>
      <point x="300" y="520" type="move" name="_aboveLC"/>
    </contour>
    <contour>
      <point x="300" y="740" type="move" name="aboveLC"/>
    </contour>
  </outline>
</glyph>
<glyph name="brevecmb.cyrcap" format="1">
	<advance width="600"/>
	<outline>
		<contour>
			<point x="300" y="694" type="curve" smooth="yes"/>
			<point x="434" y="694"/>
			<point x="484" y="744"/>
			<point x="488" y="828" type="curve"/>
			<point x="344" y="834" type="line"/>
			<point x="342" y="797"/>
			<point x="328" y="778"/>
			<point x="300" y="778" type="curve" smooth="yes"/>
			<point x="272" y="778"/>
			<point x="258" y="797"/>
			<point x="256" y="834" type="curve"/>
			<point x="112" y="828" type="line"/>
			<point x="116" y="744"/>
			<point x="166" y="694"/>
		</contour>
		<contour>
			<point name="_aboveUC" x="300" y="670" type="move"/>
		</contour>
	</outline>
</glyph>
<glyph name="brevegrave" format="1">
  <advance width="600"/>
  <outline>
    <contour>
      <point x="300" y="572" type="curve" smooth="yes"/>
      <point x="418" y="572"/>
      <point x="472" y="638"/>
      <point x="474" y="732" type="curve"/>
      <point x="388" y="748" type="line"/>
      <point x="381" y="702"/>
      <point x="354" y="668"/>
      <point x="300" y="668" type="curve" smooth="yes"/>
      <point x="246" y="668"/>
      <point x="219" y="702"/>
      <point x="212" y="748" type="curve"/>
      <point x="126" y="732" type="line"/>
      <point x="128" y="638"/>
      <point x="183" y="572"/>
    </contour>
    <contour>
      <point x="286" y="706" type="line"/>
      <point x="360" y="756" type="line"/>
      <point x="264" y="904" type="line"/>
      <point x="164" y="830" type="line"/>
    </contour>
    <contour>
      <point x="300" y="520" type="move" name="_aboveLC"/>
    </contour>
  </outline>
</glyph>
<glyph name="brevegravecmb.cap" format="1">
  <advance width="600"/>
  <outline>
    <contour>
      <point x="300" y="694" type="curve" smooth="yes"/>
      <point x="402" y="694"/>
      <point x="460" y="738"/>
      <point x="470" y="834" type="curve"/>
      <point x="388" y="850" type="line"/>
      <point x="377" y="804"/>
      <point x="345" y="782"/>
      <point x="300" y="782" type="curve" smooth="yes"/>
      <point x="255" y="782"/>
      <point x="223" y="804"/>
      <point x="212" y="850" type="curve"/>
      <point x="130" y="834" type="line"/>
      <point x="140" y="738"/>
      <point x="198" y="694"/>
    </contour>
    <contour>
      <point x="278" y="806" type="line"/>
      <point x="362" y="860" type="line"/>
      <point x="266" y="1004" type="line"/>
      <point x="160" y="940" type="line"/>
    </contour>
    <contour>
      <point x="300" y="670" type="move" name="_aboveUC"/>
    </contour>
  </outline>
</glyph>
<glyph name="brevetildecmb.cap" format="1">
  <advance width="600"/>
  <outline>
    <contour>
      <point x="300" y="700" type="curve" smooth="yes"/>
      <point x="402" y="700"/>
      <point x="454" y="742"/>
      <point x="462" y="814" type="curve"/>
      <point x="382" y="828" type="line"/>
      <point x="373" y="802"/>
      <point x="352" y="780"/>
      <point x="300" y="780" type="curve" smooth="yes"/>
      <point x="248" y="780"/>
      <point x="227" y="802"/>
      <point x="218" y="828" type="curve"/>
      <point x="138" y="814" type="line"/>
      <point x="146" y="742"/>
      <point x="198" y="700"/>
    </contour>
    <contour>
      <point x="358" y="848" type="curve" smooth="yes"/>
      <point x="414" y="848"/>
      <point x="452" y="881"/>
      <point x="456" y="966" type="curve"/>
      <point x="376" y="976" type="line"/>
      <point x="372" y="950"/>
      <point x="362" y="940"/>
      <point x="346" y="940" type="curve" smooth="yes"/>
      <point x="324" y="940"/>
      <point x="294" y="982"/>
      <point x="242" y="982" type="curve" smooth="yes"/>
      <point x="186" y="982"/>
      <point x="148" y="949"/>
      <point x="144" y="864" type="curve"/>
      <point x="224" y="854" type="line"/>
      <point x="228" y="880"/>
      <point x="238" y="890"/>
      <point x="254" y="890" type="curve" smooth="yes"/>
      <point x="276" y="890"/>
      <point x="306" y="848"/>
    </contour>
    <contour>
      <point x="300" y="670" type="move" name="_aboveUC"/>
    </contour>
  </outline>
</glyph>
<glyph name="brevetildecmb" format="1">
  <advance width="600"/>
  <outline>
    <contour>
      <point x="300" y="572" type="curve" smooth="yes"/>
      <point x="406" y="572"/>
      <point x="452" y="624"/>
      <point x="458" y="688" type="curve"/>
      <point x="376" y="702" type="line"/>
      <point x="369" y="678"/>
      <point x="350" y="656"/>
      <point x="300" y="656" type="curve" smooth="yes"/>
      <point x="250" y="656"/>
      <point x="231" y="678"/>
      <point x="224" y="702" type="curve"/>
      <point x="142" y="688" type="line"/>
      <point x="148" y="624"/>
      <point x="194" y="572"/>
    </contour>
    <contour>
      <point x="356" y="716" type="curve" smooth="yes"/>
      <point x="413" y="716"/>
      <point x="453" y="750"/>
      <point x="462" y="836" type="curve"/>
      <point x="376" y="844" type="line"/>
      <point x="370" y="818"/>
      <point x="360" y="808"/>
      <point x="346" y="808" type="curve" smooth="yes"/>
      <point x="320" y="808"/>
      <point x="298" y="850"/>
      <point x="244" y="850" type="curve" smooth="yes"/>
      <point x="187" y="850"/>
      <point x="147" y="816"/>
      <point x="138" y="730" type="curve"/>
      <point x="224" y="722" type="line"/>
      <point x="230" y="748"/>
      <point x="240" y="758"/>
      <point x="254" y="758" type="curve" smooth="yes"/>
      <point x="280" y="758"/>
      <point x="302" y="716"/>
    </contour>
    <contour>
      <point x="300" y="520" type="move" name="_aboveLC"/>
    </contour>
  </outline>
</glyph>
<glyph name="bridgebelowcmb" format="1">
  <advance width="600"/>
  <outline>
    <contour>
      <point x="166" y="-218" type="line"/>
      <point x="252" y="-218" type="line"/>
      <point x="252" y="-156" type="line"/>
      <point x="348" y="-156" type="line"/>
      <point x="348" y="-218" type="line"/>
      <point x="434" y="-218" type="line"/>
      <point x="434" y="-76" type="line"/>
      <point x="166" y="-76" type="line"/>
    </contour>
    <contour>
      <point x="300" y="-20" type="move" name="_belowLC"/>
    </contour>
  </outline>
</glyph>
<glyph name="bulletwhite" format="1">
  <advance width="600"/>
  <outline>
    <contour>
      <point x="300" y="76" type="curve" smooth="yes"/>
      <point x="410" y="76"/>
      <point x="490" y="157"/>
      <point x="490" y="262" type="curve" smooth="yes"/>
      <point x="490" y="367"/>
      <point x="410" y="448"/>
      <point x="300" y="448" type="curve" smooth="yes"/>
      <point x="190" y="448"/>
      <point x="110" y="367"/>
      <point x="110" y="262" type="curve" smooth="yes"/>
      <point x="110" y="157"/>
      <point x="190" y="76"/>
    </contour>
    <contour>
      <point x="300" y="160" type="curve" smooth="yes"/>
      <point x="244" y="160"/>
      <point x="204" y="203"/>
      <point x="204" y="262" type="curve" smooth="yes"/>
      <point x="204" y="321"/>
      <point x="244" y="364"/>
      <point x="300" y="364" type="curve" smooth="yes"/>
      <point x="356" y="364"/>
      <point x="396" y="321"/>
      <point x="396" y="262" type="curve" smooth="yes"/>
      <point x="396" y="203"/>
      <point x="356" y="160"/>
    </contour>
  </outline>
</glyph>
<glyph name="c" format="1">
  <advance width="600"/>
  <outline>
    <contour>
      <point x="342" y="-12" type="curve" smooth="yes"/>
      <point x="408" y="-12"/>
      <point x="488" y="9"/>
      <point x="550" y="60" type="curve"/>
      <point x="482" y="168" type="line"/>
      <point x="448" y="147"/>
      <point x="408" y="126"/>
      <point x="359" y="126" type="curve" smooth="yes"/>
      <point x="289" y="126"/>
      <point x="238" y="174"/>
      <point x="238" y="250" type="curve" smooth="yes"/>
      <point x="238" y="326"/>
      <point x="290" y="374"/>
      <point x="365" y="374" type="curve" smooth="yes"/>
      <point x="397" y="374"/>
      <point x="429" y="365"/>
      <point x="466" y="340" type="curve"/>
      <point x="544" y="446" type="line"/>
      <point x="502" y="486"/>
      <point x="433" y="512"/>
      <point x="355" y="512" type="curve" smooth="yes"/>
      <point x="200" y="512"/>
      <point x="62" y="416"/>
      <point x="62" y="250" type="curve" smooth="yes"/>
      <point x="62" y="84"/>
      <point x="184" y="-12"/>
    </contour>
    <contour>
      <point x="340" y="520" type="move" name="aboveLC"/>
    </contour>
    <contour>
      <point x="340" y="0" type="move" name="baseLC"/>
    </contour>
    <contour>
      <point x="340" y="-20" type="move" name="belowLC"/>
    </contour>
  </outline>
</glyph>
